{"glyphs":{"0":{"ha":1189,"x_min":56,"x_max":1133,"o":"m 594 -18 q 322 55 446 -18 q 127 252 199 128 q 56 522 56 376 q 128 788 56 664 q 326 984 201 911 q 594 1057 450 1057 q 864 984 740 1057 q 1060 788 988 911 q 1133 518 1133 664 q 1061 251 1133 374 q 865 55 989 128 q 594 -18 742 -18 m 594 22 q 841 90 728 22 q 1021 271 954 157 q 1088 519 1088 385 q 1021 767 1088 653 q 841 949 954 882 q 594 1017 728 1017 q 348 949 461 1017 q 168 767 235 882 q 101 519 101 653 q 168 271 101 385 q 348 90 235 157 q 594 22 461 22 z "},"1":{"ha":335,"x_min":21,"x_max":231,"o":"m 185 999 l 21 999 l 21 1039 l 231 1039 l 231 0 l 185 0 l 185 999 z "},"2":{"ha":885,"x_min":39,"x_max":818,"o":"m 535 307 q 715 469 657 383 q 772 667 772 554 q 731 840 772 761 q 613 967 689 919 q 440 1014 538 1014 q 260 964 342 1014 q 132 829 179 914 q 85 642 85 744 l 39 642 q 92 851 39 757 q 236 1000 144 946 q 440 1054 328 1054 q 636 1001 550 1054 q 770 860 722 949 q 818 665 818 771 q 572 282 818 439 l 194 40 l 814 40 l 814 0 l 50 0 l 535 307 z "},"3":{"ha":818,"x_min":42,"x_max":756,"o":"m 397 -14 q 215 31 296 -14 q 88 153 133 76 q 42 321 42 229 l 42 350 l 85 350 l 85 328 q 124 175 85 244 q 234 65 163 106 q 396 25 306 25 q 559 62 488 25 q 670 164 631 99 q 710 311 710 229 q 654 513 710 432 q 488 624 599 594 q 575 712 546 660 q 604 821 604 764 q 580 919 604 874 q 510 991 556 964 q 403 1018 464 1018 q 289 989 339 1018 q 210 910 239 960 q 179 799 182 860 l 135 799 q 171 930 138 871 q 265 1023 204 989 q 403 1057 325 1057 q 532 1024 476 1057 q 618 935 588 990 q 649 821 649 881 q 625 718 649 767 q 554 635 601 669 q 705 513 654 596 q 756 304 756 429 q 710 144 756 217 q 582 28 664 71 q 397 -14 500 -14 z "},"4":{"ha":699,"x_min":0,"x_max":678,"o":"m 678 167 l 678 126 l 557 126 l 557 0 l 511 0 l 511 126 l 0 126 l 557 1056 l 557 167 l 678 167 m 511 167 l 511 896 l 69 167 l 511 167 z "},"5":{"ha":901,"x_min":63,"x_max":839,"o":"m 443 -14 q 276 24 356 -14 q 139 130 196 63 q 63 281 82 197 l 106 281 q 233 97 139 168 q 443 25 328 25 q 619 73 539 25 q 747 202 700 121 q 794 379 794 283 q 751 557 794 475 q 633 687 707 639 q 471 735 558 735 q 313 693 386 735 q 182 578 239 651 l 133 578 l 182 1042 l 724 1042 l 724 1001 l 219 1001 l 182 644 q 311 740 236 707 q 471 774 386 774 q 656 720 572 774 q 790 576 740 667 q 839 379 839 486 q 785 182 839 272 q 641 39 732 92 q 443 -14 550 -14 z "},"6":{"ha":876,"x_min":43,"x_max":831,"o":"m 439 -17 q 241 36 332 -17 q 97 178 150 89 q 43 372 43 267 q 186 693 43 529 l 490 1042 l 543 1042 l 251 715 q 343 756 288 740 q 450 771 399 771 q 638 717 550 771 q 778 571 726 663 q 831 374 831 479 q 778 178 831 268 q 635 36 725 89 q 439 -17 546 -17 m 439 22 q 613 69 533 22 q 738 198 692 117 q 785 375 785 279 q 738 553 785 471 q 611 683 690 635 q 439 731 532 731 q 265 682 346 731 q 137 551 185 633 q 89 375 89 469 q 136 198 89 279 q 264 69 183 117 q 439 22 344 22 z "},"7":{"ha":743,"x_min":28,"x_max":715,"o":"m 650 1001 l 28 1001 l 28 1042 l 715 1042 l 179 0 l 135 0 l 650 1001 z "},"8":{"ha":790,"x_min":42,"x_max":749,"o":"m 396 -19 q 219 28 300 -19 q 90 157 138 76 q 42 331 42 238 q 112 536 42 444 q 292 661 182 628 q 206 736 239 688 q 172 846 172 785 q 201 951 172 903 q 281 1028 231 1000 q 389 1056 331 1056 q 497 1028 447 1056 q 576 951 547 1000 q 606 846 606 903 q 575 740 606 788 q 490 664 544 693 q 624 597 565 646 q 715 479 682 549 q 749 331 749 410 q 701 156 749 236 q 573 28 654 75 q 396 -19 492 -19 m 389 678 q 473 701 433 678 q 536 764 513 725 q 560 847 560 803 q 536 931 560 892 q 473 992 513 969 q 389 1015 433 1015 q 305 992 344 1015 q 242 931 265 969 q 218 847 218 892 q 242 764 218 803 q 305 701 265 725 q 389 678 344 678 m 396 21 q 549 63 478 21 q 661 175 619 104 q 703 329 703 246 q 661 483 703 411 q 549 596 619 554 q 397 638 479 638 q 244 596 315 638 q 130 483 172 554 q 88 329 88 411 q 129 176 88 247 q 242 63 171 104 q 396 21 314 21 z "},"9":{"ha":876,"x_min":43,"x_max":831,"o":"m 435 1058 q 633 1006 542 1058 q 777 864 724 953 q 831 669 831 775 q 688 349 831 513 l 383 0 l 331 0 l 622 326 q 531 286 586 301 q 424 271 475 271 q 235 325 324 271 q 95 471 147 379 q 43 668 43 563 q 96 863 43 774 q 238 1006 149 953 q 435 1058 328 1058 m 435 1019 q 261 972 340 1019 q 135 844 182 925 q 89 667 89 763 q 136 489 89 571 q 263 359 183 407 q 435 311 342 311 q 608 360 528 311 q 737 490 689 408 q 785 667 785 572 q 738 844 785 763 q 610 972 690 925 q 435 1019 529 1019 z "},"\u0000":{"ha":0,"x_min":0,"x_max":0,"o":""},"\r":{"ha":306,"x_min":0,"x_max":0,"o":""}," ":{"ha":306,"x_min":0,"x_max":0,"o":""},"A":{"ha":1129,"x_min":44,"x_max":1085,"o":"m 1085 0 l 1036 0 l 839 397 l 286 397 l 93 0 l 44 0 l 564 1067 l 1085 0 m 822 438 l 561 967 l 306 438 l 822 438 z "},"Á":{"ha":1129,"x_min":44,"x_max":1085,"o":"m 1085 0 l 1036 0 l 839 397 l 286 397 l 93 0 l 44 0 l 564 1067 l 1085 0 m 822 438 l 561 967 l 306 438 l 822 438 m 713 1311 l 769 1311 l 576 1151 l 518 1151 l 713 1311 z "},"Ă":{"ha":1129,"x_min":44,"x_max":1085,"o":"m 1085 0 l 1036 0 l 839 397 l 286 397 l 93 0 l 44 0 l 564 1067 l 1085 0 m 822 438 l 561 967 l 306 438 l 822 438 m 564 1150 q 437 1196 483 1150 q 390 1311 390 1242 l 435 1311 q 468 1223 435 1257 q 564 1189 501 1189 q 660 1223 626 1189 q 693 1311 693 1257 l 738 1311 q 691 1196 738 1242 q 564 1150 644 1150 z "},"Ắ":{"ha":1129,"x_min":44,"x_max":1085,"o":"m 1085 0 l 1036 0 l 839 397 l 286 397 l 93 0 l 44 0 l 564 1067 l 1085 0 m 822 438 l 561 967 l 306 438 l 822 438 m 564 1150 q 437 1196 483 1150 q 390 1311 390 1242 l 435 1311 q 468 1223 435 1257 q 564 1189 501 1189 q 660 1223 626 1189 q 693 1311 693 1257 l 738 1311 q 691 1196 738 1242 q 564 1150 644 1150 m 722 1493 l 779 1493 l 586 1333 l 528 1333 l 722 1493 z "},"Ặ":{"ha":1129,"x_min":44,"x_max":1085,"o":"m 1085 0 l 1036 0 l 839 397 l 286 397 l 93 0 l 44 0 l 564 1067 l 1085 0 m 822 438 l 561 967 l 306 438 l 822 438 m 565 -179 q 531 -165 546 -179 q 517 -131 517 -151 q 531 -97 517 -111 q 565 -83 546 -83 q 599 -97 585 -83 q 614 -131 614 -111 q 599 -165 614 -151 q 565 -179 585 -179 m 564 1150 q 437 1196 483 1150 q 390 1311 390 1242 l 435 1311 q 468 1223 435 1257 q 564 1189 501 1189 q 660 1223 626 1189 q 693 1311 693 1257 l 738 1311 q 691 1196 738 1242 q 564 1150 644 1150 z "},"Ằ":{"ha":1129,"x_min":44,"x_max":1085,"o":"m 1085 0 l 1036 0 l 839 397 l 286 397 l 93 0 l 44 0 l 564 1067 l 1085 0 m 822 438 l 561 967 l 306 438 l 822 438 m 564 1150 q 437 1196 483 1150 q 390 1311 390 1242 l 435 1311 q 468 1223 435 1257 q 564 1189 501 1189 q 660 1223 626 1189 q 693 1311 693 1257 l 738 1311 q 691 1196 738 1242 q 564 1150 644 1150 m 551 1333 l 414 1493 l 465 1493 l 604 1333 l 551 1333 z "},"Ẳ":{"ha":1129,"x_min":44,"x_max":1085,"o":"m 1085 0 l 1036 0 l 839 397 l 286 397 l 93 0 l 44 0 l 564 1067 l 1085 0 m 822 438 l 561 967 l 306 438 l 822 438 m 565 1150 q 438 1196 485 1150 q 392 1311 392 1242 l 436 1311 q 469 1223 436 1257 q 565 1189 503 1189 q 661 1223 628 1189 q 694 1311 694 1257 l 739 1311 q 692 1196 739 1242 q 565 1150 646 1150 m 550 1340 q 657 1400 657 1340 q 636 1440 657 1425 q 575 1456 615 1456 q 513 1436 536 1456 q 489 1383 489 1417 l 444 1383 q 481 1466 444 1436 q 576 1496 517 1496 q 668 1467 635 1496 q 701 1394 701 1438 q 674 1337 701 1357 q 594 1314 647 1317 l 594 1278 l 550 1278 l 550 1340 z "},"Ẵ":{"ha":1129,"x_min":44,"x_max":1085,"o":"m 1085 0 l 1036 0 l 839 397 l 286 397 l 93 0 l 44 0 l 564 1067 l 1085 0 m 822 438 l 561 967 l 306 438 l 822 438 m 564 1150 q 437 1196 483 1150 q 390 1311 390 1242 l 435 1311 q 468 1223 435 1257 q 564 1189 501 1189 q 660 1223 626 1189 q 693 1311 693 1257 l 738 1311 q 691 1196 738 1242 q 564 1150 644 1150 m 390 1328 q 419 1413 390 1382 q 493 1443 449 1443 q 544 1433 524 1443 q 589 1401 564 1422 q 620 1378 607 1386 q 650 1371 633 1371 q 700 1438 700 1371 l 744 1438 q 719 1358 744 1383 q 649 1332 694 1332 q 604 1342 622 1332 q 561 1372 586 1351 q 528 1397 542 1389 q 497 1404 515 1404 q 451 1383 468 1404 q 435 1328 435 1361 l 390 1328 z "},"Â":{"ha":1129,"x_min":44,"x_max":1085,"o":"m 1085 0 l 1036 0 l 839 397 l 286 397 l 93 0 l 44 0 l 564 1067 l 1085 0 m 822 438 l 561 967 l 306 438 l 822 438 m 713 1151 l 567 1276 l 421 1151 l 360 1151 l 546 1311 l 588 1311 l 771 1151 l 713 1151 z "},"Ấ":{"ha":1129,"x_min":44,"x_max":1085,"o":"m 1085 0 l 1036 0 l 839 397 l 286 397 l 93 0 l 44 0 l 564 1067 l 1085 0 m 822 438 l 561 967 l 306 438 l 822 438 m 719 1217 l 692 1246 l 807 1376 l 858 1376 l 719 1217 m 586 1311 l 742 1151 l 689 1151 l 565 1279 l 442 1151 l 386 1151 l 544 1311 l 586 1311 z "},"Ậ":{"ha":1129,"x_min":44,"x_max":1085,"o":"m 1085 0 l 1036 0 l 839 397 l 286 397 l 93 0 l 44 0 l 564 1067 l 1085 0 m 822 438 l 561 967 l 306 438 l 822 438 m 565 -179 q 531 -165 546 -179 q 517 -131 517 -151 q 531 -97 517 -111 q 565 -83 546 -83 q 599 -97 585 -83 q 614 -131 614 -111 q 599 -165 614 -151 q 565 -179 585 -179 m 690 1151 l 567 1279 l 443 1151 l 388 1151 l 546 1311 l 588 1311 l 743 1151 l 690 1151 z "},"Ầ":{"ha":1129,"x_min":44,"x_max":1085,"o":"m 1085 0 l 1036 0 l 839 397 l 286 397 l 93 0 l 44 0 l 564 1067 l 1085 0 m 822 438 l 561 967 l 306 438 l 822 438 m 414 1217 l 275 1376 l 326 1376 l 442 1246 l 414 1217 m 693 1151 l 569 1279 l 446 1151 l 390 1151 l 549 1311 l 590 1311 l 746 1151 l 693 1151 z "},"Ẩ":{"ha":1129,"x_min":44,"x_max":1085,"o":"m 1085 0 l 1036 0 l 839 397 l 286 397 l 93 0 l 44 0 l 564 1067 l 1085 0 m 822 438 l 561 967 l 306 438 l 822 438 m 733 1468 q 815 1439 786 1468 q 844 1367 844 1410 q 751 1286 844 1290 l 751 1250 l 707 1250 l 707 1313 q 800 1372 800 1313 q 783 1413 800 1397 q 732 1428 765 1428 q 680 1408 700 1428 q 660 1356 660 1389 l 615 1356 q 648 1438 615 1408 q 733 1468 681 1468 m 588 1311 l 743 1151 l 689 1151 l 565 1279 l 443 1151 l 388 1151 l 546 1311 l 588 1311 z "},"Ẫ":{"ha":1129,"x_min":44,"x_max":1085,"o":"m 1085 0 l 1036 0 l 839 397 l 286 397 l 93 0 l 44 0 l 564 1067 l 1085 0 m 822 438 l 561 967 l 306 438 l 822 438 m 690 1151 l 567 1279 l 443 1151 l 388 1151 l 546 1311 l 588 1311 l 743 1151 l 690 1151 m 392 1326 q 421 1411 392 1381 q 494 1442 450 1442 q 545 1431 525 1442 q 590 1400 565 1421 q 622 1377 608 1385 q 651 1369 635 1369 q 701 1436 701 1369 l 746 1436 q 721 1356 746 1382 q 650 1331 696 1331 q 606 1340 624 1331 q 563 1371 588 1350 q 530 1395 543 1388 q 499 1403 517 1403 q 453 1381 469 1403 q 436 1326 436 1360 l 392 1326 z "},"Ȁ":{"ha":1129,"x_min":44,"x_max":1085,"o":"m 1085 0 l 1036 0 l 839 397 l 286 397 l 93 0 l 44 0 l 564 1067 l 1085 0 m 822 438 l 561 967 l 306 438 l 822 438 m 296 1311 l 353 1311 l 547 1151 l 489 1151 l 296 1311 m 435 1311 l 492 1311 l 686 1151 l 628 1151 l 435 1311 z "},"Ä":{"ha":1129,"x_min":44,"x_max":1085,"o":"m 1085 0 l 1036 0 l 839 397 l 286 397 l 93 0 l 44 0 l 564 1067 l 1085 0 m 822 438 l 561 967 l 306 438 l 822 438 m 485 1188 q 455 1199 467 1188 q 443 1229 443 1211 q 455 1259 443 1247 q 485 1271 467 1271 q 515 1259 503 1271 q 526 1229 526 1247 q 515 1199 526 1211 q 485 1188 503 1188 m 642 1188 q 612 1199 624 1188 q 600 1229 600 1211 q 612 1259 600 1247 q 642 1271 624 1271 q 672 1259 660 1271 q 683 1229 683 1247 q 672 1199 683 1211 q 642 1188 660 1188 z "},"Ạ":{"ha":1129,"x_min":44,"x_max":1085,"o":"m 1085 0 l 1036 0 l 839 397 l 286 397 l 93 0 l 44 0 l 564 1067 l 1085 0 m 822 438 l 561 967 l 306 438 l 822 438 m 565 -179 q 531 -165 546 -179 q 517 -131 517 -151 q 531 -97 517 -111 q 565 -83 546 -83 q 599 -97 585 -83 q 614 -131 614 -111 q 599 -165 614 -151 q 565 -179 585 -179 z "},"À":{"ha":1129,"x_min":44,"x_max":1085,"o":"m 1085 0 l 1036 0 l 839 397 l 286 397 l 93 0 l 44 0 l 564 1067 l 1085 0 m 822 438 l 561 967 l 306 438 l 822 438 m 439 1311 l 496 1311 l 690 1151 l 632 1151 l 439 1311 z "},"Ả":{"ha":1129,"x_min":44,"x_max":1085,"o":"m 1085 0 l 1036 0 l 839 397 l 286 397 l 93 0 l 44 0 l 564 1067 l 1085 0 m 822 438 l 561 967 l 306 438 l 822 438 m 539 1185 q 646 1244 646 1185 q 625 1285 646 1269 q 564 1300 604 1300 q 501 1281 525 1300 q 478 1228 478 1261 l 433 1228 q 469 1310 433 1281 q 565 1340 506 1340 q 657 1311 624 1340 q 690 1239 690 1282 q 663 1181 690 1201 q 583 1158 636 1161 l 583 1122 l 539 1122 l 539 1185 z "},"Ȃ":{"ha":1129,"x_min":44,"x_max":1085,"o":"m 1085 0 l 1036 0 l 839 397 l 286 397 l 93 0 l 44 0 l 564 1067 l 1085 0 m 822 438 l 561 967 l 306 438 l 822 438 m 565 1311 q 692 1265 646 1311 q 739 1150 739 1219 l 694 1150 q 661 1238 694 1204 q 565 1272 628 1272 q 469 1238 503 1272 q 436 1150 436 1204 l 392 1150 q 438 1265 392 1219 q 565 1311 485 1311 z "},"Ā":{"ha":1099,"x_min":29,"x_max":1069,"o":"m 549 1067 l 1069 0 l 1021 0 l 824 397 l 267 397 l 72 0 l 29 0 l 549 1067 m 807 438 l 544 971 l 285 438 l 807 438 z "},"Ą":{"ha":1129,"x_min":44,"x_max":1085,"o":"m 1085 0 l 1036 0 l 839 397 l 286 397 l 93 0 l 44 0 l 564 1067 l 1085 0 m 822 438 l 561 967 l 306 438 l 822 438 m 1022 -278 q 949 -255 976 -278 q 921 -197 921 -232 q 943 -136 921 -167 l 1040 0 l 1085 0 l 978 -151 q 961 -194 961 -175 q 978 -228 961 -215 q 1025 -242 996 -242 l 1085 -242 l 1085 -278 l 1022 -278 z "},"Å":{"ha":1129,"x_min":44,"x_max":1085,"o":"m 1085 0 l 1036 0 l 839 397 l 286 397 l 93 0 l 44 0 l 564 1067 l 1085 0 m 822 438 l 561 967 l 306 438 l 822 438 m 561 1128 q 490 1159 519 1128 q 460 1233 460 1190 q 491 1306 460 1275 q 565 1336 522 1336 q 639 1306 608 1336 q 669 1233 669 1275 q 639 1159 669 1190 q 567 1128 608 1128 l 561 1128 m 565 1161 q 613 1182 593 1161 q 633 1232 633 1203 q 613 1282 633 1261 q 565 1303 593 1303 q 515 1281 536 1303 q 494 1232 494 1260 q 515 1183 494 1204 q 565 1161 536 1161 z "},"Ǻ":{"ha":1129,"x_min":44,"x_max":1085,"o":"m 1085 0 l 1036 0 l 839 397 l 286 397 l 93 0 l 44 0 l 564 1067 l 1085 0 m 822 438 l 561 967 l 306 438 l 822 438 m 561 1128 q 490 1159 519 1128 q 460 1233 460 1190 q 491 1306 460 1275 q 565 1336 522 1336 q 639 1306 608 1336 q 669 1233 669 1275 q 639 1159 669 1190 q 567 1128 608 1128 l 561 1128 m 565 1161 q 613 1182 593 1161 q 633 1232 633 1203 q 613 1282 633 1261 q 565 1303 593 1303 q 515 1281 536 1303 q 494 1232 494 1260 q 515 1183 494 1204 q 565 1161 536 1161 m 646 1525 l 697 1525 l 560 1365 l 507 1365 l 646 1525 z "},"Ã":{"ha":1129,"x_min":44,"x_max":1085,"o":"m 1085 0 l 1036 0 l 839 397 l 286 397 l 93 0 l 44 0 l 564 1067 l 1085 0 m 822 438 l 561 967 l 306 438 l 822 438 m 381 1146 q 410 1231 381 1200 q 483 1261 439 1261 q 534 1251 514 1261 q 579 1219 554 1240 q 610 1197 597 1204 q 640 1189 624 1189 q 690 1256 690 1189 l 735 1256 q 710 1176 735 1201 q 639 1150 685 1150 q 594 1160 613 1150 q 551 1190 576 1169 q 519 1215 532 1207 q 488 1222 506 1222 q 442 1201 458 1222 q 425 1146 425 1179 l 381 1146 z "},"Æ":{"ha":963,"x_min":36,"x_max":926,"o":"m 599 1001 l 599 439 l 872 439 l 872 399 l 599 399 l 599 40 l 926 40 l 926 0 l 553 0 l 553 397 l 283 397 l 88 0 l 36 0 l 553 1042 l 926 1042 l 926 1001 l 599 1001 m 553 944 l 303 438 l 553 438 l 553 944 z "},"Ǽ":{"ha":963,"x_min":36,"x_max":926,"o":"m 599 1001 l 599 439 l 872 439 l 872 399 l 599 399 l 599 40 l 926 40 l 926 0 l 553 0 l 553 397 l 283 397 l 88 0 l 36 0 l 553 1042 l 926 1042 l 926 1001 l 599 1001 m 553 944 l 303 438 l 553 438 l 553 944 m 807 1311 l 864 1311 l 671 1151 l 613 1151 l 807 1311 z "},"B":{"ha":560,"x_min":110,"x_max":503,"o":"m 110 1042 l 154 1042 q 315 991 264 1042 q 367 842 367 940 q 333 733 367 785 q 253 663 300 681 q 438 563 372 643 q 503 351 503 482 q 457 167 503 247 q 331 44 411 88 q 154 0 251 0 l 110 0 l 110 1042 m 165 675 q 278 724 232 675 q 324 843 324 772 q 285 963 324 922 q 165 1003 247 1003 l 154 1003 l 154 675 l 165 675 m 165 39 q 314 78 247 39 q 419 189 381 118 q 458 349 458 260 q 383 565 458 492 q 165 638 307 638 l 154 638 l 154 39 l 165 39 z "},"C":{"ha":976,"x_min":65,"x_max":889,"o":"m 599 -28 q 331 44 453 -28 q 137 241 208 115 q 65 524 65 367 q 140 800 65 675 q 338 997 214 925 q 603 1069 463 1069 q 757 1052 700 1069 q 889 992 814 1035 l 889 940 q 758 1009 818 989 q 607 1029 697 1029 q 356 959 469 1029 q 177 772 243 889 q 111 519 111 654 q 178 267 111 383 q 355 81 244 150 q 593 13 465 13 q 753 34 685 13 q 889 101 821 56 l 889 50 q 752 -9 822 10 q 599 -28 682 -28 z "},"Ć":{"ha":976,"x_min":65,"x_max":889,"o":"m 599 -28 q 331 44 453 -28 q 137 241 208 115 q 65 524 65 367 q 140 800 65 675 q 338 997 214 925 q 603 1069 463 1069 q 757 1052 700 1069 q 889 992 814 1035 l 889 940 q 758 1009 818 989 q 607 1029 697 1029 q 356 959 469 1029 q 177 772 243 889 q 111 519 111 654 q 178 267 111 383 q 355 81 244 150 q 593 13 465 13 q 753 34 685 13 q 889 101 821 56 l 889 50 q 752 -9 822 10 q 599 -28 682 -28 m 760 1311 l 817 1311 l 624 1151 l 565 1151 l 760 1311 z "},"Č":{"ha":976,"x_min":65,"x_max":889,"o":"m 599 -28 q 331 44 453 -28 q 137 241 208 115 q 65 524 65 367 q 140 800 65 675 q 338 997 214 925 q 603 1069 463 1069 q 757 1052 700 1069 q 889 992 814 1035 l 889 940 q 758 1009 818 989 q 607 1029 697 1029 q 356 959 469 1029 q 177 772 243 889 q 111 519 111 654 q 178 267 111 383 q 355 81 244 150 q 593 13 465 13 q 753 34 685 13 q 889 101 821 56 l 889 50 q 752 -9 822 10 q 599 -28 682 -28 m 407 1311 l 465 1311 l 613 1185 l 761 1311 l 818 1311 l 635 1151 l 593 1151 l 407 1311 z "},"Ç":{"ha":976,"x_min":65,"x_max":889,"o":"m 607 1029 q 356 959 469 1029 q 177 772 243 889 q 111 519 111 654 q 178 267 111 383 q 355 81 244 150 q 593 13 465 13 q 753 34 685 13 q 889 101 821 56 l 889 50 q 761 -7 826 11 q 619 -28 696 -25 l 619 -82 l 624 -82 q 724 -167 724 -82 q 698 -240 725 -214 q 625 -267 671 -267 l 575 -267 l 575 -228 l 625 -228 q 666 -212 651 -228 q 681 -172 681 -197 q 625 -122 681 -122 l 576 -122 l 575 -28 q 318 51 435 -22 q 133 247 201 124 q 65 524 65 371 q 140 800 65 675 q 338 997 214 925 q 603 1069 463 1069 q 757 1052 700 1069 q 889 992 814 1035 l 889 940 q 758 1009 818 989 q 607 1029 697 1029 z "},"Ĉ":{"ha":976,"x_min":65,"x_max":889,"o":"m 599 -28 q 331 44 453 -28 q 137 241 208 115 q 65 524 65 367 q 140 800 65 675 q 338 997 214 925 q 603 1069 463 1069 q 757 1052 700 1069 q 889 992 814 1035 l 889 940 q 758 1009 818 989 q 607 1029 697 1029 q 356 959 469 1029 q 177 772 243 889 q 111 519 111 654 q 178 267 111 383 q 355 81 244 150 q 593 13 465 13 q 753 34 685 13 q 889 101 821 56 l 889 50 q 752 -9 822 10 q 599 -28 682 -28 m 760 1151 l 614 1276 l 468 1151 l 407 1151 l 593 1311 l 635 1311 l 818 1151 l 760 1151 z "},"Ċ":{"ha":976,"x_min":65,"x_max":889,"o":"m 599 -28 q 331 44 453 -28 q 137 241 208 115 q 65 524 65 367 q 140 800 65 675 q 338 997 214 925 q 603 1069 463 1069 q 757 1052 700 1069 q 889 992 814 1035 l 889 940 q 758 1009 818 989 q 607 1029 697 1029 q 356 959 469 1029 q 177 772 243 889 q 111 519 111 654 q 178 267 111 383 q 355 81 244 150 q 593 13 465 13 q 753 34 685 13 q 889 101 821 56 l 889 50 q 752 -9 822 10 q 599 -28 682 -28 m 613 1182 q 578 1196 593 1182 q 564 1231 564 1210 q 578 1264 564 1250 q 613 1278 593 1278 q 647 1264 632 1278 q 661 1231 661 1250 q 647 1196 661 1210 q 613 1182 632 1182 z "},"D":{"ha":739,"x_min":110,"x_max":674,"o":"m 110 1042 l 154 1042 q 538 906 403 1042 q 674 521 674 771 q 604 258 674 378 q 416 69 535 139 q 154 0 297 0 l 110 0 l 110 1042 m 165 43 q 399 106 293 43 q 566 279 504 169 q 628 521 628 389 q 508 876 628 751 q 165 1000 388 1000 l 154 1000 l 154 43 l 165 43 z "},"Ǆ":{"ha":1335,"x_min":110,"x_max":1303,"o":"m 110 1042 l 154 1042 q 538 906 403 1042 q 674 521 674 771 q 604 258 674 378 q 416 69 535 139 q 154 0 297 0 l 110 0 l 110 1042 m 165 43 q 399 106 293 43 q 566 279 504 169 q 628 521 628 389 q 508 876 628 751 q 165 1000 388 1000 l 154 1000 l 154 43 l 165 43 m 1233 1001 l 775 1001 l 775 1042 l 1303 1042 l 843 40 l 1299 40 l 1299 0 l 775 0 l 1233 1001 m 863 1311 l 921 1311 l 1068 1185 l 1217 1311 l 1274 1311 l 1090 1151 l 1049 1151 l 863 1311 z "},"Ð":{"ha":735,"x_min":22,"x_max":669,"o":"m 106 501 l 22 501 l 22 542 l 106 542 l 106 1042 l 150 1042 q 420 972 301 1042 q 604 783 539 901 q 669 521 669 664 q 604 258 669 378 q 421 69 539 139 q 150 0 303 0 l 106 0 l 106 501 m 161 43 q 399 107 293 43 q 564 281 504 171 q 624 521 624 390 q 564 761 624 651 q 399 935 504 871 q 161 1000 293 1000 l 150 1000 l 150 542 l 322 542 l 322 501 l 150 501 l 150 43 l 161 43 z "},"Ď":{"ha":739,"x_min":110,"x_max":674,"o":"m 110 1042 l 154 1042 q 538 906 403 1042 q 674 521 674 771 q 604 258 674 378 q 416 69 535 139 q 154 0 297 0 l 110 0 l 110 1042 m 165 43 q 399 106 293 43 q 566 279 504 169 q 628 521 628 389 q 508 876 628 751 q 165 1000 388 1000 l 154 1000 l 154 43 l 165 43 m 144 1311 l 203 1311 l 350 1185 l 499 1311 l 556 1311 l 372 1151 l 331 1151 l 144 1311 z "},"Đ":{"ha":735,"x_min":22,"x_max":669,"o":"m 106 501 l 22 501 l 22 542 l 106 542 l 106 1042 l 150 1042 q 420 972 301 1042 q 604 783 539 901 q 669 521 669 664 q 604 258 669 378 q 421 69 539 139 q 150 0 303 0 l 106 0 l 106 501 m 161 43 q 399 107 293 43 q 564 281 504 171 q 624 521 624 390 q 564 761 624 651 q 399 935 504 871 q 161 1000 293 1000 l 150 1000 l 150 542 l 322 542 l 322 501 l 150 501 l 150 43 l 161 43 z "},"ǅ":{"ha":1246,"x_min":110,"x_max":1210,"o":"m 110 1042 l 154 1042 q 538 906 403 1042 q 674 521 674 771 q 604 258 674 378 q 416 69 535 139 q 154 0 297 0 l 110 0 l 110 1042 m 165 43 q 399 106 293 43 q 566 279 504 169 q 628 521 628 389 q 508 876 628 751 q 165 1000 388 1000 l 154 1000 l 154 43 l 165 43 m 1131 586 l 813 586 l 813 625 l 1210 625 l 853 39 l 1206 39 l 1206 0 l 775 0 l 1131 586 m 788 894 l 846 894 l 993 768 l 1142 894 l 1199 894 l 1015 735 l 974 735 l 788 894 z "},"E":{"ha":519,"x_min":110,"x_max":483,"o":"m 110 1042 l 483 1042 l 483 1001 l 156 1001 l 156 435 l 429 435 l 429 394 l 156 394 l 156 40 l 483 40 l 483 0 l 110 0 l 110 1042 z "},"É":{"ha":519,"x_min":110,"x_max":522,"o":"m 110 1042 l 483 1042 l 483 1001 l 156 1001 l 156 435 l 429 435 l 429 394 l 156 394 l 156 40 l 483 40 l 483 0 l 110 0 l 110 1042 m 465 1311 l 522 1311 l 329 1151 l 271 1151 l 465 1311 z "},"Ĕ":{"ha":519,"x_min":110,"x_max":490,"o":"m 110 1042 l 483 1042 l 483 1001 l 156 1001 l 156 435 l 429 435 l 429 394 l 156 394 l 156 40 l 483 40 l 483 0 l 110 0 l 110 1042 m 317 1150 q 190 1196 236 1150 q 143 1311 143 1242 l 188 1311 q 221 1223 188 1257 q 317 1189 254 1189 q 413 1223 379 1189 q 446 1311 446 1257 l 490 1311 q 444 1196 490 1242 q 317 1150 397 1150 z "},"Ě":{"ha":519,"x_min":110,"x_max":524,"o":"m 110 1042 l 483 1042 l 483 1001 l 156 1001 l 156 435 l 429 435 l 429 394 l 156 394 l 156 40 l 483 40 l 483 0 l 110 0 l 110 1042 m 113 1311 l 171 1311 l 318 1185 l 467 1311 l 524 1311 l 340 1151 l 299 1151 l 113 1311 z "},"Ê":{"ha":519,"x_min":110,"x_max":524,"o":"m 110 1042 l 483 1042 l 483 1001 l 156 1001 l 156 435 l 429 435 l 429 394 l 156 394 l 156 40 l 483 40 l 483 0 l 110 0 l 110 1042 m 465 1151 l 319 1276 l 174 1151 l 113 1151 l 299 1311 l 340 1311 l 524 1151 l 465 1151 z "},"Ế":{"ha":519,"x_min":110,"x_max":611,"o":"m 110 1042 l 483 1042 l 483 1001 l 156 1001 l 156 435 l 429 435 l 429 394 l 156 394 l 156 40 l 483 40 l 483 0 l 110 0 l 110 1042 m 472 1217 l 444 1246 l 560 1376 l 611 1376 l 472 1217 m 339 1311 l 494 1151 l 442 1151 l 318 1279 l 194 1151 l 139 1151 l 297 1311 l 339 1311 z "},"Ệ":{"ha":519,"x_min":110,"x_max":524,"o":"m 110 1042 l 483 1042 l 483 1001 l 156 1001 l 156 435 l 429 435 l 429 394 l 156 394 l 156 40 l 483 40 l 483 0 l 110 0 l 110 1042 m 308 -179 q 274 -165 289 -179 q 260 -131 260 -151 q 274 -97 260 -111 q 308 -83 289 -83 q 342 -97 328 -83 q 357 -131 357 -111 q 342 -165 357 -151 q 308 -179 328 -179 m 465 1151 l 319 1276 l 174 1151 l 113 1151 l 299 1311 l 340 1311 l 524 1151 l 465 1151 z "},"Ề":{"ha":519,"x_min":28,"x_max":499,"o":"m 110 1042 l 483 1042 l 483 1001 l 156 1001 l 156 435 l 429 435 l 429 394 l 156 394 l 156 40 l 483 40 l 483 0 l 110 0 l 110 1042 m 167 1217 l 28 1376 l 79 1376 l 194 1246 l 167 1217 m 446 1151 l 322 1279 l 199 1151 l 143 1151 l 301 1311 l 343 1311 l 499 1151 l 446 1151 z "},"Ể":{"ha":519,"x_min":110,"x_max":597,"o":"m 110 1042 l 483 1042 l 483 1001 l 156 1001 l 156 435 l 429 435 l 429 394 l 156 394 l 156 40 l 483 40 l 483 0 l 110 0 l 110 1042 m 486 1468 q 568 1439 539 1468 q 597 1367 597 1410 q 504 1286 597 1290 l 504 1250 l 460 1250 l 460 1313 q 553 1372 553 1313 q 535 1413 553 1397 q 485 1428 518 1428 q 433 1408 453 1428 q 413 1356 413 1389 l 368 1356 q 401 1438 368 1408 q 486 1468 433 1468 m 340 1311 l 496 1151 l 442 1151 l 318 1279 l 196 1151 l 140 1151 l 299 1311 l 340 1311 z "},"Ễ":{"ha":519,"x_min":110,"x_max":499,"o":"m 110 1042 l 483 1042 l 483 1001 l 156 1001 l 156 435 l 429 435 l 429 394 l 156 394 l 156 40 l 483 40 l 483 0 l 110 0 l 110 1042 m 443 1151 l 319 1279 l 196 1151 l 140 1151 l 299 1311 l 340 1311 l 496 1151 l 443 1151 m 144 1326 q 174 1411 144 1381 q 247 1442 203 1442 q 298 1431 278 1442 q 343 1400 318 1421 q 374 1377 361 1385 q 404 1369 388 1369 q 454 1436 454 1369 l 499 1436 q 474 1356 499 1382 q 403 1331 449 1331 q 358 1340 376 1331 q 315 1371 340 1350 q 283 1395 296 1388 q 251 1403 269 1403 q 206 1381 222 1403 q 189 1326 189 1360 l 144 1326 z "},"Ȅ":{"ha":519,"x_min":49,"x_max":483,"o":"m 110 1042 l 483 1042 l 483 1001 l 156 1001 l 156 435 l 429 435 l 429 394 l 156 394 l 156 40 l 483 40 l 483 0 l 110 0 l 110 1042 m 49 1311 l 106 1311 l 300 1151 l 242 1151 l 49 1311 m 188 1311 l 244 1311 l 439 1151 l 381 1151 l 188 1311 z "},"Ë":{"ha":519,"x_min":110,"x_max":483,"o":"m 110 1042 l 483 1042 l 483 1001 l 156 1001 l 156 435 l 429 435 l 429 394 l 156 394 l 156 40 l 483 40 l 483 0 l 110 0 l 110 1042 m 238 1188 q 208 1199 219 1188 q 196 1229 196 1211 q 208 1259 196 1247 q 238 1271 219 1271 q 267 1259 256 1271 q 279 1229 279 1247 q 267 1199 279 1211 q 238 1188 256 1188 m 394 1188 q 365 1199 376 1188 q 353 1229 353 1211 q 365 1259 353 1247 q 394 1271 376 1271 q 424 1259 413 1271 q 436 1229 436 1247 q 424 1199 436 1211 q 394 1188 413 1188 z "},"Ė":{"ha":519,"x_min":110,"x_max":483,"o":"m 110 1042 l 483 1042 l 483 1001 l 156 1001 l 156 435 l 429 435 l 429 394 l 156 394 l 156 40 l 483 40 l 483 0 l 110 0 l 110 1042 m 318 1182 q 284 1196 299 1182 q 269 1231 269 1210 q 284 1264 269 1250 q 318 1278 299 1278 q 352 1264 338 1278 q 367 1231 367 1250 q 352 1196 367 1210 q 318 1182 338 1182 z "},"Ẹ":{"ha":519,"x_min":110,"x_max":483,"o":"m 110 1042 l 483 1042 l 483 1001 l 156 1001 l 156 435 l 429 435 l 429 394 l 156 394 l 156 40 l 483 40 l 483 0 l 110 0 l 110 1042 m 308 -179 q 274 -165 289 -179 q 260 -131 260 -151 q 274 -97 260 -111 q 308 -83 289 -83 q 342 -97 328 -83 q 357 -131 357 -111 q 342 -165 357 -151 q 308 -179 328 -179 z "},"È":{"ha":519,"x_min":110,"x_max":483,"o":"m 110 1042 l 483 1042 l 483 1001 l 156 1001 l 156 435 l 429 435 l 429 394 l 156 394 l 156 40 l 483 40 l 483 0 l 110 0 l 110 1042 m 192 1311 l 249 1311 l 443 1151 l 385 1151 l 192 1311 z "},"Ẻ":{"ha":519,"x_min":110,"x_max":483,"o":"m 110 1042 l 483 1042 l 483 1001 l 156 1001 l 156 435 l 429 435 l 429 394 l 156 394 l 156 40 l 483 40 l 483 0 l 110 0 l 110 1042 m 292 1185 q 399 1244 399 1185 q 378 1285 399 1269 q 317 1300 357 1300 q 254 1281 278 1300 q 231 1228 231 1261 l 186 1228 q 222 1310 186 1281 q 318 1340 258 1340 q 410 1311 376 1340 q 443 1239 443 1282 q 416 1181 443 1201 q 336 1158 389 1161 l 336 1122 l 292 1122 l 292 1185 z "},"Ȇ":{"ha":519,"x_min":110,"x_max":492,"o":"m 110 1042 l 483 1042 l 483 1001 l 156 1001 l 156 435 l 429 435 l 429 394 l 156 394 l 156 40 l 483 40 l 483 0 l 110 0 l 110 1042 m 318 1311 q 445 1265 399 1311 q 492 1150 492 1219 l 447 1150 q 414 1238 447 1204 q 318 1272 381 1272 q 222 1238 256 1272 q 189 1150 189 1204 l 144 1150 q 191 1265 144 1219 q 318 1311 238 1311 z "},"Ē":{"ha":519,"x_min":110,"x_max":483,"o":"m 110 1042 l 483 1042 l 483 1001 l 156 1001 l 156 435 l 429 435 l 429 394 l 156 394 l 156 40 l 483 40 l 483 0 l 110 0 l 110 1042 z "},"Ę":{"ha":519,"x_min":110,"x_max":483,"o":"m 110 1042 l 483 1042 l 483 1001 l 156 1001 l 156 435 l 429 435 l 429 394 l 156 394 l 156 40 l 483 40 l 483 0 l 110 0 l 110 1042 m 421 -278 q 347 -255 375 -278 q 319 -197 319 -232 q 342 -136 319 -167 l 439 0 l 483 0 l 376 -151 q 360 -194 360 -175 q 377 -228 360 -215 q 424 -242 394 -242 l 483 -242 l 483 -278 l 421 -278 z "},"Ẽ":{"ha":519,"x_min":110,"x_max":488,"o":"m 110 1042 l 483 1042 l 483 1001 l 156 1001 l 156 435 l 429 435 l 429 394 l 156 394 l 156 40 l 483 40 l 483 0 l 110 0 l 110 1042 m 133 1146 q 163 1231 133 1200 q 236 1261 192 1261 q 287 1251 267 1261 q 332 1219 307 1240 q 363 1197 350 1204 q 393 1189 376 1189 q 443 1256 443 1189 l 488 1256 q 463 1176 488 1201 q 392 1150 438 1150 q 347 1160 365 1150 q 304 1190 329 1169 q 272 1215 285 1207 q 240 1222 258 1222 q 194 1201 211 1222 q 178 1146 178 1179 l 133 1146 z "},"F":{"ha":517,"x_min":110,"x_max":481,"o":"m 110 1042 l 481 1042 l 481 1001 l 156 1001 l 156 438 l 426 438 l 426 397 l 156 397 l 156 0 l 110 0 l 110 1042 z "},"G":{"ha":967,"x_min":65,"x_max":889,"o":"m 607 1029 q 356 959 469 1029 q 177 772 243 889 q 111 519 111 654 q 178 267 111 383 q 355 81 244 150 q 593 13 465 13 q 727 26 668 13 q 840 71 786 40 l 840 397 l 496 397 l 496 438 l 886 438 l 886 100 l 889 101 l 889 50 q 752 -9 822 10 q 599 -28 682 -28 q 331 44 453 -28 q 137 241 208 115 q 65 524 65 367 q 140 800 65 675 q 338 997 214 925 q 603 1069 463 1069 q 757 1052 700 1069 q 889 992 814 1035 l 889 940 q 758 1009 818 989 q 607 1029 697 1029 z "},"Ğ":{"ha":967,"x_min":65,"x_max":889,"o":"m 607 1029 q 356 959 469 1029 q 177 772 243 889 q 111 519 111 654 q 178 267 111 383 q 355 81 244 150 q 593 13 465 13 q 727 26 668 13 q 840 71 786 40 l 840 397 l 496 397 l 496 438 l 886 438 l 886 100 l 889 101 l 889 50 q 752 -9 822 10 q 599 -28 682 -28 q 331 44 453 -28 q 137 241 208 115 q 65 524 65 367 q 140 800 65 675 q 338 997 214 925 q 603 1069 463 1069 q 757 1052 700 1069 q 889 992 814 1035 l 889 940 q 758 1009 818 989 q 607 1029 697 1029 m 585 1150 q 458 1196 504 1150 q 411 1311 411 1242 l 456 1311 q 489 1223 456 1257 q 585 1189 522 1189 q 681 1223 647 1189 q 714 1311 714 1257 l 758 1311 q 712 1196 758 1242 q 585 1150 665 1150 z "},"Ǧ":{"ha":967,"x_min":65,"x_max":889,"o":"m 607 1029 q 356 959 469 1029 q 177 772 243 889 q 111 519 111 654 q 178 267 111 383 q 355 81 244 150 q 593 13 465 13 q 727 26 668 13 q 840 71 786 40 l 840 397 l 496 397 l 496 438 l 886 438 l 886 100 l 889 101 l 889 50 q 752 -9 822 10 q 599 -28 682 -28 q 331 44 453 -28 q 137 241 208 115 q 65 524 65 367 q 140 800 65 675 q 338 997 214 925 q 603 1069 463 1069 q 757 1052 700 1069 q 889 992 814 1035 l 889 940 q 758 1009 818 989 q 607 1029 697 1029 m 381 1311 l 439 1311 l 586 1185 l 735 1311 l 792 1311 l 608 1151 l 567 1151 l 381 1311 z "},"Ĝ":{"ha":967,"x_min":65,"x_max":889,"o":"m 607 1029 q 356 959 469 1029 q 177 772 243 889 q 111 519 111 654 q 178 267 111 383 q 355 81 244 150 q 593 13 465 13 q 727 26 668 13 q 840 71 786 40 l 840 397 l 496 397 l 496 438 l 886 438 l 886 100 l 889 101 l 889 50 q 752 -9 822 10 q 599 -28 682 -28 q 331 44 453 -28 q 137 241 208 115 q 65 524 65 367 q 140 800 65 675 q 338 997 214 925 q 603 1069 463 1069 q 757 1052 700 1069 q 889 992 814 1035 l 889 940 q 758 1009 818 989 q 607 1029 697 1029 m 733 1151 l 588 1276 l 442 1151 l 381 1151 l 567 1311 l 608 1311 l 792 1151 l 733 1151 z "},"Ģ":{"ha":967,"x_min":65,"x_max":889,"o":"m 607 1029 q 356 959 469 1029 q 177 772 243 889 q 111 519 111 654 q 178 267 111 383 q 355 81 244 150 q 593 13 465 13 q 727 26 668 13 q 840 71 786 40 l 840 397 l 496 397 l 496 438 l 886 438 l 886 100 l 889 101 l 889 50 q 752 -9 822 10 q 599 -28 682 -28 q 331 44 453 -28 q 137 241 208 115 q 65 524 65 367 q 140 800 65 675 q 338 997 214 925 q 603 1069 463 1069 q 757 1052 700 1069 q 889 992 814 1035 l 889 940 q 758 1009 818 989 q 607 1029 697 1029 m 690 -153 l 690 -153 q 686 -175 690 -162 l 643 -274 l 633 -274 l 633 -197 q 605 -181 617 -194 q 593 -150 593 -168 q 608 -117 593 -131 q 642 -103 622 -103 q 676 -117 661 -103 q 690 -150 690 -131 l 690 -153 z "},"Ġ":{"ha":967,"x_min":65,"x_max":889,"o":"m 607 1029 q 356 959 469 1029 q 177 772 243 889 q 111 519 111 654 q 178 267 111 383 q 355 81 244 150 q 593 13 465 13 q 727 26 668 13 q 840 71 786 40 l 840 397 l 496 397 l 496 438 l 886 438 l 886 100 l 889 101 l 889 50 q 752 -9 822 10 q 599 -28 682 -28 q 331 44 453 -28 q 137 241 208 115 q 65 524 65 367 q 140 800 65 675 q 338 997 214 925 q 603 1069 463 1069 q 757 1052 700 1069 q 889 992 814 1035 l 889 940 q 758 1009 818 989 q 607 1029 697 1029 m 586 1182 q 552 1196 567 1182 q 538 1231 538 1210 q 552 1264 538 1250 q 586 1278 567 1278 q 620 1264 606 1278 q 635 1231 635 1250 q 620 1196 635 1210 q 586 1182 606 1182 z "},"H":{"ha":1025,"x_min":110,"x_max":915,"o":"m 110 1042 l 156 1042 l 156 438 l 869 438 l 869 1042 l 915 1042 l 915 0 l 869 0 l 869 397 l 156 397 l 156 0 l 110 0 l 110 1042 z "},"Ħ":{"ha":1017,"x_min":29,"x_max":989,"o":"m 106 735 l 29 735 l 29 775 l 106 775 l 106 1042 l 151 1042 l 151 775 l 865 775 l 865 1042 l 911 1042 l 911 775 l 989 775 l 989 735 l 911 735 l 911 0 l 865 0 l 865 397 l 151 397 l 151 0 l 106 0 l 106 735 m 865 438 l 865 735 l 151 735 l 151 438 l 865 438 z "},"Ĥ":{"ha":1025,"x_min":110,"x_max":915,"o":"m 110 1042 l 156 1042 l 156 438 l 869 438 l 869 1042 l 915 1042 l 915 0 l 869 0 l 869 397 l 156 397 l 156 0 l 110 0 l 110 1042 m 660 1151 l 514 1276 l 368 1151 l 307 1151 l 493 1311 l 535 1311 l 718 1151 l 660 1151 z "},"I":{"ha":279,"x_min":117,"x_max":163,"o":"m 117 1042 l 163 1042 l 163 0 l 117 0 l 117 1042 z "},"Í":{"ha":279,"x_min":96,"x_max":347,"o":"m 117 1042 l 163 1042 l 163 0 l 117 0 l 117 1042 m 290 1311 l 347 1311 l 154 1151 l 96 1151 l 290 1311 z "},"Ĭ":{"ha":279,"x_min":-32,"x_max":315,"o":"m 117 1042 l 163 1042 l 163 0 l 117 0 l 117 1042 m 142 1150 q 15 1196 61 1150 q -32 1311 -32 1242 l 13 1311 q 46 1223 13 1257 q 142 1189 79 1189 q 238 1223 204 1189 q 271 1311 271 1257 l 315 1311 q 269 1196 315 1242 q 142 1150 222 1150 z "},"Î":{"ha":279,"x_min":-62,"x_max":349,"o":"m 117 1042 l 163 1042 l 163 0 l 117 0 l 117 1042 m 290 1151 l 144 1276 l -1 1151 l -62 1151 l 124 1311 l 165 1311 l 349 1151 l 290 1151 z "},"Ȉ":{"ha":279,"x_min":-126,"x_max":264,"o":"m 117 1042 l 163 1042 l 163 0 l 117 0 l 117 1042 m -126 1311 l -69 1311 l 125 1151 l 67 1151 l -126 1311 m 13 1311 l 69 1311 l 264 1151 l 206 1151 l 13 1311 z "},"Ï":{"ha":279,"x_min":21,"x_max":261,"o":"m 117 1042 l 163 1042 l 163 0 l 117 0 l 117 1042 m 63 1188 q 33 1199 44 1188 q 21 1229 21 1211 q 33 1259 21 1247 q 63 1271 44 1271 q 92 1259 81 1271 q 104 1229 104 1247 q 92 1199 104 1211 q 63 1188 81 1188 m 219 1188 q 190 1199 201 1188 q 178 1229 178 1211 q 190 1259 178 1247 q 219 1271 201 1271 q 249 1259 238 1271 q 261 1229 261 1247 q 249 1199 261 1211 q 219 1188 238 1188 z "},"İ":{"ha":279,"x_min":94,"x_max":192,"o":"m 117 1042 l 163 1042 l 163 0 l 117 0 l 117 1042 m 143 1182 q 109 1196 124 1182 q 94 1231 94 1210 q 109 1264 94 1250 q 143 1278 124 1278 q 177 1264 163 1278 q 192 1231 192 1250 q 177 1196 192 1210 q 143 1182 163 1182 z "},"Ị":{"ha":279,"x_min":92,"x_max":189,"o":"m 117 1042 l 163 1042 l 163 0 l 117 0 l 117 1042 m 140 -179 q 106 -165 121 -179 q 92 -131 92 -151 q 106 -97 92 -111 q 140 -83 121 -83 q 174 -97 160 -83 q 189 -131 189 -111 q 174 -165 189 -151 q 140 -179 160 -179 z "},"Ì":{"ha":279,"x_min":-18,"x_max":172,"o":"m 117 1042 l 163 1042 l 163 0 l 117 0 l 117 1042 m 119 1151 l -18 1311 l 33 1311 l 172 1151 l 119 1151 z "},"Ỉ":{"ha":279,"x_min":11,"x_max":268,"o":"m 117 1042 l 163 1042 l 163 0 l 117 0 l 117 1042 m 117 1185 q 224 1244 224 1185 q 203 1285 224 1269 q 142 1300 182 1300 q 79 1281 103 1300 q 56 1228 56 1261 l 11 1228 q 47 1310 11 1281 q 143 1340 83 1340 q 235 1311 201 1340 q 268 1239 268 1282 q 241 1181 268 1201 q 161 1158 214 1161 l 161 1122 l 117 1122 l 117 1185 z "},"Ȋ":{"ha":279,"x_min":-31,"x_max":317,"o":"m 117 1042 l 163 1042 l 163 0 l 117 0 l 117 1042 m 143 1311 q 270 1265 224 1311 q 317 1150 317 1219 l 272 1150 q 239 1238 272 1204 q 143 1272 206 1272 q 47 1238 81 1272 q 14 1150 14 1204 l -31 1150 q 16 1265 -31 1219 q 143 1311 63 1311 z "},"Ī":{"ha":279,"x_min":-22,"x_max":307,"o":"m 117 1042 l 163 1042 l 163 0 l 117 0 l 117 1042 m -22 1242 l 307 1242 l 307 1203 l -22 1203 l -22 1242 z "},"Į":{"ha":279,"x_min":-1,"x_max":163,"o":"m 117 1042 l 163 1042 l 163 0 l 117 0 l 117 1042 m 100 -278 q 26 -255 54 -278 q -1 -197 -1 -232 q 21 -136 -1 -167 l 118 0 l 163 0 l 56 -151 q 39 -194 39 -175 q 56 -228 39 -215 q 103 -242 74 -242 l 163 -242 l 163 -278 l 100 -278 z "},"Ĩ":{"ha":279,"x_min":-42,"x_max":313,"o":"m 117 1042 l 163 1042 l 163 0 l 117 0 l 117 1042 m -42 1146 q -12 1231 -42 1200 q 61 1261 17 1261 q 112 1251 92 1261 q 157 1219 132 1240 q 188 1197 175 1204 q 218 1189 201 1189 q 268 1256 268 1189 l 313 1256 q 288 1176 313 1201 q 217 1150 263 1150 q 172 1160 190 1150 q 129 1190 154 1169 q 97 1215 110 1207 q 65 1222 83 1222 q 19 1201 36 1222 q 3 1146 3 1179 l -42 1146 z "},"J":{"ha":656,"x_min":29,"x_max":546,"o":"m 244 -21 q 130 -2 182 -21 q 29 58 78 17 l 29 115 q 247 19 117 19 q 433 94 367 19 q 500 314 500 168 l 500 1001 l 243 1001 l 243 1042 l 546 1042 l 546 319 q 465 66 546 153 q 244 -21 385 -21 z "},"Ĵ":{"ha":656,"x_min":29,"x_max":625,"o":"m 244 -21 q 130 -2 182 -21 q 29 58 78 17 l 29 115 q 247 19 117 19 q 433 94 367 19 q 500 314 500 168 l 500 1001 l 243 1001 l 243 1042 l 546 1042 l 546 319 q 465 66 546 153 q 244 -21 385 -21 m 567 1151 l 421 1276 l 275 1151 l 214 1151 l 400 1311 l 442 1311 l 625 1151 l 567 1151 z "},"K":{"ha":801,"x_min":110,"x_max":768,"o":"m 707 0 l 156 579 l 156 0 l 110 0 l 110 1042 l 156 1042 l 156 664 l 590 1042 l 656 1042 l 168 625 l 768 0 l 707 0 z "},"Ķ":{"ha":801,"x_min":110,"x_max":768,"o":"m 707 0 l 156 579 l 156 0 l 110 0 l 110 1042 l 156 1042 l 156 664 l 590 1042 l 656 1042 l 168 625 l 768 0 l 707 0 m 485 -153 l 485 -153 q 481 -175 485 -162 l 438 -274 l 428 -274 l 428 -197 q 399 -181 411 -194 q 388 -150 388 -168 q 402 -117 388 -131 q 436 -103 417 -103 q 470 -117 456 -103 q 485 -150 485 -131 l 485 -153 z "},"L":{"ha":507,"x_min":110,"x_max":478,"o":"m 110 1042 l 156 1042 l 156 40 l 478 40 l 478 0 l 110 0 l 110 1042 z "},"Ǉ":{"ha":1163,"x_min":110,"x_max":1053,"o":"m 110 1042 l 156 1042 l 156 40 l 478 40 l 478 0 l 110 0 l 110 1042 m 751 -21 q 637 -2 689 -21 q 536 58 585 17 l 536 115 q 754 19 624 19 q 940 94 874 19 q 1007 314 1007 168 l 1007 1001 l 750 1001 l 750 1042 l 1053 1042 l 1053 319 q 972 66 1053 153 q 751 -21 892 -21 z "},"Ĺ":{"ha":507,"x_min":110,"x_max":478,"o":"m 110 1042 l 156 1042 l 156 40 l 478 40 l 478 0 l 110 0 l 110 1042 m 403 1311 l 460 1311 l 267 1151 l 208 1151 l 403 1311 z "},"Ľ":{"ha":507,"x_min":110,"x_max":478,"o":"m 110 1042 l 156 1042 l 156 40 l 478 40 l 478 0 l 110 0 l 110 1042 m 356 954 q 313 997 313 954 q 361 1040 313 1040 q 408 997 408 1040 q 404 975 408 988 l 361 876 l 356 876 l 356 954 z "},"Ļ":{"ha":507,"x_min":110,"x_max":478,"o":"m 110 1042 l 156 1042 l 156 40 l 478 40 l 478 0 l 110 0 l 110 1042 m 365 -153 l 365 -153 q 361 -175 365 -162 l 318 -274 l 308 -274 l 308 -197 q 280 -181 292 -194 q 268 -150 268 -168 q 283 -117 268 -131 q 317 -103 297 -103 q 351 -117 336 -103 q 365 -150 365 -131 l 365 -153 z "},"Ŀ":{"ha":501,"x_min":110,"x_max":478,"o":"m 110 1042 l 156 1042 l 156 40 l 478 40 l 478 0 l 110 0 l 110 1042 m 367 485 q 333 499 347 485 q 318 533 318 513 q 333 567 318 553 q 367 581 347 581 q 401 567 386 581 q 415 533 415 553 q 401 499 415 513 q 367 485 386 485 z "},"ǈ":{"ha":826,"x_min":110,"x_max":732,"o":"m 110 1042 l 156 1042 l 156 40 l 478 40 l 478 0 l 110 0 l 110 1042 m 683 768 q 649 782 664 768 q 635 817 635 796 q 649 850 635 836 q 683 864 664 864 q 717 850 703 864 q 732 817 732 836 q 717 782 732 796 q 683 768 703 768 m 463 -236 q 603 -180 546 -236 q 660 -40 660 -124 l 660 625 l 704 625 l 704 -40 q 672 -161 704 -107 q 585 -245 640 -215 q 463 -275 529 -275 l 463 -236 z "},"Ł":{"ha":519,"x_min":0,"x_max":490,"o":"m 490 40 l 490 0 l 122 0 l 122 311 l 24 239 l 0 269 l 122 360 l 122 1042 l 168 1042 l 168 393 l 415 575 l 438 543 l 168 344 l 168 40 l 490 40 z "},"M":{"ha":1288,"x_min":106,"x_max":1178,"o":"m 1178 1042 l 1178 0 l 1132 0 l 1132 975 l 640 -19 l 151 988 l 151 0 l 106 0 l 106 1042 l 171 1042 l 640 75 l 1114 1042 l 1178 1042 z "},"N":{"ha":1026,"x_min":110,"x_max":917,"o":"m 150 938 l 150 0 l 110 0 l 110 1057 l 876 106 l 876 1042 l 917 1042 l 917 -15 l 150 938 z "},"Ǌ":{"ha":1682,"x_min":110,"x_max":1572,"o":"m 150 938 l 150 0 l 110 0 l 110 1057 l 876 106 l 876 1042 l 917 1042 l 917 -15 l 150 938 m 1271 -21 q 1156 -2 1208 -21 q 1056 58 1104 17 l 1056 115 q 1274 19 1143 19 q 1460 94 1393 19 q 1526 314 1526 168 l 1526 1001 l 1269 1001 l 1269 1042 l 1572 1042 l 1572 319 q 1492 66 1572 153 q 1271 -21 1411 -21 z "},"Ń":{"ha":1026,"x_min":110,"x_max":917,"o":"m 150 938 l 150 0 l 110 0 l 110 1057 l 876 106 l 876 1042 l 917 1042 l 917 -15 l 150 938 m 661 1311 l 718 1311 l 525 1151 l 467 1151 l 661 1311 z "},"Ň":{"ha":1026,"x_min":110,"x_max":917,"o":"m 150 938 l 150 0 l 110 0 l 110 1057 l 876 106 l 876 1042 l 917 1042 l 917 -15 l 150 938 m 308 1311 l 367 1311 l 514 1185 l 663 1311 l 719 1311 l 536 1151 l 494 1151 l 308 1311 z "},"Ņ":{"ha":1026,"x_min":110,"x_max":917,"o":"m 150 938 l 150 0 l 110 0 l 110 1057 l 876 106 l 876 1042 l 917 1042 l 917 -15 l 150 938 m 568 -153 l 568 -153 q 564 -175 568 -162 l 521 -274 l 511 -274 l 511 -197 q 483 -181 494 -194 q 471 -150 471 -168 q 485 -117 471 -131 q 519 -103 500 -103 q 553 -117 539 -103 q 568 -150 568 -131 l 568 -153 z "},"Ŋ":{"ha":1026,"x_min":110,"x_max":917,"o":"m 917 1042 l 917 69 q 838 -185 917 -99 q 615 -271 758 -271 q 505 -252 556 -271 q 406 -192 454 -233 l 406 -135 q 615 -231 493 -231 q 801 -164 733 -231 q 875 35 869 -97 l 150 938 l 150 0 l 110 0 l 110 1057 l 876 106 l 876 1042 l 917 1042 z "},"ǋ":{"ha":1346,"x_min":110,"x_max":1251,"o":"m 150 938 l 150 0 l 110 0 l 110 1057 l 876 106 l 876 1042 l 917 1042 l 917 -15 l 150 938 m 1203 768 q 1169 782 1183 768 q 1154 817 1154 796 q 1169 850 1154 836 q 1203 864 1183 864 q 1237 850 1222 864 q 1251 817 1251 836 q 1237 782 1251 796 q 1203 768 1222 768 m 982 -236 q 1122 -180 1065 -236 q 1179 -40 1179 -124 l 1179 625 l 1224 625 l 1224 -40 q 1192 -161 1224 -107 q 1104 -245 1160 -215 q 982 -275 1049 -275 l 982 -236 z "},"Ñ":{"ha":1026,"x_min":110,"x_max":917,"o":"m 150 938 l 150 0 l 110 0 l 110 1057 l 876 106 l 876 1042 l 917 1042 l 917 -15 l 150 938 m 636 1150 q 565 1168 592 1150 q 511 1219 539 1186 q 472 1259 490 1246 q 428 1272 454 1272 q 359 1242 385 1272 q 333 1164 333 1211 l 289 1164 q 327 1269 289 1228 q 426 1311 365 1311 q 492 1293 467 1311 q 544 1243 518 1275 q 588 1202 569 1215 q 632 1189 606 1189 q 689 1216 668 1189 q 710 1297 710 1243 l 754 1297 q 720 1188 754 1226 q 636 1150 686 1150 z "},"O":{"ha":1214,"x_min":65,"x_max":1149,"o":"m 607 -28 q 336 49 461 -28 q 138 252 211 125 q 65 525 65 379 q 139 795 65 669 q 338 995 213 921 q 608 1069 463 1069 q 879 996 756 1069 q 1076 797 1003 922 q 1149 525 1149 671 q 1076 248 1149 375 q 878 47 1003 121 q 607 -28 754 -28 m 607 13 q 854 81 740 13 q 1035 267 968 150 q 1103 522 1103 385 q 1036 775 1103 658 q 856 960 969 892 q 608 1029 742 1029 q 360 960 474 1029 q 178 775 246 892 q 111 522 111 658 q 178 267 111 385 q 360 81 246 150 q 607 13 474 13 z "},"Ó":{"ha":1214,"x_min":65,"x_max":1149,"o":"m 607 -28 q 336 49 461 -28 q 138 252 211 125 q 65 525 65 379 q 139 795 65 669 q 338 995 213 921 q 608 1069 463 1069 q 879 996 756 1069 q 1076 797 1003 922 q 1149 525 1149 671 q 1076 248 1149 375 q 878 47 1003 121 q 607 -28 754 -28 m 607 13 q 854 81 740 13 q 1035 267 968 150 q 1103 522 1103 385 q 1036 775 1103 658 q 856 960 969 892 q 608 1029 742 1029 q 360 960 474 1029 q 178 775 246 892 q 111 522 111 658 q 178 267 111 385 q 360 81 246 150 q 607 13 474 13 m 754 1311 l 811 1311 l 618 1151 l 560 1151 l 754 1311 z "},"Ŏ":{"ha":1214,"x_min":65,"x_max":1149,"o":"m 607 -28 q 336 49 461 -28 q 138 252 211 125 q 65 525 65 379 q 139 795 65 669 q 338 995 213 921 q 608 1069 463 1069 q 879 996 756 1069 q 1076 797 1003 922 q 1149 525 1149 671 q 1076 248 1149 375 q 878 47 1003 121 q 607 -28 754 -28 m 607 13 q 854 81 740 13 q 1035 267 968 150 q 1103 522 1103 385 q 1036 775 1103 658 q 856 960 969 892 q 608 1029 742 1029 q 360 960 474 1029 q 178 775 246 892 q 111 522 111 658 q 178 267 111 385 q 360 81 246 150 q 607 13 474 13 m 606 1150 q 478 1196 525 1150 q 432 1311 432 1242 l 476 1311 q 510 1223 476 1257 q 606 1189 543 1189 q 701 1223 668 1189 q 735 1311 735 1257 l 779 1311 q 733 1196 779 1242 q 606 1150 686 1150 z "},"Ô":{"ha":1214,"x_min":65,"x_max":1149,"o":"m 607 -28 q 336 49 461 -28 q 138 252 211 125 q 65 525 65 379 q 139 795 65 669 q 338 995 213 921 q 608 1069 463 1069 q 879 996 756 1069 q 1076 797 1003 922 q 1149 525 1149 671 q 1076 248 1149 375 q 878 47 1003 121 q 607 -28 754 -28 m 607 13 q 854 81 740 13 q 1035 267 968 150 q 1103 522 1103 385 q 1036 775 1103 658 q 856 960 969 892 q 608 1029 742 1029 q 360 960 474 1029 q 178 775 246 892 q 111 522 111 658 q 178 267 111 385 q 360 81 246 150 q 607 13 474 13 m 754 1151 l 608 1276 l 463 1151 l 401 1151 l 588 1311 l 629 1311 l 813 1151 l 754 1151 z "},"Ố":{"ha":1214,"x_min":65,"x_max":1149,"o":"m 607 -28 q 336 49 461 -28 q 138 252 211 125 q 65 525 65 379 q 139 795 65 669 q 338 995 213 921 q 608 1069 463 1069 q 879 996 756 1069 q 1076 797 1003 922 q 1149 525 1149 671 q 1076 248 1149 375 q 878 47 1003 121 q 607 -28 754 -28 m 607 13 q 854 81 740 13 q 1035 267 968 150 q 1103 522 1103 385 q 1036 775 1103 658 q 856 960 969 892 q 608 1029 742 1029 q 360 960 474 1029 q 178 775 246 892 q 111 522 111 658 q 178 267 111 385 q 360 81 246 150 q 607 13 474 13 m 761 1217 l 733 1246 l 849 1376 l 900 1376 l 761 1217 m 628 1311 l 783 1151 l 731 1151 l 607 1279 l 483 1151 l 428 1151 l 586 1311 l 628 1311 z "},"Ộ":{"ha":1214,"x_min":65,"x_max":1149,"o":"m 607 -28 q 336 49 461 -28 q 138 252 211 125 q 65 525 65 379 q 139 795 65 669 q 338 995 213 921 q 608 1069 463 1069 q 879 996 756 1069 q 1076 797 1003 922 q 1149 525 1149 671 q 1076 248 1149 375 q 878 47 1003 121 q 607 -28 754 -28 m 607 13 q 854 81 740 13 q 1035 267 968 150 q 1103 522 1103 385 q 1036 775 1103 658 q 856 960 969 892 q 608 1029 742 1029 q 360 960 474 1029 q 178 775 246 892 q 111 522 111 658 q 178 267 111 385 q 360 81 246 150 q 607 13 474 13 m 607 -179 q 573 -165 588 -179 q 558 -131 558 -151 q 573 -97 558 -111 q 607 -83 588 -83 q 641 -97 626 -83 q 656 -131 656 -111 q 641 -165 656 -151 q 607 -179 626 -179 m 754 1151 l 608 1276 l 463 1151 l 401 1151 l 588 1311 l 629 1311 l 813 1151 l 754 1151 z "},"Ồ":{"ha":1214,"x_min":65,"x_max":1149,"o":"m 607 -28 q 336 49 461 -28 q 138 252 211 125 q 65 525 65 379 q 139 795 65 669 q 338 995 213 921 q 608 1069 463 1069 q 879 996 756 1069 q 1076 797 1003 922 q 1149 525 1149 671 q 1076 248 1149 375 q 878 47 1003 121 q 607 -28 754 -28 m 607 13 q 854 81 740 13 q 1035 267 968 150 q 1103 522 1103 385 q 1036 775 1103 658 q 856 960 969 892 q 608 1029 742 1029 q 360 960 474 1029 q 178 775 246 892 q 111 522 111 658 q 178 267 111 385 q 360 81 246 150 q 607 13 474 13 m 456 1217 l 317 1376 l 368 1376 l 483 1246 l 456 1217 m 735 1151 l 611 1279 l 488 1151 l 432 1151 l 590 1311 l 632 1311 l 788 1151 l 735 1151 z "},"Ổ":{"ha":1214,"x_min":65,"x_max":1149,"o":"m 607 -28 q 336 49 461 -28 q 138 252 211 125 q 65 525 65 379 q 139 795 65 669 q 338 995 213 921 q 608 1069 463 1069 q 879 996 756 1069 q 1076 797 1003 922 q 1149 525 1149 671 q 1076 248 1149 375 q 878 47 1003 121 q 607 -28 754 -28 m 607 13 q 854 81 740 13 q 1035 267 968 150 q 1103 522 1103 385 q 1036 775 1103 658 q 856 960 969 892 q 608 1029 742 1029 q 360 960 474 1029 q 178 775 246 892 q 111 522 111 658 q 178 267 111 385 q 360 81 246 150 q 607 13 474 13 m 775 1468 q 857 1439 828 1468 q 886 1367 886 1410 q 793 1286 886 1290 l 793 1250 l 749 1250 l 749 1313 q 842 1372 842 1313 q 824 1413 842 1397 q 774 1428 807 1428 q 722 1408 742 1428 q 701 1356 701 1389 l 657 1356 q 690 1438 657 1408 q 775 1468 722 1468 m 629 1311 l 785 1151 l 731 1151 l 607 1279 l 485 1151 l 429 1151 l 588 1311 l 629 1311 z "},"Ỗ":{"ha":1214,"x_min":65,"x_max":1149,"o":"m 607 -28 q 336 49 461 -28 q 138 252 211 125 q 65 525 65 379 q 139 795 65 669 q 338 995 213 921 q 608 1069 463 1069 q 879 996 756 1069 q 1076 797 1003 922 q 1149 525 1149 671 q 1076 248 1149 375 q 878 47 1003 121 q 607 -28 754 -28 m 607 13 q 854 81 740 13 q 1035 267 968 150 q 1103 522 1103 385 q 1036 775 1103 658 q 856 960 969 892 q 608 1029 742 1029 q 360 960 474 1029 q 178 775 246 892 q 111 522 111 658 q 178 267 111 385 q 360 81 246 150 q 607 13 474 13 m 732 1151 l 608 1279 l 485 1151 l 429 1151 l 588 1311 l 629 1311 l 785 1151 l 732 1151 m 433 1326 q 463 1411 433 1381 q 536 1442 492 1442 q 587 1431 567 1442 q 632 1400 607 1421 q 663 1377 650 1385 q 693 1369 676 1369 q 743 1436 743 1369 l 788 1436 q 763 1356 788 1382 q 692 1331 738 1331 q 647 1340 665 1331 q 604 1371 629 1350 q 572 1395 585 1388 q 540 1403 558 1403 q 494 1381 511 1403 q 478 1326 478 1360 l 433 1326 z "},"Ȍ":{"ha":1214,"x_min":65,"x_max":1149,"o":"m 607 -28 q 336 49 461 -28 q 138 252 211 125 q 65 525 65 379 q 139 795 65 669 q 338 995 213 921 q 608 1069 463 1069 q 879 996 756 1069 q 1076 797 1003 922 q 1149 525 1149 671 q 1076 248 1149 375 q 878 47 1003 121 q 607 -28 754 -28 m 607 13 q 854 81 740 13 q 1035 267 968 150 q 1103 522 1103 385 q 1036 775 1103 658 q 856 960 969 892 q 608 1029 742 1029 q 360 960 474 1029 q 178 775 246 892 q 111 522 111 658 q 178 267 111 385 q 360 81 246 150 q 607 13 474 13 m 338 1311 l 394 1311 l 589 1151 l 531 1151 l 338 1311 m 476 1311 l 533 1311 l 728 1151 l 669 1151 l 476 1311 z "},"Ö":{"ha":1214,"x_min":65,"x_max":1149,"o":"m 607 -28 q 336 49 461 -28 q 138 252 211 125 q 65 525 65 379 q 139 795 65 669 q 338 995 213 921 q 608 1069 463 1069 q 879 996 756 1069 q 1076 797 1003 922 q 1149 525 1149 671 q 1076 248 1149 375 q 878 47 1003 121 q 607 -28 754 -28 m 607 13 q 854 81 740 13 q 1035 267 968 150 q 1103 522 1103 385 q 1036 775 1103 658 q 856 960 969 892 q 608 1029 742 1029 q 360 960 474 1029 q 178 775 246 892 q 111 522 111 658 q 178 267 111 385 q 360 81 246 150 q 607 13 474 13 m 526 1188 q 497 1199 508 1188 q 485 1229 485 1211 q 497 1259 485 1247 q 526 1271 508 1271 q 556 1259 544 1271 q 568 1229 568 1247 q 556 1199 568 1211 q 526 1188 544 1188 m 683 1188 q 653 1199 665 1188 q 642 1229 642 1211 q 653 1259 642 1247 q 683 1271 665 1271 q 713 1259 701 1271 q 725 1229 725 1247 q 713 1199 725 1211 q 683 1188 701 1188 z "},"Ȫ":{"ha":1214,"x_min":65,"x_max":1149,"o":"m 607 -28 q 336 49 461 -28 q 138 252 211 125 q 65 525 65 379 q 139 795 65 669 q 338 995 213 921 q 608 1069 463 1069 q 879 996 756 1069 q 1076 797 1003 922 q 1149 525 1149 671 q 1076 248 1149 375 q 878 47 1003 121 q 607 -28 754 -28 m 607 13 q 854 81 740 13 q 1035 267 968 150 q 1103 522 1103 385 q 1036 775 1103 658 q 856 960 969 892 q 608 1029 742 1029 q 360 960 474 1029 q 178 775 246 892 q 111 522 111 658 q 178 267 111 385 q 360 81 246 150 q 607 13 474 13 m 526 1188 q 497 1199 508 1188 q 485 1229 485 1211 q 497 1259 485 1247 q 526 1271 508 1271 q 556 1259 544 1271 q 568 1229 568 1247 q 556 1199 568 1211 q 526 1188 544 1188 m 683 1188 q 653 1199 665 1188 q 642 1229 642 1211 q 653 1259 642 1247 q 683 1271 665 1271 q 713 1259 701 1271 q 725 1229 725 1247 q 713 1199 725 1211 q 683 1188 701 1188 m 442 1385 l 771 1385 l 771 1346 l 442 1346 l 442 1385 z "},"Ȱ":{"ha":1214,"x_min":65,"x_max":1149,"o":"m 607 -28 q 336 49 461 -28 q 138 252 211 125 q 65 525 65 379 q 139 795 65 669 q 338 995 213 921 q 608 1069 463 1069 q 879 996 756 1069 q 1076 797 1003 922 q 1149 525 1149 671 q 1076 248 1149 375 q 878 47 1003 121 q 607 -28 754 -28 m 607 13 q 854 81 740 13 q 1035 267 968 150 q 1103 522 1103 385 q 1036 775 1103 658 q 856 960 969 892 q 608 1029 742 1029 q 360 960 474 1029 q 178 775 246 892 q 111 522 111 658 q 178 267 111 385 q 360 81 246 150 q 607 13 474 13 m 607 1182 q 573 1196 588 1182 q 558 1231 558 1210 q 573 1264 558 1250 q 607 1278 588 1278 q 641 1264 626 1278 q 656 1231 656 1250 q 641 1196 656 1210 q 607 1182 626 1182 m 442 1371 l 771 1371 l 771 1332 l 442 1332 l 442 1371 z "},"Ọ":{"ha":1214,"x_min":65,"x_max":1149,"o":"m 607 -28 q 336 49 461 -28 q 138 252 211 125 q 65 525 65 379 q 139 795 65 669 q 338 995 213 921 q 608 1069 463 1069 q 879 996 756 1069 q 1076 797 1003 922 q 1149 525 1149 671 q 1076 248 1149 375 q 878 47 1003 121 q 607 -28 754 -28 m 607 13 q 854 81 740 13 q 1035 267 968 150 q 1103 522 1103 385 q 1036 775 1103 658 q 856 960 969 892 q 608 1029 742 1029 q 360 960 474 1029 q 178 775 246 892 q 111 522 111 658 q 178 267 111 385 q 360 81 246 150 q 607 13 474 13 m 607 -179 q 573 -165 588 -179 q 558 -131 558 -151 q 573 -97 558 -111 q 607 -83 588 -83 q 641 -97 626 -83 q 656 -131 656 -111 q 641 -165 656 -151 q 607 -179 626 -179 z "},"Ò":{"ha":1214,"x_min":65,"x_max":1149,"o":"m 607 -28 q 336 49 461 -28 q 138 252 211 125 q 65 525 65 379 q 139 795 65 669 q 338 995 213 921 q 608 1069 463 1069 q 879 996 756 1069 q 1076 797 1003 922 q 1149 525 1149 671 q 1076 248 1149 375 q 878 47 1003 121 q 607 -28 754 -28 m 607 13 q 854 81 740 13 q 1035 267 968 150 q 1103 522 1103 385 q 1036 775 1103 658 q 856 960 969 892 q 608 1029 742 1029 q 360 960 474 1029 q 178 775 246 892 q 111 522 111 658 q 178 267 111 385 q 360 81 246 150 q 607 13 474 13 m 481 1311 l 538 1311 l 732 1151 l 674 1151 l 481 1311 z "},"Ỏ":{"ha":1214,"x_min":65,"x_max":1149,"o":"m 607 -28 q 336 49 461 -28 q 138 252 211 125 q 65 525 65 379 q 139 795 65 669 q 338 995 213 921 q 608 1069 463 1069 q 879 996 756 1069 q 1076 797 1003 922 q 1149 525 1149 671 q 1076 248 1149 375 q 878 47 1003 121 q 607 -28 754 -28 m 607 13 q 854 81 740 13 q 1035 267 968 150 q 1103 522 1103 385 q 1036 775 1103 658 q 856 960 969 892 q 608 1029 742 1029 q 360 960 474 1029 q 178 775 246 892 q 111 522 111 658 q 178 267 111 385 q 360 81 246 150 q 607 13 474 13 m 581 1185 q 688 1244 688 1185 q 667 1285 688 1269 q 606 1300 646 1300 q 543 1281 567 1300 q 519 1228 519 1261 l 475 1228 q 511 1310 475 1281 q 607 1340 547 1340 q 699 1311 665 1340 q 732 1239 732 1282 q 705 1181 732 1201 q 625 1158 678 1161 l 625 1122 l 581 1122 l 581 1185 z "},"Ơ":{"ha":1214,"x_min":65,"x_max":1149,"o":"m 869 1001 q 1072 802 996 929 q 1149 525 1149 675 q 1076 248 1149 375 q 878 47 1003 121 q 607 -28 754 -28 q 336 49 461 -28 q 138 252 211 125 q 65 525 65 379 q 139 795 65 669 q 338 995 213 921 q 608 1069 463 1069 q 811 1029 715 1069 q 900 1076 869 1029 q 931 1194 931 1122 l 975 1194 q 947 1073 975 1125 q 869 1001 919 1021 m 607 13 q 854 81 740 13 q 1035 267 968 150 q 1103 522 1103 385 q 1036 775 1103 658 q 856 960 969 892 q 608 1029 742 1029 q 360 960 474 1029 q 178 775 246 892 q 111 522 111 658 q 178 267 111 385 q 360 81 246 150 q 607 13 474 13 z "},"Ớ":{"ha":1214,"x_min":65,"x_max":1149,"o":"m 869 1001 q 1072 802 996 929 q 1149 525 1149 675 q 1076 248 1149 375 q 878 47 1003 121 q 607 -28 754 -28 q 336 49 461 -28 q 138 252 211 125 q 65 525 65 379 q 139 795 65 669 q 338 995 213 921 q 608 1069 463 1069 q 811 1029 715 1069 q 900 1076 869 1029 q 931 1194 931 1122 l 975 1194 q 947 1073 975 1125 q 869 1001 919 1021 m 607 13 q 854 81 740 13 q 1035 267 968 150 q 1103 522 1103 385 q 1036 775 1103 658 q 856 960 969 892 q 608 1029 742 1029 q 360 960 474 1029 q 178 775 246 892 q 111 522 111 658 q 178 267 111 385 q 360 81 246 150 q 607 13 474 13 m 754 1311 l 811 1311 l 618 1151 l 560 1151 l 754 1311 z "},"Ợ":{"ha":1214,"x_min":65,"x_max":1149,"o":"m 869 1001 q 1072 802 996 929 q 1149 525 1149 675 q 1076 248 1149 375 q 878 47 1003 121 q 607 -28 754 -28 q 336 49 461 -28 q 138 252 211 125 q 65 525 65 379 q 139 795 65 669 q 338 995 213 921 q 608 1069 463 1069 q 811 1029 715 1069 q 900 1076 869 1029 q 931 1194 931 1122 l 975 1194 q 947 1073 975 1125 q 869 1001 919 1021 m 607 13 q 854 81 740 13 q 1035 267 968 150 q 1103 522 1103 385 q 1036 775 1103 658 q 856 960 969 892 q 608 1029 742 1029 q 360 960 474 1029 q 178 775 246 892 q 111 522 111 658 q 178 267 111 385 q 360 81 246 150 q 607 13 474 13 m 607 -179 q 573 -165 588 -179 q 558 -131 558 -151 q 573 -97 558 -111 q 607 -83 588 -83 q 641 -97 626 -83 q 656 -131 656 -111 q 641 -165 656 -151 q 607 -179 626 -179 z "},"Ờ":{"ha":1214,"x_min":65,"x_max":1149,"o":"m 869 1001 q 1072 802 996 929 q 1149 525 1149 675 q 1076 248 1149 375 q 878 47 1003 121 q 607 -28 754 -28 q 336 49 461 -28 q 138 252 211 125 q 65 525 65 379 q 139 795 65 669 q 338 995 213 921 q 608 1069 463 1069 q 811 1029 715 1069 q 900 1076 869 1029 q 931 1194 931 1122 l 975 1194 q 947 1073 975 1125 q 869 1001 919 1021 m 607 13 q 854 81 740 13 q 1035 267 968 150 q 1103 522 1103 385 q 1036 775 1103 658 q 856 960 969 892 q 608 1029 742 1029 q 360 960 474 1029 q 178 775 246 892 q 111 522 111 658 q 178 267 111 385 q 360 81 246 150 q 607 13 474 13 m 481 1311 l 538 1311 l 732 1151 l 674 1151 l 481 1311 z "},"Ở":{"ha":1214,"x_min":65,"x_max":1149,"o":"m 869 1001 q 1072 802 996 929 q 1149 525 1149 675 q 1076 248 1149 375 q 878 47 1003 121 q 607 -28 754 -28 q 336 49 461 -28 q 138 252 211 125 q 65 525 65 379 q 139 795 65 669 q 338 995 213 921 q 608 1069 463 1069 q 811 1029 715 1069 q 900 1076 869 1029 q 931 1194 931 1122 l 975 1194 q 947 1073 975 1125 q 869 1001 919 1021 m 607 13 q 854 81 740 13 q 1035 267 968 150 q 1103 522 1103 385 q 1036 775 1103 658 q 856 960 969 892 q 608 1029 742 1029 q 360 960 474 1029 q 178 775 246 892 q 111 522 111 658 q 178 267 111 385 q 360 81 246 150 q 607 13 474 13 m 581 1185 q 688 1244 688 1185 q 667 1285 688 1269 q 606 1300 646 1300 q 543 1281 567 1300 q 519 1228 519 1261 l 475 1228 q 511 1310 475 1281 q 607 1340 547 1340 q 699 1311 665 1340 q 732 1239 732 1282 q 705 1181 732 1201 q 625 1158 678 1161 l 625 1122 l 581 1122 l 581 1185 z "},"Ỡ":{"ha":1214,"x_min":65,"x_max":1149,"o":"m 869 1001 q 1072 802 996 929 q 1149 525 1149 675 q 1076 248 1149 375 q 878 47 1003 121 q 607 -28 754 -28 q 336 49 461 -28 q 138 252 211 125 q 65 525 65 379 q 139 795 65 669 q 338 995 213 921 q 608 1069 463 1069 q 811 1029 715 1069 q 900 1076 869 1029 q 931 1194 931 1122 l 975 1194 q 947 1073 975 1125 q 869 1001 919 1021 m 607 13 q 854 81 740 13 q 1035 267 968 150 q 1103 522 1103 385 q 1036 775 1103 658 q 856 960 969 892 q 608 1029 742 1029 q 360 960 474 1029 q 178 775 246 892 q 111 522 111 658 q 178 267 111 385 q 360 81 246 150 q 607 13 474 13 m 729 1150 q 658 1168 685 1150 q 604 1219 632 1186 q 565 1259 583 1246 q 521 1272 547 1272 q 452 1242 478 1272 q 426 1164 426 1211 l 382 1164 q 420 1269 382 1228 q 519 1311 458 1311 q 585 1293 560 1311 q 638 1243 611 1275 q 681 1202 663 1215 q 725 1189 699 1189 q 782 1216 761 1189 q 803 1297 803 1243 l 847 1297 q 813 1188 847 1226 q 729 1150 779 1150 z "},"Ő":{"ha":1214,"x_min":65,"x_max":1149,"o":"m 607 -28 q 336 49 461 -28 q 138 252 211 125 q 65 525 65 379 q 139 795 65 669 q 338 995 213 921 q 608 1069 463 1069 q 879 996 756 1069 q 1076 797 1003 922 q 1149 525 1149 671 q 1076 248 1149 375 q 878 47 1003 121 q 607 -28 754 -28 m 607 13 q 854 81 740 13 q 1035 267 968 150 q 1103 522 1103 385 q 1036 775 1103 658 q 856 960 969 892 q 608 1029 742 1029 q 360 960 474 1029 q 178 775 246 892 q 111 522 111 658 q 178 267 111 385 q 360 81 246 150 q 607 13 474 13 m 631 1311 l 688 1311 l 494 1151 l 436 1151 l 631 1311 m 800 1311 l 857 1311 l 664 1151 l 606 1151 l 800 1311 z "},"Ȏ":{"ha":1214,"x_min":65,"x_max":1149,"o":"m 607 -28 q 336 49 461 -28 q 138 252 211 125 q 65 525 65 379 q 139 795 65 669 q 338 995 213 921 q 608 1069 463 1069 q 879 996 756 1069 q 1076 797 1003 922 q 1149 525 1149 671 q 1076 248 1149 375 q 878 47 1003 121 q 607 -28 754 -28 m 607 13 q 854 81 740 13 q 1035 267 968 150 q 1103 522 1103 385 q 1036 775 1103 658 q 856 960 969 892 q 608 1029 742 1029 q 360 960 474 1029 q 178 775 246 892 q 111 522 111 658 q 178 267 111 385 q 360 81 246 150 q 607 13 474 13 m 607 1311 q 734 1265 688 1311 q 781 1150 781 1219 l 736 1150 q 703 1238 736 1204 q 607 1272 669 1272 q 511 1238 544 1272 q 478 1150 478 1204 l 433 1150 q 480 1265 433 1219 q 607 1311 526 1311 z "},"Ō":{"ha":1214,"x_min":65,"x_max":1149,"o":"m 607 -28 q 336 49 461 -28 q 138 252 211 125 q 65 525 65 379 q 139 795 65 669 q 338 995 213 921 q 608 1069 463 1069 q 879 996 756 1069 q 1076 797 1003 922 q 1149 525 1149 671 q 1076 248 1149 375 q 878 47 1003 121 q 607 -28 754 -28 m 607 13 q 854 81 740 13 q 1035 267 968 150 q 1103 522 1103 385 q 1036 775 1103 658 q 856 960 969 892 q 608 1029 742 1029 q 360 960 474 1029 q 178 775 246 892 q 111 522 111 658 q 178 267 111 385 q 360 81 246 150 q 607 13 474 13 m 442 1242 l 771 1242 l 771 1203 l 442 1203 l 442 1242 z "},"Ǫ":{"ha":1214,"x_min":65,"x_max":1149,"o":"m 704 -137 q 688 -181 688 -161 q 705 -215 688 -201 q 751 -228 722 -228 l 811 -228 l 811 -264 l 749 -264 q 675 -241 703 -264 q 647 -183 647 -218 q 669 -122 647 -153 l 751 -8 q 607 -28 681 -28 q 336 49 461 -28 q 138 252 211 125 q 65 525 65 379 q 139 795 65 669 q 338 995 213 921 q 608 1069 463 1069 q 879 996 756 1069 q 1076 797 1003 922 q 1149 525 1149 671 q 1106 309 1149 411 q 985 130 1063 207 q 810 13 908 53 l 704 -137 m 111 522 q 178 267 111 385 q 360 81 246 150 q 607 13 474 13 q 854 81 740 13 q 1035 267 968 150 q 1103 522 1103 385 q 1036 775 1103 658 q 856 960 969 892 q 608 1029 742 1029 q 360 960 474 1029 q 178 775 246 892 q 111 522 111 658 z "},"Ø":{"ha":1229,"x_min":68,"x_max":1151,"o":"m 958 942 q 1100 756 1049 865 q 1151 525 1151 647 q 1078 248 1151 375 q 881 47 1006 121 q 610 -28 757 -28 q 307 69 444 -28 l 254 0 l 203 0 l 274 94 q 123 286 178 172 q 68 525 68 400 q 142 795 68 669 q 340 995 215 921 q 611 1069 465 1069 q 777 1043 697 1069 q 924 968 857 1017 l 976 1039 l 1031 1039 l 958 942 m 114 522 q 163 302 114 406 q 297 128 213 199 l 899 935 q 611 1029 769 1029 q 363 960 476 1029 q 181 775 249 892 q 114 522 114 658 m 610 13 q 857 81 743 13 q 1038 267 971 150 q 1106 522 1106 385 q 1059 735 1106 635 q 932 907 1013 836 l 331 103 q 462 36 390 60 q 610 13 533 13 z "},"Ǿ":{"ha":1229,"x_min":68,"x_max":1151,"o":"m 958 942 q 1100 756 1049 865 q 1151 525 1151 647 q 1078 248 1151 375 q 881 47 1006 121 q 610 -28 757 -28 q 307 69 444 -28 l 254 0 l 203 0 l 274 94 q 123 286 178 172 q 68 525 68 400 q 142 795 68 669 q 340 995 215 921 q 611 1069 465 1069 q 777 1043 697 1069 q 924 968 857 1017 l 976 1039 l 1031 1039 l 958 942 m 114 522 q 163 302 114 406 q 297 128 213 199 l 899 935 q 611 1029 769 1029 q 363 960 476 1029 q 181 775 249 892 q 114 522 114 658 m 610 13 q 857 81 743 13 q 1038 267 971 150 q 1106 522 1106 385 q 1059 735 1106 635 q 932 907 1013 836 l 331 103 q 462 36 390 60 q 610 13 533 13 m 757 1311 l 814 1311 l 621 1151 l 563 1151 l 757 1311 z "},"Õ":{"ha":1214,"x_min":65,"x_max":1149,"o":"m 607 -28 q 336 49 461 -28 q 138 252 211 125 q 65 525 65 379 q 139 795 65 669 q 338 995 213 921 q 608 1069 463 1069 q 879 996 756 1069 q 1076 797 1003 922 q 1149 525 1149 671 q 1076 248 1149 375 q 878 47 1003 121 q 607 -28 754 -28 m 607 13 q 854 81 740 13 q 1035 267 968 150 q 1103 522 1103 385 q 1036 775 1103 658 q 856 960 969 892 q 608 1029 742 1029 q 360 960 474 1029 q 178 775 246 892 q 111 522 111 658 q 178 267 111 385 q 360 81 246 150 q 607 13 474 13 m 729 1150 q 658 1168 685 1150 q 604 1219 632 1186 q 565 1259 583 1246 q 521 1272 547 1272 q 452 1242 478 1272 q 426 1164 426 1211 l 382 1164 q 420 1269 382 1228 q 519 1311 458 1311 q 585 1293 560 1311 q 638 1243 611 1275 q 681 1202 663 1215 q 725 1189 699 1189 q 782 1216 761 1189 q 803 1297 803 1243 l 847 1297 q 813 1188 847 1226 q 729 1150 779 1150 z "},"Ȭ":{"ha":1214,"x_min":65,"x_max":1149,"o":"m 607 -28 q 336 49 461 -28 q 138 252 211 125 q 65 525 65 379 q 139 795 65 669 q 338 995 213 921 q 608 1069 463 1069 q 879 996 756 1069 q 1076 797 1003 922 q 1149 525 1149 671 q 1076 248 1149 375 q 878 47 1003 121 q 607 -28 754 -28 m 607 13 q 854 81 740 13 q 1035 267 968 150 q 1103 522 1103 385 q 1036 775 1103 658 q 856 960 969 892 q 608 1029 742 1029 q 360 960 474 1029 q 178 775 246 892 q 111 522 111 658 q 178 267 111 385 q 360 81 246 150 q 607 13 474 13 m 729 1150 q 658 1168 685 1150 q 604 1219 632 1186 q 565 1259 583 1246 q 521 1272 547 1272 q 452 1242 478 1272 q 426 1164 426 1211 l 382 1164 q 420 1269 382 1228 q 519 1311 458 1311 q 585 1293 560 1311 q 638 1243 611 1275 q 681 1202 663 1215 q 725 1189 699 1189 q 782 1216 761 1189 q 803 1297 803 1243 l 847 1297 q 813 1188 847 1226 q 729 1150 779 1150 m 442 1406 l 771 1406 l 771 1367 l 442 1367 l 442 1406 z "},"Œ":{"ha":1061,"x_min":74,"x_max":1010,"o":"m 597 0 q 335 71 456 0 q 144 263 215 142 q 74 526 74 385 q 145 786 74 668 q 339 973 217 904 q 608 1042 461 1042 l 1010 1042 l 1010 1001 l 682 1001 l 682 435 l 956 435 l 956 394 l 682 394 l 682 40 l 1010 40 l 1010 0 l 597 0 m 636 40 l 636 1001 l 608 1001 q 361 939 474 1001 q 184 767 249 876 q 119 524 119 657 q 185 279 119 390 q 362 104 250 168 q 608 40 474 40 l 636 40 z "},"P":{"ha":550,"x_min":108,"x_max":501,"o":"m 108 1042 l 154 1042 q 410 955 318 1042 q 501 722 501 868 q 457 542 501 621 q 336 422 413 464 q 165 379 260 379 l 154 379 l 154 0 l 108 0 l 108 1042 m 168 419 q 375 498 294 419 q 456 719 456 576 q 380 928 456 856 q 165 1001 304 1001 l 154 1001 l 154 419 l 168 419 z "},"Þ":{"ha":579,"x_min":110,"x_max":506,"o":"m 110 1040 l 154 1040 l 154 876 l 167 876 q 417 790 329 876 q 506 543 506 703 q 460 376 506 451 q 338 256 415 300 q 167 213 260 213 l 154 213 l 154 0 l 110 0 l 110 1040 m 167 253 q 316 291 249 253 q 422 396 383 329 q 461 542 461 463 q 385 760 461 683 q 167 836 308 836 l 154 836 l 154 253 l 167 253 z "},"Q":{"ha":1214,"x_min":68,"x_max":1151,"o":"m 1151 525 q 1096 281 1151 394 q 943 89 1040 167 l 1050 -17 l 989 -17 l 908 64 q 610 -28 774 -28 q 339 49 464 -28 q 141 252 214 125 q 68 525 68 379 q 142 795 68 669 q 340 995 215 921 q 611 1069 465 1069 q 882 996 758 1069 q 1078 797 1006 922 q 1151 525 1151 671 m 610 13 q 878 94 754 13 l 632 338 l 692 338 l 913 119 q 1053 297 1001 192 q 1106 522 1106 403 q 1039 775 1106 658 q 858 960 972 892 q 611 1029 744 1029 q 363 960 476 1029 q 181 775 249 892 q 114 522 114 658 q 181 267 114 385 q 363 81 249 150 q 610 13 476 13 z "},"R":{"ha":574,"x_min":110,"x_max":529,"o":"m 110 1042 l 169 1042 q 420 956 332 1042 q 508 710 508 869 q 465 542 508 618 q 346 422 421 465 q 181 378 271 378 l 171 378 l 529 0 l 469 0 l 154 331 l 154 0 l 110 0 l 110 1042 m 179 418 q 324 457 258 418 q 426 562 389 496 q 464 708 464 628 q 388 925 464 849 q 172 1001 313 1001 l 154 1001 l 154 418 l 179 418 z "},"Ŕ":{"ha":574,"x_min":110,"x_max":529,"o":"m 110 1042 l 169 1042 q 420 956 332 1042 q 508 710 508 869 q 465 542 508 618 q 346 422 421 465 q 181 378 271 378 l 171 378 l 529 0 l 469 0 l 154 331 l 154 0 l 110 0 l 110 1042 m 179 418 q 324 457 258 418 q 426 562 389 496 q 464 708 464 628 q 388 925 464 849 q 172 1001 313 1001 l 154 1001 l 154 418 l 179 418 m 386 1311 l 443 1311 l 250 1151 l 192 1151 l 386 1311 z "},"Ř":{"ha":574,"x_min":33,"x_max":529,"o":"m 110 1042 l 169 1042 q 420 956 332 1042 q 508 710 508 869 q 465 542 508 618 q 346 422 421 465 q 181 378 271 378 l 171 378 l 529 0 l 469 0 l 154 331 l 154 0 l 110 0 l 110 1042 m 179 418 q 324 457 258 418 q 426 562 389 496 q 464 708 464 628 q 388 925 464 849 q 172 1001 313 1001 l 154 1001 l 154 418 l 179 418 m 33 1311 l 92 1311 l 239 1185 l 388 1311 l 444 1311 l 261 1151 l 219 1151 l 33 1311 z "},"Ŗ":{"ha":574,"x_min":110,"x_max":529,"o":"m 110 1042 l 169 1042 q 420 956 332 1042 q 508 710 508 869 q 465 542 508 618 q 346 422 421 465 q 181 378 271 378 l 171 378 l 529 0 l 469 0 l 154 331 l 154 0 l 110 0 l 110 1042 m 179 418 q 324 457 258 418 q 426 562 389 496 q 464 708 464 628 q 388 925 464 849 q 172 1001 313 1001 l 154 1001 l 154 418 l 179 418 m 357 -153 l 357 -153 q 353 -175 357 -162 l 310 -274 l 300 -274 l 300 -197 q 272 -181 283 -194 q 260 -150 260 -168 q 274 -117 260 -131 q 308 -103 289 -103 q 342 -117 328 -103 q 357 -150 357 -131 l 357 -153 z "},"Ȑ":{"ha":574,"x_min":-31,"x_max":529,"o":"m 110 1042 l 169 1042 q 420 956 332 1042 q 508 710 508 869 q 465 542 508 618 q 346 422 421 465 q 181 378 271 378 l 171 378 l 529 0 l 469 0 l 154 331 l 154 0 l 110 0 l 110 1042 m 179 418 q 324 457 258 418 q 426 562 389 496 q 464 708 464 628 q 388 925 464 849 q 172 1001 313 1001 l 154 1001 l 154 418 l 179 418 m -31 1311 l 26 1311 l 221 1151 l 163 1151 l -31 1311 m 108 1311 l 165 1311 l 360 1151 l 301 1151 l 108 1311 z "},"Ȓ":{"ha":574,"x_min":65,"x_max":529,"o":"m 110 1042 l 169 1042 q 420 956 332 1042 q 508 710 508 869 q 465 542 508 618 q 346 422 421 465 q 181 378 271 378 l 171 378 l 529 0 l 469 0 l 154 331 l 154 0 l 110 0 l 110 1042 m 179 418 q 324 457 258 418 q 426 562 389 496 q 464 708 464 628 q 388 925 464 849 q 172 1001 313 1001 l 154 1001 l 154 418 l 179 418 m 239 1311 q 366 1265 319 1311 q 413 1150 413 1219 l 368 1150 q 335 1238 368 1204 q 239 1272 301 1272 q 143 1238 176 1272 q 110 1150 110 1204 l 65 1150 q 112 1265 65 1219 q 239 1311 158 1311 z "},"S":{"ha":697,"x_min":58,"x_max":639,"o":"m 328 -19 q 58 124 154 -19 l 58 199 q 167 68 96 115 q 339 21 239 21 q 467 51 408 21 q 561 138 526 82 q 596 265 596 193 q 574 378 596 331 q 500 469 551 425 q 351 572 449 513 l 307 600 q 208 667 246 638 q 143 735 171 696 q 107 860 107 789 q 168 1007 107 954 q 324 1060 229 1060 q 526 965 451 1060 l 526 894 q 439 986 494 953 q 317 1019 383 1019 q 200 976 247 1019 q 153 861 153 933 q 197 740 153 790 q 344 629 240 689 q 543 493 472 554 q 616 392 593 447 q 639 268 639 336 q 599 117 639 182 q 488 16 558 51 q 328 -19 417 -19 z "},"Ś":{"ha":697,"x_min":58,"x_max":639,"o":"m 328 -19 q 58 124 154 -19 l 58 199 q 167 68 96 115 q 339 21 239 21 q 467 51 408 21 q 561 138 526 82 q 596 265 596 193 q 574 378 596 331 q 500 469 551 425 q 351 572 449 513 l 307 600 q 208 667 246 638 q 143 735 171 696 q 107 860 107 789 q 168 1007 107 954 q 324 1060 229 1060 q 526 965 451 1060 l 526 894 q 439 986 494 953 q 317 1019 383 1019 q 200 976 247 1019 q 153 861 153 933 q 197 740 153 790 q 344 629 240 689 q 543 493 472 554 q 616 392 593 447 q 639 268 639 336 q 599 117 639 182 q 488 16 558 51 q 328 -19 417 -19 m 496 1311 l 553 1311 l 360 1151 l 301 1151 l 496 1311 z "},"Š":{"ha":697,"x_min":58,"x_max":639,"o":"m 328 -19 q 58 124 154 -19 l 58 199 q 167 68 96 115 q 339 21 239 21 q 467 51 408 21 q 561 138 526 82 q 596 265 596 193 q 574 378 596 331 q 500 469 551 425 q 351 572 449 513 l 307 600 q 208 667 246 638 q 143 735 171 696 q 107 860 107 789 q 168 1007 107 954 q 324 1060 229 1060 q 526 965 451 1060 l 526 894 q 439 986 494 953 q 317 1019 383 1019 q 200 976 247 1019 q 153 861 153 933 q 197 740 153 790 q 344 629 240 689 q 543 493 472 554 q 616 392 593 447 q 639 268 639 336 q 599 117 639 182 q 488 16 558 51 q 328 -19 417 -19 m 143 1311 l 201 1311 l 349 1185 l 497 1311 l 554 1311 l 371 1151 l 329 1151 l 143 1311 z "},"Ş":{"ha":697,"x_min":58,"x_max":639,"o":"m 639 268 q 602 124 639 186 q 501 24 565 61 q 356 -18 438 -12 l 356 -54 l 360 -54 q 460 -139 460 -54 q 434 -212 461 -186 q 361 -239 407 -239 l 311 -239 l 311 -200 l 361 -200 q 402 -185 388 -200 q 417 -144 417 -169 q 361 -94 417 -94 l 313 -94 l 311 -19 q 58 124 150 -12 l 58 199 q 167 68 96 115 q 339 21 239 21 q 467 51 408 21 q 561 138 526 82 q 596 265 596 193 q 574 378 596 331 q 500 469 551 425 q 351 572 449 513 l 307 600 q 208 667 246 638 q 143 735 171 696 q 107 860 107 789 q 168 1007 107 954 q 324 1060 229 1060 q 526 965 451 1060 l 526 894 q 439 986 494 953 q 317 1019 383 1019 q 200 976 247 1019 q 153 861 153 933 q 197 740 153 790 q 344 629 240 689 q 543 493 472 554 q 616 392 593 447 q 639 268 639 336 z "},"Ŝ":{"ha":697,"x_min":58,"x_max":639,"o":"m 328 -19 q 58 124 154 -19 l 58 199 q 167 68 96 115 q 339 21 239 21 q 467 51 408 21 q 561 138 526 82 q 596 265 596 193 q 574 378 596 331 q 500 469 551 425 q 351 572 449 513 l 307 600 q 208 667 246 638 q 143 735 171 696 q 107 860 107 789 q 168 1007 107 954 q 324 1060 229 1060 q 526 965 451 1060 l 526 894 q 439 986 494 953 q 317 1019 383 1019 q 200 976 247 1019 q 153 861 153 933 q 197 740 153 790 q 344 629 240 689 q 543 493 472 554 q 616 392 593 447 q 639 268 639 336 q 599 117 639 182 q 488 16 558 51 q 328 -19 417 -19 m 496 1151 l 350 1276 l 204 1151 l 143 1151 l 329 1311 l 371 1311 l 554 1151 l 496 1151 z "},"Ș":{"ha":697,"x_min":58,"x_max":639,"o":"m 328 -19 q 58 124 154 -19 l 58 199 q 167 68 96 115 q 339 21 239 21 q 467 51 408 21 q 561 138 526 82 q 596 265 596 193 q 574 378 596 331 q 500 469 551 425 q 351 572 449 513 l 307 600 q 208 667 246 638 q 143 735 171 696 q 107 860 107 789 q 168 1007 107 954 q 324 1060 229 1060 q 526 965 451 1060 l 526 894 q 439 986 494 953 q 317 1019 383 1019 q 200 976 247 1019 q 153 861 153 933 q 197 740 153 790 q 344 629 240 689 q 543 493 472 554 q 616 392 593 447 q 639 268 639 336 q 599 117 639 182 q 488 16 558 51 q 328 -19 417 -19 m 417 -153 l 417 -153 q 413 -175 417 -162 l 369 -274 l 360 -274 l 360 -197 q 331 -181 343 -194 q 319 -150 319 -168 q 334 -117 319 -131 q 368 -103 349 -103 q 402 -117 388 -103 q 417 -150 417 -131 l 417 -153 z "},"ẞ":{"ha":736,"x_min":110,"x_max":679,"o":"m 394 -18 q 232 32 304 -18 l 232 93 q 394 22 294 22 q 567 105 501 22 q 633 344 633 188 q 560 553 633 475 q 350 632 486 632 q 294 629 314 632 q 339 669 343 672 q 435 768 403 725 q 468 867 468 811 q 430 977 468 938 q 326 1017 392 1017 q 203 960 251 1017 q 154 819 154 904 l 154 0 l 110 0 l 110 819 q 170 990 110 925 q 325 1056 231 1056 q 463 1003 414 1056 q 513 874 513 950 q 485 766 513 810 q 383 661 457 722 q 533 624 465 663 q 640 513 601 586 q 679 340 679 440 q 642 145 679 226 q 540 23 604 64 q 394 -18 475 -18 z "},"Ə":{"ha":1010,"x_min":74,"x_max":944,"o":"m 411 1057 q 679 987 557 1057 q 873 794 801 917 q 944 518 944 671 q 869 243 944 367 q 671 49 794 119 q 407 -21 547 -21 q 274 -9 328 -21 q 176 24 219 3 q 74 88 133 46 l 804 811 q 634 961 736 906 q 417 1017 532 1017 q 259 995 331 1017 q 121 928 188 974 l 121 979 q 258 1038 188 1019 q 411 1057 328 1057 m 417 19 q 654 88 543 19 q 832 273 765 157 q 899 522 899 389 q 826 778 899 660 l 138 94 q 265 37 200 54 q 417 19 329 19 z "},"T":{"ha":582,"x_min":29,"x_max":553,"o":"m 269 1001 l 29 1001 l 29 1042 l 553 1042 l 553 1001 l 315 1001 l 315 0 l 269 0 l 269 1001 z "},"Ŧ":{"ha":582,"x_min":29,"x_max":553,"o":"m 269 382 l 106 382 l 106 422 l 269 422 l 269 1001 l 29 1001 l 29 1042 l 553 1042 l 553 1001 l 315 1001 l 315 422 l 479 422 l 479 382 l 315 382 l 315 0 l 269 0 l 269 382 z "},"Ť":{"ha":582,"x_min":29,"x_max":553,"o":"m 269 1001 l 29 1001 l 29 1042 l 553 1042 l 553 1001 l 315 1001 l 315 0 l 269 0 l 269 1001 m 86 1311 l 144 1311 l 292 1185 l 440 1311 l 497 1311 l 314 1151 l 272 1151 l 86 1311 z "},"Ţ":{"ha":582,"x_min":29,"x_max":553,"o":"m 269 1001 l 29 1001 l 29 1042 l 553 1042 l 553 1001 l 315 1001 l 315 0 l 269 0 l 269 1001 m 286 -193 q 243 -150 243 -193 q 292 -107 243 -107 q 339 -150 339 -107 q 335 -172 339 -160 l 292 -271 l 286 -271 l 286 -193 z "},"Ț":{"ha":582,"x_min":29,"x_max":553,"o":"m 269 1001 l 29 1001 l 29 1042 l 553 1042 l 553 1001 l 315 1001 l 315 0 l 269 0 l 269 1001 m 374 -153 l 374 -153 q 369 -175 374 -162 l 326 -274 l 317 -274 l 317 -197 q 288 -181 300 -194 q 276 -150 276 -168 q 291 -117 276 -131 q 325 -103 306 -103 q 359 -117 344 -103 q 374 -150 374 -131 l 374 -153 z "},"U":{"ha":840,"x_min":110,"x_max":731,"o":"m 422 -28 q 261 10 332 -28 q 150 119 190 49 q 110 285 110 190 l 110 1042 l 156 1042 l 156 286 q 190 141 156 203 q 285 46 225 79 q 421 13 346 13 q 556 45 496 13 q 651 140 617 78 q 685 286 685 201 l 685 1042 l 731 1042 l 731 288 q 692 120 731 192 q 583 10 653 49 q 422 -28 513 -28 z "},"Ú":{"ha":840,"x_min":110,"x_max":731,"o":"m 422 -28 q 261 10 332 -28 q 150 119 190 49 q 110 285 110 190 l 110 1042 l 156 1042 l 156 286 q 190 141 156 203 q 285 46 225 79 q 421 13 346 13 q 556 45 496 13 q 651 140 617 78 q 685 286 685 201 l 685 1042 l 731 1042 l 731 288 q 692 120 731 192 q 583 10 653 49 q 422 -28 513 -28 m 568 1311 l 625 1311 l 432 1151 l 374 1151 l 568 1311 z "},"Ŭ":{"ha":840,"x_min":110,"x_max":731,"o":"m 422 -28 q 261 10 332 -28 q 150 119 190 49 q 110 285 110 190 l 110 1042 l 156 1042 l 156 286 q 190 141 156 203 q 285 46 225 79 q 421 13 346 13 q 556 45 496 13 q 651 140 617 78 q 685 286 685 201 l 685 1042 l 731 1042 l 731 288 q 692 120 731 192 q 583 10 653 49 q 422 -28 513 -28 m 419 1150 q 292 1196 339 1150 q 246 1311 246 1242 l 290 1311 q 324 1223 290 1257 q 419 1189 357 1189 q 515 1223 482 1189 q 549 1311 549 1257 l 593 1311 q 547 1196 593 1242 q 419 1150 500 1150 z "},"Û":{"ha":840,"x_min":110,"x_max":731,"o":"m 422 -28 q 261 10 332 -28 q 150 119 190 49 q 110 285 110 190 l 110 1042 l 156 1042 l 156 286 q 190 141 156 203 q 285 46 225 79 q 421 13 346 13 q 556 45 496 13 q 651 140 617 78 q 685 286 685 201 l 685 1042 l 731 1042 l 731 288 q 692 120 731 192 q 583 10 653 49 q 422 -28 513 -28 m 568 1151 l 422 1276 l 276 1151 l 215 1151 l 401 1311 l 443 1311 l 626 1151 l 568 1151 z "},"Ȕ":{"ha":840,"x_min":110,"x_max":731,"o":"m 422 -28 q 261 10 332 -28 q 150 119 190 49 q 110 285 110 190 l 110 1042 l 156 1042 l 156 286 q 190 141 156 203 q 285 46 225 79 q 421 13 346 13 q 556 45 496 13 q 651 140 617 78 q 685 286 685 201 l 685 1042 l 731 1042 l 731 288 q 692 120 731 192 q 583 10 653 49 q 422 -28 513 -28 m 151 1311 l 208 1311 l 403 1151 l 344 1151 l 151 1311 m 290 1311 l 347 1311 l 542 1151 l 483 1151 l 290 1311 z "},"Ü":{"ha":840,"x_min":110,"x_max":731,"o":"m 422 -28 q 261 10 332 -28 q 150 119 190 49 q 110 285 110 190 l 110 1042 l 156 1042 l 156 286 q 190 141 156 203 q 285 46 225 79 q 421 13 346 13 q 556 45 496 13 q 651 140 617 78 q 685 286 685 201 l 685 1042 l 731 1042 l 731 288 q 692 120 731 192 q 583 10 653 49 q 422 -28 513 -28 m 340 1188 q 310 1199 322 1188 q 299 1229 299 1211 q 310 1259 299 1247 q 340 1271 322 1271 q 370 1259 358 1271 q 382 1229 382 1247 q 370 1199 382 1211 q 340 1188 358 1188 m 497 1188 q 467 1199 479 1188 q 456 1229 456 1211 q 467 1259 456 1247 q 497 1271 479 1271 q 527 1259 515 1271 q 539 1229 539 1247 q 527 1199 539 1211 q 497 1188 515 1188 z "},"Ụ":{"ha":840,"x_min":110,"x_max":731,"o":"m 422 -28 q 261 10 332 -28 q 150 119 190 49 q 110 285 110 190 l 110 1042 l 156 1042 l 156 286 q 190 141 156 203 q 285 46 225 79 q 421 13 346 13 q 556 45 496 13 q 651 140 617 78 q 685 286 685 201 l 685 1042 l 731 1042 l 731 288 q 692 120 731 192 q 583 10 653 49 q 422 -28 513 -28 m 421 -179 q 387 -165 401 -179 q 372 -131 372 -151 q 387 -97 372 -111 q 421 -83 401 -83 q 455 -97 440 -83 q 469 -131 469 -111 q 455 -165 469 -151 q 421 -179 440 -179 z "},"Ù":{"ha":840,"x_min":110,"x_max":731,"o":"m 422 -28 q 261 10 332 -28 q 150 119 190 49 q 110 285 110 190 l 110 1042 l 156 1042 l 156 286 q 190 141 156 203 q 285 46 225 79 q 421 13 346 13 q 556 45 496 13 q 651 140 617 78 q 685 286 685 201 l 685 1042 l 731 1042 l 731 288 q 692 120 731 192 q 583 10 653 49 q 422 -28 513 -28 m 294 1311 l 351 1311 l 546 1151 l 488 1151 l 294 1311 z "},"Ủ":{"ha":840,"x_min":110,"x_max":731,"o":"m 422 -28 q 261 10 332 -28 q 150 119 190 49 q 110 285 110 190 l 110 1042 l 156 1042 l 156 286 q 190 141 156 203 q 285 46 225 79 q 421 13 346 13 q 556 45 496 13 q 651 140 617 78 q 685 286 685 201 l 685 1042 l 731 1042 l 731 288 q 692 120 731 192 q 583 10 653 49 q 422 -28 513 -28 m 394 1185 q 501 1244 501 1185 q 481 1285 501 1269 q 419 1300 460 1300 q 357 1281 381 1300 q 333 1228 333 1261 l 289 1228 q 325 1310 289 1281 q 421 1340 361 1340 q 513 1311 479 1340 q 546 1239 546 1282 q 519 1181 546 1201 q 439 1158 492 1161 l 439 1122 l 394 1122 l 394 1185 z "},"Ư":{"ha":908,"x_min":110,"x_max":894,"o":"m 422 -28 q 261 10 332 -28 q 150 119 190 49 q 110 285 110 190 l 110 1042 l 156 1042 l 156 286 q 190 141 156 203 q 285 46 225 79 q 421 13 346 13 q 556 45 496 13 q 651 140 617 78 q 685 286 685 201 l 685 1042 l 731 1042 l 731 288 q 692 120 731 192 q 583 10 653 49 q 422 -28 513 -28 m 731 1042 q 819 1088 789 1042 q 850 1207 850 1135 l 894 1207 q 851 1060 894 1118 q 731 1003 807 1003 l 731 1042 z "},"Ứ":{"ha":908,"x_min":110,"x_max":894,"o":"m 422 -28 q 261 10 332 -28 q 150 119 190 49 q 110 285 110 190 l 110 1042 l 156 1042 l 156 286 q 190 141 156 203 q 285 46 225 79 q 421 13 346 13 q 556 45 496 13 q 651 140 617 78 q 685 286 685 201 l 685 1042 l 731 1042 l 731 288 q 692 120 731 192 q 583 10 653 49 q 422 -28 513 -28 m 731 1042 q 819 1088 789 1042 q 850 1207 850 1135 l 894 1207 q 851 1060 894 1118 q 731 1003 807 1003 l 731 1042 m 568 1311 l 625 1311 l 432 1151 l 374 1151 l 568 1311 z "},"Ự":{"ha":908,"x_min":110,"x_max":894,"o":"m 422 -28 q 261 10 332 -28 q 150 119 190 49 q 110 285 110 190 l 110 1042 l 156 1042 l 156 286 q 190 141 156 203 q 285 46 225 79 q 421 13 346 13 q 556 45 496 13 q 651 140 617 78 q 685 286 685 201 l 685 1042 l 731 1042 l 731 288 q 692 120 731 192 q 583 10 653 49 q 422 -28 513 -28 m 731 1042 q 819 1088 789 1042 q 850 1207 850 1135 l 894 1207 q 851 1060 894 1118 q 731 1003 807 1003 l 731 1042 m 421 -179 q 387 -165 401 -179 q 372 -131 372 -151 q 387 -97 372 -111 q 421 -83 401 -83 q 455 -97 440 -83 q 469 -131 469 -111 q 455 -165 469 -151 q 421 -179 440 -179 z "},"Ừ":{"ha":908,"x_min":110,"x_max":894,"o":"m 422 -28 q 261 10 332 -28 q 150 119 190 49 q 110 285 110 190 l 110 1042 l 156 1042 l 156 286 q 190 141 156 203 q 285 46 225 79 q 421 13 346 13 q 556 45 496 13 q 651 140 617 78 q 685 286 685 201 l 685 1042 l 731 1042 l 731 288 q 692 120 731 192 q 583 10 653 49 q 422 -28 513 -28 m 731 1042 q 819 1088 789 1042 q 850 1207 850 1135 l 894 1207 q 851 1060 894 1118 q 731 1003 807 1003 l 731 1042 m 294 1311 l 351 1311 l 546 1151 l 488 1151 l 294 1311 z "},"Ử":{"ha":908,"x_min":110,"x_max":894,"o":"m 422 -28 q 261 10 332 -28 q 150 119 190 49 q 110 285 110 190 l 110 1042 l 156 1042 l 156 286 q 190 141 156 203 q 285 46 225 79 q 421 13 346 13 q 556 45 496 13 q 651 140 617 78 q 685 286 685 201 l 685 1042 l 731 1042 l 731 288 q 692 120 731 192 q 583 10 653 49 q 422 -28 513 -28 m 731 1042 q 819 1088 789 1042 q 850 1207 850 1135 l 894 1207 q 851 1060 894 1118 q 731 1003 807 1003 l 731 1042 m 394 1185 q 501 1244 501 1185 q 481 1285 501 1269 q 419 1300 460 1300 q 357 1281 381 1300 q 333 1228 333 1261 l 289 1228 q 325 1310 289 1281 q 421 1340 361 1340 q 513 1311 479 1340 q 546 1239 546 1282 q 519 1181 546 1201 q 439 1158 492 1161 l 439 1122 l 394 1122 l 394 1185 z "},"Ữ":{"ha":908,"x_min":110,"x_max":894,"o":"m 422 -28 q 261 10 332 -28 q 150 119 190 49 q 110 285 110 190 l 110 1042 l 156 1042 l 156 286 q 190 141 156 203 q 285 46 225 79 q 421 13 346 13 q 556 45 496 13 q 651 140 617 78 q 685 286 685 201 l 685 1042 l 731 1042 l 731 288 q 692 120 731 192 q 583 10 653 49 q 422 -28 513 -28 m 731 1042 q 819 1088 789 1042 q 850 1207 850 1135 l 894 1207 q 851 1060 894 1118 q 731 1003 807 1003 l 731 1042 m 543 1150 q 472 1168 499 1150 q 418 1219 446 1186 q 379 1259 397 1246 q 335 1272 361 1272 q 266 1242 292 1272 q 240 1164 240 1211 l 196 1164 q 234 1269 196 1228 q 333 1311 272 1311 q 399 1293 374 1311 q 451 1243 425 1275 q 494 1202 476 1215 q 539 1189 513 1189 q 596 1216 575 1189 q 617 1297 617 1243 l 661 1297 q 627 1188 661 1226 q 543 1150 593 1150 z "},"Ű":{"ha":840,"x_min":110,"x_max":731,"o":"m 422 -28 q 261 10 332 -28 q 150 119 190 49 q 110 285 110 190 l 110 1042 l 156 1042 l 156 286 q 190 141 156 203 q 285 46 225 79 q 421 13 346 13 q 556 45 496 13 q 651 140 617 78 q 685 286 685 201 l 685 1042 l 731 1042 l 731 288 q 692 120 731 192 q 583 10 653 49 q 422 -28 513 -28 m 444 1311 l 501 1311 l 308 1151 l 250 1151 l 444 1311 m 614 1311 l 671 1311 l 478 1151 l 419 1151 l 614 1311 z "},"Ȗ":{"ha":840,"x_min":110,"x_max":731,"o":"m 422 -28 q 261 10 332 -28 q 150 119 190 49 q 110 285 110 190 l 110 1042 l 156 1042 l 156 286 q 190 141 156 203 q 285 46 225 79 q 421 13 346 13 q 556 45 496 13 q 651 140 617 78 q 685 286 685 201 l 685 1042 l 731 1042 l 731 288 q 692 120 731 192 q 583 10 653 49 q 422 -28 513 -28 m 421 1311 q 548 1265 501 1311 q 594 1150 594 1219 l 550 1150 q 517 1238 550 1204 q 421 1272 483 1272 q 325 1238 358 1272 q 292 1150 292 1204 l 247 1150 q 294 1265 247 1219 q 421 1311 340 1311 z "},"Ū":{"ha":840,"x_min":110,"x_max":731,"o":"m 422 -28 q 261 10 332 -28 q 150 119 190 49 q 110 285 110 190 l 110 1042 l 156 1042 l 156 286 q 190 141 156 203 q 285 46 225 79 q 421 13 346 13 q 556 45 496 13 q 651 140 617 78 q 685 286 685 201 l 685 1042 l 731 1042 l 731 288 q 692 120 731 192 q 583 10 653 49 q 422 -28 513 -28 m 256 1242 l 585 1242 l 585 1203 l 256 1203 l 256 1242 z "},"Ų":{"ha":840,"x_min":110,"x_max":731,"o":"m 731 1042 l 731 288 q 692 120 731 192 q 583 11 653 49 l 478 -139 q 461 -182 461 -162 q 478 -216 461 -203 q 525 -229 496 -229 l 585 -229 l 585 -265 l 522 -265 q 449 -242 476 -265 q 421 -185 421 -219 q 443 -124 421 -154 l 521 -14 q 422 -28 478 -28 q 261 10 332 -28 q 150 119 190 49 q 110 285 110 190 l 110 1042 l 156 1042 l 156 286 q 190 141 156 203 q 285 46 225 79 q 421 13 346 13 q 556 45 496 13 q 651 140 617 78 q 685 286 685 201 l 685 1042 l 731 1042 z "},"Ů":{"ha":840,"x_min":110,"x_max":731,"o":"m 422 -28 q 261 10 332 -28 q 150 119 190 49 q 110 285 110 190 l 110 1042 l 156 1042 l 156 286 q 190 141 156 203 q 285 46 225 79 q 421 13 346 13 q 556 45 496 13 q 651 140 617 78 q 685 286 685 201 l 685 1042 l 731 1042 l 731 288 q 692 120 731 192 q 583 10 653 49 q 422 -28 513 -28 m 417 1128 q 345 1159 375 1128 q 315 1233 315 1190 q 347 1306 315 1275 q 421 1336 378 1336 q 494 1306 464 1336 q 525 1233 525 1275 q 494 1159 525 1190 q 422 1128 464 1128 l 417 1128 m 421 1161 q 469 1182 449 1161 q 489 1232 489 1203 q 469 1282 489 1261 q 421 1303 449 1303 q 371 1281 392 1303 q 350 1232 350 1260 q 371 1183 350 1204 q 421 1161 392 1161 z "},"Ũ":{"ha":840,"x_min":110,"x_max":731,"o":"m 422 -28 q 261 10 332 -28 q 150 119 190 49 q 110 285 110 190 l 110 1042 l 156 1042 l 156 286 q 190 141 156 203 q 285 46 225 79 q 421 13 346 13 q 556 45 496 13 q 651 140 617 78 q 685 286 685 201 l 685 1042 l 731 1042 l 731 288 q 692 120 731 192 q 583 10 653 49 q 422 -28 513 -28 m 543 1150 q 472 1168 499 1150 q 418 1219 446 1186 q 379 1259 397 1246 q 335 1272 361 1272 q 266 1242 292 1272 q 240 1164 240 1211 l 196 1164 q 234 1269 196 1228 q 333 1311 272 1311 q 399 1293 374 1311 q 451 1243 425 1275 q 494 1202 476 1215 q 539 1189 513 1189 q 596 1216 575 1189 q 617 1297 617 1243 l 661 1297 q 627 1188 661 1226 q 543 1150 593 1150 z "},"V":{"ha":953,"x_min":0,"x_max":953,"o":"m 953 1042 l 476 -24 l 0 1042 l 50 1042 l 481 82 l 906 1042 l 953 1042 z "},"W":{"ha":1361,"x_min":0,"x_max":1361,"o":"m 899 -18 l 679 492 l 457 -18 l 0 1042 l 49 1042 l 458 94 l 656 547 l 442 1042 l 489 1042 l 683 593 l 879 1042 l 922 1042 l 706 542 l 901 90 l 1313 1042 l 1361 1042 l 899 -18 z "},"Ẃ":{"ha":1361,"x_min":0,"x_max":1361,"o":"m 899 -18 l 679 492 l 457 -18 l 0 1042 l 49 1042 l 458 94 l 656 547 l 442 1042 l 489 1042 l 683 593 l 879 1042 l 922 1042 l 706 542 l 901 90 l 1313 1042 l 1361 1042 l 899 -18 m 828 1311 l 885 1311 l 692 1151 l 633 1151 l 828 1311 z "},"Ŵ":{"ha":1361,"x_min":0,"x_max":1361,"o":"m 899 -18 l 679 492 l 457 -18 l 0 1042 l 49 1042 l 458 94 l 656 547 l 442 1042 l 489 1042 l 683 593 l 879 1042 l 922 1042 l 706 542 l 901 90 l 1313 1042 l 1361 1042 l 899 -18 m 828 1151 l 682 1276 l 536 1151 l 475 1151 l 661 1311 l 703 1311 l 886 1151 l 828 1151 z "},"Ẅ":{"ha":1361,"x_min":0,"x_max":1361,"o":"m 899 -18 l 679 492 l 457 -18 l 0 1042 l 49 1042 l 458 94 l 656 547 l 442 1042 l 489 1042 l 683 593 l 879 1042 l 922 1042 l 706 542 l 901 90 l 1313 1042 l 1361 1042 l 899 -18 m 600 1188 q 570 1199 582 1188 q 558 1229 558 1211 q 570 1259 558 1247 q 600 1271 582 1271 q 630 1259 618 1271 q 642 1229 642 1247 q 630 1199 642 1211 q 600 1188 618 1188 m 757 1188 q 727 1199 739 1188 q 715 1229 715 1211 q 727 1259 715 1247 q 757 1271 739 1271 q 787 1259 775 1271 q 799 1229 799 1247 q 787 1199 799 1211 q 757 1188 775 1188 z "},"Ẁ":{"ha":1361,"x_min":0,"x_max":1361,"o":"m 899 -18 l 679 492 l 457 -18 l 0 1042 l 49 1042 l 458 94 l 656 547 l 442 1042 l 489 1042 l 683 593 l 879 1042 l 922 1042 l 706 542 l 901 90 l 1313 1042 l 1361 1042 l 899 -18 m 554 1311 l 611 1311 l 806 1151 l 747 1151 l 554 1311 z "},"X":{"ha":676,"x_min":26,"x_max":647,"o":"m 596 0 l 335 538 l 72 0 l 26 0 l 308 581 l 78 1042 l 131 1042 l 333 628 l 535 1042 l 583 1042 l 361 586 l 647 0 l 596 0 z "},"Y":{"ha":672,"x_min":0,"x_max":672,"o":"m 672 1042 l 363 417 l 363 0 l 317 0 l 317 417 l 0 1042 l 50 1042 l 340 471 l 625 1042 l 672 1042 z "},"Ý":{"ha":672,"x_min":0,"x_max":672,"o":"m 672 1042 l 363 417 l 363 0 l 317 0 l 317 417 l 0 1042 l 50 1042 l 340 471 l 625 1042 l 672 1042 m 483 1311 l 540 1311 l 347 1151 l 289 1151 l 483 1311 z "},"Ŷ":{"ha":672,"x_min":0,"x_max":672,"o":"m 672 1042 l 363 417 l 363 0 l 317 0 l 317 417 l 0 1042 l 50 1042 l 340 471 l 625 1042 l 672 1042 m 483 1151 l 338 1276 l 192 1151 l 131 1151 l 317 1311 l 358 1311 l 542 1151 l 483 1151 z "},"Ÿ":{"ha":672,"x_min":0,"x_max":672,"o":"m 672 1042 l 363 417 l 363 0 l 317 0 l 317 417 l 0 1042 l 50 1042 l 340 471 l 625 1042 l 672 1042 m 256 1188 q 226 1199 238 1188 q 214 1229 214 1211 q 226 1259 214 1247 q 256 1271 238 1271 q 285 1259 274 1271 q 297 1229 297 1247 q 285 1199 297 1211 q 256 1188 274 1188 m 413 1188 q 383 1199 394 1188 q 371 1229 371 1211 q 383 1259 371 1247 q 413 1271 394 1271 q 442 1259 431 1271 q 454 1229 454 1247 q 442 1199 454 1211 q 413 1188 431 1188 z "},"Ỵ":{"ha":672,"x_min":0,"x_max":672,"o":"m 672 1042 l 363 417 l 363 0 l 317 0 l 317 417 l 0 1042 l 50 1042 l 340 471 l 625 1042 l 672 1042 m 336 -179 q 302 -165 317 -179 q 288 -131 288 -151 q 302 -97 288 -111 q 336 -83 317 -83 q 370 -97 356 -83 q 385 -131 385 -111 q 370 -165 385 -151 q 336 -179 356 -179 z "},"Ỳ":{"ha":672,"x_min":0,"x_max":672,"o":"m 672 1042 l 363 417 l 363 0 l 317 0 l 317 417 l 0 1042 l 50 1042 l 340 471 l 625 1042 l 672 1042 m 210 1311 l 267 1311 l 461 1151 l 403 1151 l 210 1311 z "},"Ỷ":{"ha":672,"x_min":0,"x_max":672,"o":"m 672 1042 l 363 417 l 363 0 l 317 0 l 317 417 l 0 1042 l 50 1042 l 340 471 l 625 1042 l 672 1042 m 310 1185 q 417 1244 417 1185 q 396 1285 417 1269 q 335 1300 375 1300 q 272 1281 296 1300 q 249 1228 249 1261 l 204 1228 q 240 1310 204 1281 q 336 1340 276 1340 q 428 1311 394 1340 q 461 1239 461 1282 q 434 1181 461 1201 q 354 1158 407 1161 l 354 1122 l 310 1122 l 310 1185 z "},"Ȳ":{"ha":672,"x_min":0,"x_max":672,"o":"m 672 1042 l 363 417 l 363 0 l 317 0 l 317 417 l 0 1042 l 50 1042 l 340 471 l 625 1042 l 672 1042 m 171 1242 l 500 1242 l 500 1203 l 171 1203 l 171 1242 z "},"Ỹ":{"ha":672,"x_min":0,"x_max":672,"o":"m 672 1042 l 363 417 l 363 0 l 317 0 l 317 417 l 0 1042 l 50 1042 l 340 471 l 625 1042 l 672 1042 m 458 1150 q 388 1168 414 1150 q 333 1219 361 1186 q 294 1259 313 1246 q 250 1272 276 1272 q 181 1242 207 1272 q 156 1164 156 1211 l 111 1164 q 149 1269 111 1228 q 249 1311 188 1311 q 315 1293 289 1311 q 367 1243 340 1275 q 410 1202 392 1215 q 454 1189 428 1189 q 511 1216 490 1189 q 532 1297 532 1243 l 576 1297 q 542 1188 576 1226 q 458 1150 508 1150 z "},"Z":{"ha":596,"x_min":36,"x_max":564,"o":"m 494 1001 l 36 1001 l 36 1042 l 564 1042 l 104 40 l 560 40 l 560 0 l 36 0 l 494 1001 z "},"Ź":{"ha":596,"x_min":36,"x_max":564,"o":"m 494 1001 l 36 1001 l 36 1042 l 564 1042 l 104 40 l 560 40 l 560 0 l 36 0 l 494 1001 m 476 1311 l 533 1311 l 340 1151 l 282 1151 l 476 1311 z "},"Ž":{"ha":596,"x_min":36,"x_max":564,"o":"m 494 1001 l 36 1001 l 36 1042 l 564 1042 l 104 40 l 560 40 l 560 0 l 36 0 l 494 1001 m 124 1311 l 182 1311 l 329 1185 l 478 1311 l 535 1311 l 351 1151 l 310 1151 l 124 1311 z "},"Ż":{"ha":596,"x_min":36,"x_max":564,"o":"m 494 1001 l 36 1001 l 36 1042 l 564 1042 l 104 40 l 560 40 l 560 0 l 36 0 l 494 1001 m 329 1182 q 295 1196 310 1182 q 281 1231 281 1210 q 295 1264 281 1250 q 329 1278 310 1278 q 363 1264 349 1278 q 378 1231 378 1250 q 363 1196 378 1210 q 329 1182 349 1182 z "},"a":{"ha":797,"x_min":51,"x_max":710,"o":"m 382 -15 q 217 29 293 -15 q 96 149 140 74 q 51 313 51 225 q 96 476 51 400 q 217 596 140 551 q 382 640 293 640 q 553 592 472 640 q 665 468 633 544 l 665 625 l 710 625 l 710 0 l 665 0 l 665 156 q 549 31 628 78 q 382 -15 471 -15 m 385 24 q 526 63 461 24 q 630 169 592 103 q 668 313 668 235 q 629 456 668 389 q 525 562 590 522 q 383 601 460 601 q 241 561 307 601 q 135 454 175 521 q 96 311 96 388 q 135 169 96 235 q 242 63 175 103 q 385 24 308 24 z "},"á":{"ha":797,"x_min":51,"x_max":710,"o":"m 382 -15 q 217 29 293 -15 q 96 149 140 74 q 51 313 51 225 q 96 476 51 400 q 217 596 140 551 q 382 640 293 640 q 553 592 472 640 q 665 468 633 544 l 665 625 l 710 625 l 710 0 l 665 0 l 665 156 q 549 31 628 78 q 382 -15 471 -15 m 385 24 q 526 63 461 24 q 630 169 592 103 q 668 313 668 235 q 629 456 668 389 q 525 562 590 522 q 383 601 460 601 q 241 561 307 601 q 135 454 175 521 q 96 311 96 388 q 135 169 96 235 q 242 63 175 103 q 385 24 308 24 m 550 894 l 607 894 l 414 735 l 356 735 l 550 894 z "},"ă":{"ha":797,"x_min":51,"x_max":710,"o":"m 382 -15 q 217 29 293 -15 q 96 149 140 74 q 51 313 51 225 q 96 476 51 400 q 217 596 140 551 q 382 640 293 640 q 553 592 472 640 q 665 468 633 544 l 665 625 l 710 625 l 710 0 l 665 0 l 665 156 q 549 31 628 78 q 382 -15 471 -15 m 385 24 q 526 63 461 24 q 630 169 592 103 q 668 313 668 235 q 629 456 668 389 q 525 562 590 522 q 383 601 460 601 q 241 561 307 601 q 135 454 175 521 q 96 311 96 388 q 135 169 96 235 q 242 63 175 103 q 385 24 308 24 m 407 733 q 280 779 326 733 q 233 894 233 825 l 278 894 q 311 806 278 840 q 407 772 344 772 q 503 806 469 772 q 536 894 536 840 l 581 894 q 534 779 581 825 q 407 733 488 733 z "},"ắ":{"ha":797,"x_min":51,"x_max":710,"o":"m 382 -15 q 217 29 293 -15 q 96 149 140 74 q 51 313 51 225 q 96 476 51 400 q 217 596 140 551 q 382 640 293 640 q 553 592 472 640 q 665 468 633 544 l 665 625 l 710 625 l 710 0 l 665 0 l 665 156 q 549 31 628 78 q 382 -15 471 -15 m 385 24 q 526 63 461 24 q 630 169 592 103 q 668 313 668 235 q 629 456 668 389 q 525 562 590 522 q 383 601 460 601 q 241 561 307 601 q 135 454 175 521 q 96 311 96 388 q 135 169 96 235 q 242 63 175 103 q 385 24 308 24 m 401 733 q 274 779 321 733 q 228 894 228 825 l 272 894 q 306 806 272 840 q 401 772 339 772 q 497 806 464 772 q 531 894 531 840 l 575 894 q 528 779 575 825 q 401 733 482 733 m 519 1049 l 571 1049 l 433 889 l 381 889 l 519 1049 z "},"ặ":{"ha":797,"x_min":51,"x_max":710,"o":"m 382 -15 q 217 29 293 -15 q 96 149 140 74 q 51 313 51 225 q 96 476 51 400 q 217 596 140 551 q 382 640 293 640 q 553 592 472 640 q 665 468 633 544 l 665 625 l 710 625 l 710 0 l 665 0 l 665 156 q 549 31 628 78 q 382 -15 471 -15 m 385 24 q 526 63 461 24 q 630 169 592 103 q 668 313 668 235 q 629 456 668 389 q 525 562 590 522 q 383 601 460 601 q 241 561 307 601 q 135 454 175 521 q 96 311 96 388 q 135 169 96 235 q 242 63 175 103 q 385 24 308 24 m 382 -179 q 348 -165 363 -179 q 333 -131 333 -151 q 348 -97 333 -111 q 382 -83 363 -83 q 416 -97 401 -83 q 431 -131 431 -111 q 416 -165 431 -151 q 382 -179 401 -179 m 407 733 q 280 779 326 733 q 233 894 233 825 l 278 894 q 311 806 278 840 q 407 772 344 772 q 503 806 469 772 q 536 894 536 840 l 581 894 q 534 779 581 825 q 407 733 488 733 z "},"ằ":{"ha":797,"x_min":51,"x_max":710,"o":"m 382 -15 q 217 29 293 -15 q 96 149 140 74 q 51 313 51 225 q 96 476 51 400 q 217 596 140 551 q 382 640 293 640 q 553 592 472 640 q 665 468 633 544 l 665 625 l 710 625 l 710 0 l 665 0 l 665 156 q 549 31 628 78 q 382 -15 471 -15 m 385 24 q 526 63 461 24 q 630 169 592 103 q 668 313 668 235 q 629 456 668 389 q 525 562 590 522 q 383 601 460 601 q 241 561 307 601 q 135 454 175 521 q 96 311 96 388 q 135 169 96 235 q 242 63 175 103 q 385 24 308 24 m 403 733 q 276 779 322 733 q 229 894 229 825 l 274 894 q 307 806 274 840 q 403 772 340 772 q 499 806 465 772 q 532 894 532 840 l 576 894 q 530 779 576 825 q 403 733 483 733 m 400 889 l 263 1049 l 314 1049 l 453 889 l 400 889 z "},"ẳ":{"ha":797,"x_min":51,"x_max":710,"o":"m 382 -15 q 217 29 293 -15 q 96 149 140 74 q 51 313 51 225 q 96 476 51 400 q 217 596 140 551 q 382 640 293 640 q 553 592 472 640 q 665 468 633 544 l 665 625 l 710 625 l 710 0 l 665 0 l 665 156 q 549 31 628 78 q 382 -15 471 -15 m 385 24 q 526 63 461 24 q 630 169 592 103 q 668 313 668 235 q 629 456 668 389 q 525 562 590 522 q 383 601 460 601 q 241 561 307 601 q 135 454 175 521 q 96 311 96 388 q 135 169 96 235 q 242 63 175 103 q 385 24 308 24 m 408 733 q 281 779 328 733 q 235 894 235 825 l 279 894 q 313 806 279 840 q 408 772 346 772 q 504 806 471 772 q 538 894 538 840 l 582 894 q 535 779 582 825 q 408 733 489 733 m 393 924 q 500 983 500 924 q 479 1024 500 1008 q 418 1039 458 1039 q 356 1019 379 1039 q 332 967 332 1000 l 288 967 q 324 1049 288 1019 q 419 1079 360 1079 q 511 1050 478 1079 q 544 978 544 1021 q 517 920 544 940 q 438 897 490 900 l 438 861 l 393 861 l 393 924 z "},"ẵ":{"ha":797,"x_min":51,"x_max":710,"o":"m 382 -15 q 217 29 293 -15 q 96 149 140 74 q 51 313 51 225 q 96 476 51 400 q 217 596 140 551 q 382 640 293 640 q 553 592 472 640 q 665 468 633 544 l 665 625 l 710 625 l 710 0 l 665 0 l 665 156 q 549 31 628 78 q 382 -15 471 -15 m 385 24 q 526 63 461 24 q 630 169 592 103 q 668 313 668 235 q 629 456 668 389 q 525 562 590 522 q 383 601 460 601 q 241 561 307 601 q 135 454 175 521 q 96 311 96 388 q 135 169 96 235 q 242 63 175 103 q 385 24 308 24 m 407 733 q 280 779 326 733 q 233 894 233 825 l 278 894 q 311 806 278 840 q 407 772 344 772 q 503 806 469 772 q 536 894 536 840 l 581 894 q 534 779 581 825 q 407 733 488 733 m 233 911 q 263 996 233 965 q 336 1026 292 1026 q 387 1016 367 1026 q 432 985 407 1006 q 463 962 450 969 q 493 954 476 954 q 543 1021 543 954 l 588 1021 q 563 941 588 967 q 492 915 538 915 q 447 925 465 915 q 404 956 429 935 q 372 980 385 972 q 340 988 358 988 q 294 966 311 988 q 278 911 278 944 l 233 911 z "},"â":{"ha":797,"x_min":51,"x_max":710,"o":"m 382 -15 q 217 29 293 -15 q 96 149 140 74 q 51 313 51 225 q 96 476 51 400 q 217 596 140 551 q 382 640 293 640 q 553 592 472 640 q 665 468 633 544 l 665 625 l 710 625 l 710 0 l 665 0 l 665 156 q 549 31 628 78 q 382 -15 471 -15 m 385 24 q 526 63 461 24 q 630 169 592 103 q 668 313 668 235 q 629 456 668 389 q 525 562 590 522 q 383 601 460 601 q 241 561 307 601 q 135 454 175 521 q 96 311 96 388 q 135 169 96 235 q 242 63 175 103 q 385 24 308 24 m 556 735 l 410 860 l 264 735 l 203 735 l 389 894 l 431 894 l 614 735 l 556 735 z "},"ấ":{"ha":797,"x_min":51,"x_max":710,"o":"m 382 -15 q 217 29 293 -15 q 96 149 140 74 q 51 313 51 225 q 96 476 51 400 q 217 596 140 551 q 382 640 293 640 q 553 592 472 640 q 665 468 633 544 l 665 625 l 710 625 l 710 0 l 665 0 l 665 156 q 549 31 628 78 q 382 -15 471 -15 m 385 24 q 526 63 461 24 q 630 169 592 103 q 668 313 668 235 q 629 456 668 389 q 525 562 590 522 q 383 601 460 601 q 241 561 307 601 q 135 454 175 521 q 96 311 96 388 q 135 169 96 235 q 242 63 175 103 q 385 24 308 24 m 563 800 l 535 829 l 650 960 l 701 960 l 563 800 m 429 894 l 585 735 l 532 735 l 408 863 l 285 735 l 229 735 l 388 894 l 429 894 z "},"ậ":{"ha":797,"x_min":51,"x_max":710,"o":"m 382 -15 q 217 29 293 -15 q 96 149 140 74 q 51 313 51 225 q 96 476 51 400 q 217 596 140 551 q 382 640 293 640 q 553 592 472 640 q 665 468 633 544 l 665 625 l 710 625 l 710 0 l 665 0 l 665 156 q 549 31 628 78 q 382 -15 471 -15 m 385 24 q 526 63 461 24 q 630 169 592 103 q 668 313 668 235 q 629 456 668 389 q 525 562 590 522 q 383 601 460 601 q 241 561 307 601 q 135 454 175 521 q 96 311 96 388 q 135 169 96 235 q 242 63 175 103 q 385 24 308 24 m 382 -179 q 348 -165 363 -179 q 333 -131 333 -151 q 348 -97 333 -111 q 382 -83 363 -83 q 416 -97 401 -83 q 431 -131 431 -111 q 416 -165 431 -151 q 382 -179 401 -179 m 556 735 l 410 860 l 264 735 l 203 735 l 389 894 l 431 894 l 614 735 l 556 735 z "},"ầ":{"ha":797,"x_min":51,"x_max":710,"o":"m 382 -15 q 217 29 293 -15 q 96 149 140 74 q 51 313 51 225 q 96 476 51 400 q 217 596 140 551 q 382 640 293 640 q 553 592 472 640 q 665 468 633 544 l 665 625 l 710 625 l 710 0 l 665 0 l 665 156 q 549 31 628 78 q 382 -15 471 -15 m 385 24 q 526 63 461 24 q 630 169 592 103 q 668 313 668 235 q 629 456 668 389 q 525 562 590 522 q 383 601 460 601 q 241 561 307 601 q 135 454 175 521 q 96 311 96 388 q 135 169 96 235 q 242 63 175 103 q 385 24 308 24 m 257 800 l 118 960 l 169 960 l 285 829 l 257 800 m 536 735 l 413 863 l 289 735 l 233 735 l 392 894 l 433 894 l 589 735 l 536 735 z "},"ẩ":{"ha":797,"x_min":51,"x_max":710,"o":"m 382 -15 q 217 29 293 -15 q 96 149 140 74 q 51 313 51 225 q 96 476 51 400 q 217 596 140 551 q 382 640 293 640 q 553 592 472 640 q 665 468 633 544 l 665 625 l 710 625 l 710 0 l 665 0 l 665 156 q 549 31 628 78 q 382 -15 471 -15 m 385 24 q 526 63 461 24 q 630 169 592 103 q 668 313 668 235 q 629 456 668 389 q 525 562 590 522 q 383 601 460 601 q 241 561 307 601 q 135 454 175 521 q 96 311 96 388 q 135 169 96 235 q 242 63 175 103 q 385 24 308 24 m 576 1051 q 658 1022 629 1051 q 688 950 688 993 q 594 869 688 874 l 594 833 l 550 833 l 550 896 q 643 956 643 896 q 626 996 643 981 q 575 1011 608 1011 q 523 992 543 1011 q 503 939 503 972 l 458 939 q 491 1022 458 992 q 576 1051 524 1051 m 431 894 l 586 735 l 532 735 l 408 863 l 286 735 l 231 735 l 389 894 l 431 894 z "},"ẫ":{"ha":797,"x_min":51,"x_max":710,"o":"m 382 -15 q 217 29 293 -15 q 96 149 140 74 q 51 313 51 225 q 96 476 51 400 q 217 596 140 551 q 382 640 293 640 q 553 592 472 640 q 665 468 633 544 l 665 625 l 710 625 l 710 0 l 665 0 l 665 156 q 549 31 628 78 q 382 -15 471 -15 m 385 24 q 526 63 461 24 q 630 169 592 103 q 668 313 668 235 q 629 456 668 389 q 525 562 590 522 q 383 601 460 601 q 241 561 307 601 q 135 454 175 521 q 96 311 96 388 q 135 169 96 235 q 242 63 175 103 q 385 24 308 24 m 533 735 l 410 863 l 286 735 l 231 735 l 389 894 l 431 894 l 586 735 l 533 735 m 235 910 q 264 994 235 964 q 338 1025 293 1025 q 388 1015 368 1025 q 433 983 408 1004 q 465 960 451 968 q 494 953 478 953 q 544 1019 544 953 l 589 1019 q 564 940 589 965 q 493 914 539 914 q 449 924 467 914 q 406 954 431 933 q 373 978 386 971 q 342 986 360 986 q 296 965 313 986 q 279 910 279 943 l 235 910 z "},"ȁ":{"ha":797,"x_min":51,"x_max":710,"o":"m 382 -15 q 217 29 293 -15 q 96 149 140 74 q 51 313 51 225 q 96 476 51 400 q 217 596 140 551 q 382 640 293 640 q 553 592 472 640 q 665 468 633 544 l 665 625 l 710 625 l 710 0 l 665 0 l 665 156 q 549 31 628 78 q 382 -15 471 -15 m 385 24 q 526 63 461 24 q 630 169 592 103 q 668 313 668 235 q 629 456 668 389 q 525 562 590 522 q 383 601 460 601 q 241 561 307 601 q 135 454 175 521 q 96 311 96 388 q 135 169 96 235 q 242 63 175 103 q 385 24 308 24 m 139 894 l 196 894 l 390 735 l 332 735 l 139 894 m 278 894 l 335 894 l 529 735 l 471 735 l 278 894 z "},"ä":{"ha":797,"x_min":51,"x_max":710,"o":"m 336 772 q 308 784 319 772 q 296 813 296 796 q 308 840 296 828 q 336 851 319 851 q 363 840 351 851 q 375 813 375 828 q 363 784 375 796 q 336 772 351 772 m 483 772 q 455 784 467 772 q 443 813 443 796 q 455 840 443 828 q 483 851 467 851 q 510 840 499 851 q 522 813 522 828 q 510 784 522 796 q 483 772 499 772 m 382 -15 q 217 29 293 -15 q 96 149 140 74 q 51 313 51 225 q 96 476 51 400 q 217 596 140 551 q 382 640 293 640 q 553 592 472 640 q 665 468 633 544 l 665 625 l 710 625 l 710 0 l 665 0 l 665 156 q 549 31 628 78 q 382 -15 471 -15 m 385 24 q 526 63 461 24 q 630 169 592 103 q 668 313 668 235 q 629 456 668 389 q 525 562 590 522 q 383 601 460 601 q 241 561 307 601 q 135 454 175 521 q 96 311 96 388 q 135 169 96 235 q 242 63 175 103 q 385 24 308 24 z "},"ạ":{"ha":797,"x_min":51,"x_max":710,"o":"m 382 -15 q 217 29 293 -15 q 96 149 140 74 q 51 313 51 225 q 96 476 51 400 q 217 596 140 551 q 382 640 293 640 q 553 592 472 640 q 665 468 633 544 l 665 625 l 710 625 l 710 0 l 665 0 l 665 156 q 549 31 628 78 q 382 -15 471 -15 m 385 24 q 526 63 461 24 q 630 169 592 103 q 668 313 668 235 q 629 456 668 389 q 525 562 590 522 q 383 601 460 601 q 241 561 307 601 q 135 454 175 521 q 96 311 96 388 q 135 169 96 235 q 242 63 175 103 q 385 24 308 24 m 382 -179 q 348 -165 363 -179 q 333 -131 333 -151 q 348 -97 333 -111 q 382 -83 363 -83 q 416 -97 401 -83 q 431 -131 431 -111 q 416 -165 431 -151 q 382 -179 401 -179 z "},"à":{"ha":797,"x_min":51,"x_max":710,"o":"m 382 -15 q 217 29 293 -15 q 96 149 140 74 q 51 313 51 225 q 96 476 51 400 q 217 596 140 551 q 382 640 293 640 q 553 592 472 640 q 665 468 633 544 l 665 625 l 710 625 l 710 0 l 665 0 l 665 156 q 549 31 628 78 q 382 -15 471 -15 m 385 24 q 526 63 461 24 q 630 169 592 103 q 668 313 668 235 q 629 456 668 389 q 525 562 590 522 q 383 601 460 601 q 241 561 307 601 q 135 454 175 521 q 96 311 96 388 q 135 169 96 235 q 242 63 175 103 q 385 24 308 24 m 168 894 l 225 894 l 419 735 l 361 735 l 168 894 z "},"ả":{"ha":797,"x_min":51,"x_max":710,"o":"m 382 -15 q 217 29 293 -15 q 96 149 140 74 q 51 313 51 225 q 96 476 51 400 q 217 596 140 551 q 382 640 293 640 q 553 592 472 640 q 665 468 633 544 l 665 625 l 710 625 l 710 0 l 665 0 l 665 156 q 549 31 628 78 q 382 -15 471 -15 m 385 24 q 526 63 461 24 q 630 169 592 103 q 668 313 668 235 q 629 456 668 389 q 525 562 590 522 q 383 601 460 601 q 241 561 307 601 q 135 454 175 521 q 96 311 96 388 q 135 169 96 235 q 242 63 175 103 q 385 24 308 24 m 382 768 q 489 828 489 768 q 468 868 489 853 q 407 883 447 883 q 344 864 368 883 q 321 811 321 844 l 276 811 q 313 894 276 864 q 408 924 349 924 q 500 894 467 924 q 533 822 533 865 q 506 765 533 785 q 426 742 479 744 l 426 706 l 382 706 l 382 768 z "},"ȃ":{"ha":797,"x_min":51,"x_max":710,"o":"m 382 -15 q 217 29 293 -15 q 96 149 140 74 q 51 313 51 225 q 96 476 51 400 q 217 596 140 551 q 382 640 293 640 q 553 592 472 640 q 665 468 633 544 l 665 625 l 710 625 l 710 0 l 665 0 l 665 156 q 549 31 628 78 q 382 -15 471 -15 m 385 24 q 526 63 461 24 q 630 169 592 103 q 668 313 668 235 q 629 456 668 389 q 525 562 590 522 q 383 601 460 601 q 241 561 307 601 q 135 454 175 521 q 96 311 96 388 q 135 169 96 235 q 242 63 175 103 q 385 24 308 24 m 408 894 q 535 849 489 894 q 582 733 582 803 l 538 733 q 504 822 538 788 q 408 856 471 856 q 313 822 346 856 q 279 733 279 788 l 235 733 q 281 849 235 803 q 408 894 328 894 z "},"ā":{"ha":797,"x_min":51,"x_max":710,"o":"m 382 -15 q 217 29 293 -15 q 96 149 140 74 q 51 313 51 225 q 96 476 51 400 q 217 596 140 551 q 382 640 293 640 q 553 592 472 640 q 665 468 633 544 l 665 625 l 710 625 l 710 0 l 665 0 l 665 156 q 549 31 628 78 q 382 -15 471 -15 m 385 24 q 526 63 461 24 q 630 169 592 103 q 668 313 668 235 q 629 456 668 389 q 525 562 590 522 q 383 601 460 601 q 241 561 307 601 q 135 454 175 521 q 96 311 96 388 q 135 169 96 235 q 242 63 175 103 q 385 24 308 24 m 215 825 l 600 825 l 600 786 l 215 786 l 215 825 z "},"ą":{"ha":794,"x_min":51,"x_max":710,"o":"m 603 -151 q 586 -194 586 -175 q 603 -228 586 -215 q 650 -242 621 -242 l 710 -242 l 710 -278 l 647 -278 q 574 -255 601 -278 q 546 -197 546 -232 q 568 -136 546 -167 l 665 0 l 665 156 q 549 31 628 78 q 382 -15 471 -15 q 217 29 293 -15 q 96 149 140 74 q 51 313 51 225 q 96 476 51 400 q 217 596 140 551 q 382 640 293 640 q 553 592 472 640 q 665 468 633 544 l 665 625 l 710 625 l 710 0 l 603 -151 m 385 24 q 526 63 461 24 q 630 169 592 103 q 668 313 668 235 q 629 456 668 389 q 525 562 590 522 q 383 601 460 601 q 241 561 307 601 q 135 454 175 521 q 96 311 96 388 q 135 169 96 235 q 242 63 175 103 q 385 24 308 24 z "},"å":{"ha":797,"x_min":51,"x_max":710,"o":"m 382 -15 q 217 29 293 -15 q 96 149 140 74 q 51 313 51 225 q 96 476 51 400 q 217 596 140 551 q 382 640 293 640 q 553 592 472 640 q 665 468 633 544 l 665 625 l 710 625 l 710 0 l 665 0 l 665 156 q 549 31 628 78 q 382 -15 471 -15 m 385 24 q 526 63 461 24 q 630 169 592 103 q 668 313 668 235 q 629 456 668 389 q 525 562 590 522 q 383 601 460 601 q 241 561 307 601 q 135 454 175 521 q 96 311 96 388 q 135 169 96 235 q 242 63 175 103 q 385 24 308 24 m 404 711 q 333 742 363 711 q 303 817 303 774 q 334 889 303 858 q 408 919 365 919 q 482 889 451 919 q 513 817 513 858 q 482 742 513 774 q 410 711 451 711 l 404 711 m 408 744 q 456 765 436 744 q 476 815 476 786 q 456 865 476 844 q 408 886 436 886 q 358 865 379 886 q 338 815 338 843 q 358 766 338 788 q 408 744 379 744 z "},"ǻ":{"ha":797,"x_min":51,"x_max":710,"o":"m 382 -15 q 217 29 293 -15 q 96 149 140 74 q 51 313 51 225 q 96 476 51 400 q 217 596 140 551 q 382 640 293 640 q 553 592 472 640 q 665 468 633 544 l 665 625 l 710 625 l 710 0 l 665 0 l 665 156 q 549 31 628 78 q 382 -15 471 -15 m 385 24 q 526 63 461 24 q 630 169 592 103 q 668 313 668 235 q 629 456 668 389 q 525 562 590 522 q 383 601 460 601 q 241 561 307 601 q 135 454 175 521 q 96 311 96 388 q 135 169 96 235 q 242 63 175 103 q 385 24 308 24 m 404 711 q 333 742 363 711 q 303 817 303 774 q 334 889 303 858 q 408 919 365 919 q 482 889 451 919 q 513 817 513 858 q 482 742 513 774 q 410 711 451 711 l 404 711 m 408 744 q 456 765 436 744 q 476 815 476 786 q 456 865 476 844 q 408 886 436 886 q 358 865 379 886 q 338 815 338 843 q 358 766 338 788 q 408 744 379 744 m 517 1108 l 568 1108 l 431 949 l 378 949 l 517 1108 z "},"ã":{"ha":797,"x_min":51,"x_max":710,"o":"m 382 -15 q 217 29 293 -15 q 96 149 140 74 q 51 313 51 225 q 96 476 51 400 q 217 596 140 551 q 382 640 293 640 q 553 592 472 640 q 665 468 633 544 l 665 625 l 710 625 l 710 0 l 665 0 l 665 156 q 549 31 628 78 q 382 -15 471 -15 m 385 24 q 526 63 461 24 q 630 169 592 103 q 668 313 668 235 q 629 456 668 389 q 525 562 590 522 q 383 601 460 601 q 241 561 307 601 q 135 454 175 521 q 96 311 96 388 q 135 169 96 235 q 242 63 175 103 q 385 24 308 24 m 531 733 q 460 751 486 733 q 406 803 433 769 q 367 842 385 829 q 322 856 349 856 q 253 825 279 856 q 228 747 228 794 l 183 747 q 222 853 183 811 q 321 894 260 894 q 387 876 361 894 q 439 826 413 858 q 482 785 464 799 q 526 772 500 772 q 583 799 563 772 q 604 881 604 826 l 649 881 q 615 772 649 810 q 531 733 581 733 z "},"æ":{"ha":1300,"x_min":51,"x_max":1249,"o":"m 986 22 q 1138 55 1078 22 q 1244 163 1197 88 l 1244 92 q 1006 -17 1147 -17 l 993 -17 q 829 33 906 -17 q 710 161 753 82 l 710 0 l 665 0 l 665 156 q 549 31 628 78 q 382 -15 471 -15 q 217 29 293 -15 q 96 149 140 74 q 51 313 51 225 q 94 482 51 407 q 213 599 138 557 q 382 640 289 640 q 574 585 497 640 q 690 426 651 529 q 806 580 724 521 q 1003 639 889 639 q 1249 525 1147 639 l 813 94 q 986 22 901 22 m 385 24 q 526 63 461 24 q 630 169 592 103 q 668 313 668 235 q 635 458 668 392 q 537 563 601 524 q 383 601 472 601 q 233 565 299 601 q 132 462 168 528 q 96 311 96 396 q 135 169 96 235 q 242 63 175 103 q 385 24 308 24 m 710 318 q 786 121 710 203 l 1190 522 q 992 600 1104 600 q 857 560 922 600 q 751 456 792 521 q 710 318 710 390 z "},"ǽ":{"ha":1300,"x_min":51,"x_max":1249,"o":"m 986 22 q 1138 55 1078 22 q 1244 163 1197 88 l 1244 92 q 1006 -17 1147 -17 l 993 -17 q 829 33 906 -17 q 710 161 753 82 l 710 0 l 665 0 l 665 156 q 549 31 628 78 q 382 -15 471 -15 q 217 29 293 -15 q 96 149 140 74 q 51 313 51 225 q 94 482 51 407 q 213 599 138 557 q 382 640 289 640 q 574 585 497 640 q 690 426 651 529 q 806 580 724 521 q 1003 639 889 639 q 1249 525 1147 639 l 813 94 q 986 22 901 22 m 385 24 q 526 63 461 24 q 630 169 592 103 q 668 313 668 235 q 635 458 668 392 q 537 563 601 524 q 383 601 472 601 q 233 565 299 601 q 132 462 168 528 q 96 311 96 396 q 135 169 96 235 q 242 63 175 103 q 385 24 308 24 m 710 318 q 786 121 710 203 l 1190 522 q 992 600 1104 600 q 857 560 922 600 q 751 456 792 521 q 710 318 710 390 m 792 894 l 849 894 l 656 735 l 597 735 l 792 894 z "},"b":{"ha":797,"x_min":88,"x_max":746,"o":"m 415 -15 q 252 31 331 -15 q 132 151 174 76 l 132 0 l 88 0 l 88 1042 l 132 1042 l 132 467 q 249 593 169 546 q 415 640 328 640 q 581 596 506 640 q 701 476 657 551 q 746 313 746 401 q 701 149 746 224 q 581 29 657 74 q 415 -15 506 -15 m 418 24 q 560 63 494 24 q 663 169 625 103 q 701 313 701 235 q 663 456 701 389 q 558 562 624 522 q 417 601 493 601 q 274 561 340 601 q 169 454 208 521 q 129 311 129 388 q 169 169 129 235 q 275 63 208 103 q 418 24 342 24 z "},"c":{"ha":665,"x_min":51,"x_max":629,"o":"m 382 -18 q 216 25 292 -18 q 96 143 140 68 q 51 313 51 218 q 96 474 51 400 q 217 593 140 549 q 388 638 294 638 q 521 613 465 638 q 629 535 576 588 l 629 460 q 527 563 583 528 q 388 599 471 599 q 244 559 311 599 q 136 453 176 519 q 96 310 96 386 q 135 160 96 226 q 240 58 174 94 q 382 21 306 21 q 629 161 538 21 l 629 86 q 519 8 579 33 q 382 -18 458 -18 z "},"ć":{"ha":665,"x_min":51,"x_max":629,"o":"m 382 -18 q 216 25 292 -18 q 96 143 140 68 q 51 313 51 218 q 96 474 51 400 q 217 593 140 549 q 388 638 294 638 q 521 613 465 638 q 629 535 576 588 l 629 460 q 527 563 583 528 q 388 599 471 599 q 244 559 311 599 q 136 453 176 519 q 96 310 96 386 q 135 160 96 226 q 240 58 174 94 q 382 21 306 21 q 629 161 538 21 l 629 86 q 519 8 579 33 q 382 -18 458 -18 m 531 894 l 588 894 l 394 735 l 336 735 l 531 894 z "},"č":{"ha":665,"x_min":51,"x_max":629,"o":"m 382 -18 q 216 25 292 -18 q 96 143 140 68 q 51 313 51 218 q 96 474 51 400 q 217 593 140 549 q 388 638 294 638 q 521 613 465 638 q 629 535 576 588 l 629 460 q 527 563 583 528 q 388 599 471 599 q 244 559 311 599 q 136 453 176 519 q 96 310 96 386 q 135 160 96 226 q 240 58 174 94 q 382 21 306 21 q 629 161 538 21 l 629 86 q 519 8 579 33 q 382 -18 458 -18 m 183 894 l 242 894 l 389 768 l 538 894 l 594 894 l 411 735 l 369 735 l 183 894 z "},"ç":{"ha":665,"x_min":51,"x_max":629,"o":"m 388 599 q 244 559 311 599 q 136 453 176 519 q 96 310 96 386 q 135 160 96 226 q 240 58 174 94 q 382 21 306 21 q 629 161 538 21 l 629 86 q 519 8 579 33 q 382 -18 458 -18 l 382 -54 l 386 -54 q 486 -139 486 -54 q 460 -212 488 -186 q 388 -239 433 -239 l 338 -239 l 338 -200 l 388 -200 q 428 -185 414 -200 q 443 -144 443 -169 q 388 -94 443 -94 l 339 -94 l 338 -15 q 192 40 257 -6 q 89 156 126 85 q 51 313 51 226 q 96 474 51 400 q 217 593 140 549 q 388 638 294 638 q 521 613 465 638 q 629 535 576 588 l 629 460 q 527 563 583 528 q 388 599 471 599 z "},"ĉ":{"ha":665,"x_min":51,"x_max":629,"o":"m 382 -18 q 216 25 292 -18 q 96 143 140 68 q 51 313 51 218 q 96 474 51 400 q 217 593 140 549 q 388 638 294 638 q 521 613 465 638 q 629 535 576 588 l 629 460 q 527 563 583 528 q 388 599 471 599 q 244 559 311 599 q 136 453 176 519 q 96 310 96 386 q 135 160 96 226 q 240 58 174 94 q 382 21 306 21 q 629 161 538 21 l 629 86 q 519 8 579 33 q 382 -18 458 -18 m 536 735 l 390 860 l 244 735 l 183 735 l 369 894 l 411 894 l 594 735 l 536 735 z "},"ċ":{"ha":665,"x_min":51,"x_max":629,"o":"m 382 -18 q 216 25 292 -18 q 96 143 140 68 q 51 313 51 218 q 96 474 51 400 q 217 593 140 549 q 388 638 294 638 q 521 613 465 638 q 629 535 576 588 l 629 460 q 527 563 583 528 q 388 599 471 599 q 244 559 311 599 q 136 453 176 519 q 96 310 96 386 q 135 160 96 226 q 240 58 174 94 q 382 21 306 21 q 629 161 538 21 l 629 86 q 519 8 579 33 q 382 -18 458 -18 m 389 765 q 355 779 369 765 q 340 814 340 793 q 355 847 340 833 q 389 861 369 861 q 423 847 408 861 q 438 814 438 833 q 423 779 438 793 q 389 765 408 765 z "},"d":{"ha":797,"x_min":51,"x_max":710,"o":"m 382 -15 q 216 29 292 -15 q 96 149 140 74 q 51 313 51 224 q 96 476 51 401 q 216 596 140 551 q 382 640 292 640 q 549 594 469 640 q 665 472 628 547 l 665 1042 l 710 1042 l 710 0 l 665 0 l 665 151 q 545 31 624 76 q 382 -15 467 -15 m 381 24 q 523 63 457 24 q 628 169 589 103 q 668 311 668 235 q 628 454 668 388 q 523 561 589 521 q 381 601 457 601 q 239 562 304 601 q 135 456 174 522 q 96 313 96 389 q 134 169 96 235 q 238 63 172 103 q 381 24 304 24 z "},"ð":{"ha":764,"x_min":51,"x_max":713,"o":"m 518 928 q 667 719 622 850 q 713 353 713 589 l 713 313 q 669 147 713 224 q 549 24 625 69 q 379 -22 472 -22 q 209 23 283 -22 q 93 145 135 68 q 51 315 51 222 q 94 481 51 404 q 213 602 138 557 q 381 647 289 647 q 549 603 474 647 q 668 483 624 558 q 613 743 660 642 q 475 908 565 844 l 263 821 l 263 861 l 436 935 l 394 957 l 251 1018 l 251 1058 l 415 989 q 481 953 439 978 l 681 1038 l 681 994 l 518 928 m 379 17 q 526 57 460 17 q 630 165 592 97 q 668 311 668 232 q 630 458 668 390 q 526 567 592 526 q 381 608 460 608 q 236 568 301 608 q 133 460 171 528 q 96 313 96 392 q 133 165 96 232 q 235 57 169 97 q 379 17 300 17 z "},"ď":{"ha":939,"x_min":51,"x_max":869,"o":"m 382 -15 q 216 29 292 -15 q 96 149 140 74 q 51 313 51 224 q 96 476 51 401 q 216 596 140 551 q 382 640 292 640 q 549 594 469 640 q 665 472 628 547 l 665 1042 l 710 1042 l 710 0 l 665 0 l 665 151 q 545 31 624 76 q 382 -15 467 -15 m 381 24 q 523 63 457 24 q 628 169 589 103 q 668 311 668 235 q 628 454 668 388 q 523 561 589 521 q 381 601 457 601 q 239 562 304 601 q 135 456 174 522 q 96 313 96 389 q 134 169 96 235 q 238 63 172 103 q 381 24 304 24 m 810 1000 l 869 1000 l 842 751 l 810 751 l 810 1000 z "},"đ":{"ha":831,"x_min":51,"x_max":803,"o":"m 382 -15 q 216 29 292 -15 q 96 149 140 74 q 51 313 51 224 q 96 476 51 401 q 216 596 140 551 q 382 640 292 640 q 549 594 469 640 q 665 472 628 547 l 665 786 l 364 786 l 364 826 l 665 826 l 665 1042 l 710 1042 l 710 826 l 803 826 l 803 786 l 710 786 l 710 0 l 665 0 l 665 151 q 545 31 624 76 q 382 -15 467 -15 m 381 24 q 523 63 457 24 q 628 169 589 103 q 668 311 668 235 q 628 454 668 388 q 523 561 589 521 q 381 601 457 601 q 239 562 304 601 q 135 456 174 522 q 96 313 96 389 q 134 169 96 235 q 238 63 172 103 q 381 24 304 24 z "},"ǆ":{"ha":1304,"x_min":51,"x_max":1268,"o":"m 382 -15 q 216 29 292 -15 q 96 149 140 74 q 51 313 51 224 q 96 476 51 401 q 216 596 140 551 q 382 640 292 640 q 549 594 469 640 q 665 472 628 547 l 665 1042 l 710 1042 l 710 0 l 665 0 l 665 151 q 545 31 624 76 q 382 -15 467 -15 m 381 24 q 523 63 457 24 q 628 169 589 103 q 668 311 668 235 q 628 454 668 388 q 523 561 589 521 q 381 601 457 601 q 239 562 304 601 q 135 456 174 522 q 96 313 96 389 q 134 169 96 235 q 238 63 172 103 q 381 24 304 24 m 1189 586 l 871 586 l 871 625 l 1268 625 l 911 39 l 1264 39 l 1264 0 l 833 0 l 1189 586 m 846 894 l 904 894 l 1051 768 l 1200 894 l 1257 894 l 1074 735 l 1032 735 l 846 894 z "},"e":{"ha":693,"x_min":58,"x_max":642,"o":"m 392 22 q 529 60 464 22 q 638 163 594 97 l 638 92 q 525 9 586 35 q 386 -17 464 -17 q 224 29 300 -17 q 103 151 149 75 q 58 314 58 228 q 103 481 58 407 q 224 597 147 556 q 396 639 301 639 q 642 525 540 639 l 206 94 q 294 40 251 57 q 392 22 338 22 m 103 318 q 179 121 103 203 l 586 525 q 497 583 540 565 q 394 600 454 600 q 244 563 310 600 q 140 463 178 526 q 103 318 103 399 z "},"é":{"ha":693,"x_min":58,"x_max":642,"o":"m 392 22 q 529 60 464 22 q 638 163 594 97 l 638 92 q 525 9 586 35 q 386 -17 464 -17 q 224 29 300 -17 q 103 151 149 75 q 58 314 58 228 q 103 481 58 407 q 224 597 147 556 q 396 639 301 639 q 642 525 540 639 l 206 94 q 294 40 251 57 q 392 22 338 22 m 103 318 q 179 121 103 203 l 586 525 q 497 583 540 565 q 394 600 454 600 q 244 563 310 600 q 140 463 178 526 q 103 318 103 399 m 517 894 l 574 894 l 381 735 l 322 735 l 517 894 z "},"ĕ":{"ha":693,"x_min":58,"x_max":642,"o":"m 392 22 q 529 60 464 22 q 638 163 594 97 l 638 92 q 525 9 586 35 q 386 -17 464 -17 q 224 29 300 -17 q 103 151 149 75 q 58 314 58 228 q 103 481 58 407 q 224 597 147 556 q 396 639 301 639 q 642 525 540 639 l 206 94 q 294 40 251 57 q 392 22 338 22 m 103 318 q 179 121 103 203 l 586 525 q 497 583 540 565 q 394 600 454 600 q 244 563 310 600 q 140 463 178 526 q 103 318 103 399 m 374 733 q 247 779 293 733 q 200 894 200 825 l 244 894 q 278 806 244 840 q 374 772 311 772 q 469 806 436 772 q 503 894 503 840 l 547 894 q 501 779 547 825 q 374 733 454 733 z "},"ě":{"ha":693,"x_min":58,"x_max":642,"o":"m 392 22 q 529 60 464 22 q 638 163 594 97 l 638 92 q 525 9 586 35 q 386 -17 464 -17 q 224 29 300 -17 q 103 151 149 75 q 58 314 58 228 q 103 481 58 407 q 224 597 147 556 q 396 639 301 639 q 642 525 540 639 l 206 94 q 294 40 251 57 q 392 22 338 22 m 103 318 q 179 121 103 203 l 586 525 q 497 583 540 565 q 394 600 454 600 q 244 563 310 600 q 140 463 178 526 q 103 318 103 399 m 169 894 l 228 894 l 375 768 l 524 894 l 581 894 l 397 735 l 356 735 l 169 894 z "},"ê":{"ha":693,"x_min":58,"x_max":642,"o":"m 392 22 q 529 60 464 22 q 638 163 594 97 l 638 92 q 525 9 586 35 q 386 -17 464 -17 q 224 29 300 -17 q 103 151 149 75 q 58 314 58 228 q 103 481 58 407 q 224 597 147 556 q 396 639 301 639 q 642 525 540 639 l 206 94 q 294 40 251 57 q 392 22 338 22 m 103 318 q 179 121 103 203 l 586 525 q 497 583 540 565 q 394 600 454 600 q 244 563 310 600 q 140 463 178 526 q 103 318 103 399 m 522 735 l 376 860 l 231 735 l 169 735 l 356 894 l 397 894 l 581 735 l 522 735 z "},"ế":{"ha":693,"x_min":58,"x_max":668,"o":"m 392 22 q 529 60 464 22 q 638 163 594 97 l 638 92 q 525 9 586 35 q 386 -17 464 -17 q 224 29 300 -17 q 103 151 149 75 q 58 314 58 228 q 103 481 58 407 q 224 597 147 556 q 396 639 301 639 q 642 525 540 639 l 206 94 q 294 40 251 57 q 392 22 338 22 m 103 318 q 179 121 103 203 l 586 525 q 497 583 540 565 q 394 600 454 600 q 244 563 310 600 q 140 463 178 526 q 103 318 103 399 m 529 800 l 501 829 l 617 960 l 668 960 l 529 800 m 396 894 l 551 735 l 499 735 l 375 863 l 251 735 l 196 735 l 354 894 l 396 894 z "},"ệ":{"ha":693,"x_min":58,"x_max":642,"o":"m 392 22 q 529 60 464 22 q 638 163 594 97 l 638 92 q 525 9 586 35 q 386 -17 464 -17 q 224 29 300 -17 q 103 151 149 75 q 58 314 58 228 q 103 481 58 407 q 224 597 147 556 q 396 639 301 639 q 642 525 540 639 l 206 94 q 294 40 251 57 q 392 22 338 22 m 103 318 q 179 121 103 203 l 586 525 q 497 583 540 565 q 394 600 454 600 q 244 563 310 600 q 140 463 178 526 q 103 318 103 399 m 386 -179 q 352 -165 367 -179 q 338 -131 338 -151 q 352 -97 338 -111 q 386 -83 367 -83 q 420 -97 406 -83 q 435 -131 435 -111 q 420 -165 435 -151 q 386 -179 406 -179 m 522 735 l 376 860 l 231 735 l 169 735 l 356 894 l 397 894 l 581 735 l 522 735 z "},"ề":{"ha":693,"x_min":58,"x_max":642,"o":"m 392 22 q 529 60 464 22 q 638 163 594 97 l 638 92 q 525 9 586 35 q 386 -17 464 -17 q 224 29 300 -17 q 103 151 149 75 q 58 314 58 228 q 103 481 58 407 q 224 597 147 556 q 396 639 301 639 q 642 525 540 639 l 206 94 q 294 40 251 57 q 392 22 338 22 m 103 318 q 179 121 103 203 l 586 525 q 497 583 540 565 q 394 600 454 600 q 244 563 310 600 q 140 463 178 526 q 103 318 103 399 m 224 800 l 85 960 l 136 960 l 251 829 l 224 800 m 503 735 l 379 863 l 256 735 l 200 735 l 358 894 l 400 894 l 556 735 l 503 735 z "},"ể":{"ha":693,"x_min":58,"x_max":654,"o":"m 392 22 q 529 60 464 22 q 638 163 594 97 l 638 92 q 525 9 586 35 q 386 -17 464 -17 q 224 29 300 -17 q 103 151 149 75 q 58 314 58 228 q 103 481 58 407 q 224 597 147 556 q 396 639 301 639 q 642 525 540 639 l 206 94 q 294 40 251 57 q 392 22 338 22 m 103 318 q 179 121 103 203 l 586 525 q 497 583 540 565 q 394 600 454 600 q 244 563 310 600 q 140 463 178 526 q 103 318 103 399 m 543 1051 q 625 1022 596 1051 q 654 950 654 993 q 561 869 654 874 l 561 833 l 517 833 l 517 896 q 610 956 610 896 q 592 996 610 981 q 542 1011 575 1011 q 490 992 510 1011 q 469 939 469 972 l 425 939 q 458 1022 425 992 q 543 1051 490 1051 m 397 894 l 553 735 l 499 735 l 375 863 l 253 735 l 197 735 l 356 894 l 397 894 z "},"ễ":{"ha":693,"x_min":58,"x_max":642,"o":"m 392 22 q 529 60 464 22 q 638 163 594 97 l 638 92 q 525 9 586 35 q 386 -17 464 -17 q 224 29 300 -17 q 103 151 149 75 q 58 314 58 228 q 103 481 58 407 q 224 597 147 556 q 396 639 301 639 q 642 525 540 639 l 206 94 q 294 40 251 57 q 392 22 338 22 m 103 318 q 179 121 103 203 l 586 525 q 497 583 540 565 q 394 600 454 600 q 244 563 310 600 q 140 463 178 526 q 103 318 103 399 m 500 735 l 376 863 l 253 735 l 197 735 l 356 894 l 397 894 l 553 735 l 500 735 m 201 910 q 231 994 201 964 q 304 1025 260 1025 q 355 1015 335 1025 q 400 983 375 1004 q 431 960 418 968 q 461 953 444 953 q 511 1019 511 953 l 556 1019 q 531 940 556 965 q 460 914 506 914 q 415 924 433 914 q 372 954 397 933 q 340 978 353 971 q 308 986 326 986 q 263 965 279 986 q 246 910 246 943 l 201 910 z "},"ȅ":{"ha":693,"x_min":58,"x_max":642,"o":"m 392 22 q 529 60 464 22 q 638 163 594 97 l 638 92 q 525 9 586 35 q 386 -17 464 -17 q 224 29 300 -17 q 103 151 149 75 q 58 314 58 228 q 103 481 58 407 q 224 597 147 556 q 396 639 301 639 q 642 525 540 639 l 206 94 q 294 40 251 57 q 392 22 338 22 m 103 318 q 179 121 103 203 l 586 525 q 497 583 540 565 q 394 600 454 600 q 244 563 310 600 q 140 463 178 526 q 103 318 103 399 m 106 894 l 163 894 l 357 735 l 299 735 l 106 894 m 244 894 l 301 894 l 496 735 l 438 735 l 244 894 z "},"ë":{"ha":693,"x_min":58,"x_max":642,"o":"m 303 772 q 274 784 286 772 q 263 813 263 796 q 274 840 263 828 q 303 851 286 851 q 330 840 318 851 q 342 813 342 828 q 330 784 342 796 q 303 772 318 772 m 450 772 q 422 784 433 772 q 410 813 410 796 q 422 840 410 828 q 450 851 433 851 q 477 840 465 851 q 489 813 489 828 q 477 784 489 796 q 450 772 465 772 m 392 22 q 529 60 464 22 q 638 163 594 97 l 638 92 q 525 9 586 35 q 386 -17 464 -17 q 224 29 300 -17 q 103 151 149 75 q 58 314 58 228 q 103 481 58 407 q 224 597 147 556 q 396 639 301 639 q 642 525 540 639 l 206 94 q 294 40 251 57 q 392 22 338 22 m 103 318 q 179 121 103 203 l 586 525 q 497 583 540 565 q 394 600 454 600 q 244 563 310 600 q 140 463 178 526 q 103 318 103 399 z "},"ė":{"ha":693,"x_min":58,"x_max":642,"o":"m 392 22 q 529 60 464 22 q 638 163 594 97 l 638 92 q 525 9 586 35 q 386 -17 464 -17 q 224 29 300 -17 q 103 151 149 75 q 58 314 58 228 q 103 481 58 407 q 224 597 147 556 q 396 639 301 639 q 642 525 540 639 l 206 94 q 294 40 251 57 q 392 22 338 22 m 103 318 q 179 121 103 203 l 586 525 q 497 583 540 565 q 394 600 454 600 q 244 563 310 600 q 140 463 178 526 q 103 318 103 399 m 375 765 q 341 779 356 765 q 326 814 326 793 q 341 847 326 833 q 375 861 356 861 q 409 847 394 861 q 424 814 424 833 q 409 779 424 793 q 375 765 394 765 z "},"ẹ":{"ha":693,"x_min":58,"x_max":642,"o":"m 392 22 q 529 60 464 22 q 638 163 594 97 l 638 92 q 525 9 586 35 q 386 -17 464 -17 q 224 29 300 -17 q 103 151 149 75 q 58 314 58 228 q 103 481 58 407 q 224 597 147 556 q 396 639 301 639 q 642 525 540 639 l 206 94 q 294 40 251 57 q 392 22 338 22 m 103 318 q 179 121 103 203 l 586 525 q 497 583 540 565 q 394 600 454 600 q 244 563 310 600 q 140 463 178 526 q 103 318 103 399 m 386 -179 q 352 -165 367 -179 q 338 -131 338 -151 q 352 -97 338 -111 q 386 -83 367 -83 q 420 -97 406 -83 q 435 -131 435 -111 q 420 -165 435 -151 q 386 -179 406 -179 z "},"è":{"ha":693,"x_min":58,"x_max":642,"o":"m 392 22 q 529 60 464 22 q 638 163 594 97 l 638 92 q 525 9 586 35 q 386 -17 464 -17 q 224 29 300 -17 q 103 151 149 75 q 58 314 58 228 q 103 481 58 407 q 224 597 147 556 q 396 639 301 639 q 642 525 540 639 l 206 94 q 294 40 251 57 q 392 22 338 22 m 103 318 q 179 121 103 203 l 586 525 q 497 583 540 565 q 394 600 454 600 q 244 563 310 600 q 140 463 178 526 q 103 318 103 399 m 135 894 l 192 894 l 386 735 l 328 735 l 135 894 z "},"ẻ":{"ha":693,"x_min":58,"x_max":642,"o":"m 392 22 q 529 60 464 22 q 638 163 594 97 l 638 92 q 525 9 586 35 q 386 -17 464 -17 q 224 29 300 -17 q 103 151 149 75 q 58 314 58 228 q 103 481 58 407 q 224 597 147 556 q 396 639 301 639 q 642 525 540 639 l 206 94 q 294 40 251 57 q 392 22 338 22 m 103 318 q 179 121 103 203 l 586 525 q 497 583 540 565 q 394 600 454 600 q 244 563 310 600 q 140 463 178 526 q 103 318 103 399 m 349 768 q 456 828 456 768 q 435 868 456 853 q 374 883 414 883 q 311 864 335 883 q 288 811 288 844 l 243 811 q 279 894 243 864 q 375 924 315 924 q 467 894 433 924 q 500 822 500 865 q 473 765 500 785 q 393 742 446 744 l 393 706 l 349 706 l 349 768 z "},"ȇ":{"ha":693,"x_min":58,"x_max":642,"o":"m 392 22 q 529 60 464 22 q 638 163 594 97 l 638 92 q 525 9 586 35 q 386 -17 464 -17 q 224 29 300 -17 q 103 151 149 75 q 58 314 58 228 q 103 481 58 407 q 224 597 147 556 q 396 639 301 639 q 642 525 540 639 l 206 94 q 294 40 251 57 q 392 22 338 22 m 103 318 q 179 121 103 203 l 586 525 q 497 583 540 565 q 394 600 454 600 q 244 563 310 600 q 140 463 178 526 q 103 318 103 399 m 375 894 q 502 849 456 894 q 549 733 549 803 l 504 733 q 471 822 504 788 q 375 856 438 856 q 279 822 313 856 q 246 733 246 788 l 201 733 q 248 849 201 803 q 375 894 294 894 z "},"ē":{"ha":693,"x_min":58,"x_max":642,"o":"m 392 22 q 529 60 464 22 q 638 163 594 97 l 638 92 q 525 9 586 35 q 386 -17 464 -17 q 224 29 300 -17 q 103 151 149 75 q 58 314 58 228 q 103 481 58 407 q 224 597 147 556 q 396 639 301 639 q 642 525 540 639 l 206 94 q 294 40 251 57 q 392 22 338 22 m 103 318 q 179 121 103 203 l 586 525 q 497 583 540 565 q 394 600 454 600 q 244 563 310 600 q 140 463 178 526 q 103 318 103 399 m 182 825 l 567 825 l 567 786 l 182 786 l 182 825 z "},"ę":{"ha":693,"x_min":58,"x_max":642,"o":"m 392 22 q 529 60 464 22 q 638 163 594 97 l 638 92 q 533 13 593 42 l 428 -137 q 411 -181 411 -161 q 428 -215 411 -201 q 475 -228 446 -228 l 535 -228 l 535 -264 l 472 -264 q 399 -241 426 -264 q 371 -183 371 -218 q 393 -122 371 -153 l 475 -7 q 386 -17 436 -17 q 224 29 300 -17 q 103 151 149 75 q 58 314 58 228 q 103 481 58 407 q 224 597 147 556 q 396 639 301 639 q 642 525 540 639 l 206 94 q 294 40 251 57 q 392 22 338 22 m 103 318 q 179 121 103 203 l 586 525 q 497 583 540 565 q 394 600 454 600 q 244 563 310 600 q 140 463 178 526 q 103 318 103 399 z "},"ẽ":{"ha":693,"x_min":58,"x_max":642,"o":"m 392 22 q 529 60 464 22 q 638 163 594 97 l 638 92 q 525 9 586 35 q 386 -17 464 -17 q 224 29 300 -17 q 103 151 149 75 q 58 314 58 228 q 103 481 58 407 q 224 597 147 556 q 396 639 301 639 q 642 525 540 639 l 206 94 q 294 40 251 57 q 392 22 338 22 m 103 318 q 179 121 103 203 l 586 525 q 497 583 540 565 q 394 600 454 600 q 244 563 310 600 q 140 463 178 526 q 103 318 103 399 m 190 729 q 219 814 190 783 q 293 844 249 844 q 344 834 324 844 q 389 803 364 824 q 420 780 407 788 q 450 772 433 772 q 500 839 500 772 l 544 839 q 519 759 544 785 q 449 733 494 733 q 404 743 422 733 q 361 774 386 753 q 328 798 342 790 q 297 806 315 806 q 251 784 268 806 q 235 729 235 763 l 190 729 z "},"ə":{"ha":693,"x_min":51,"x_max":635,"o":"m 307 642 q 469 596 393 642 q 590 474 544 550 q 635 311 635 397 q 590 144 635 218 q 469 28 546 69 q 297 -14 392 -14 q 51 100 153 -14 l 488 531 q 399 585 442 568 q 301 603 356 603 q 164 565 229 603 q 56 463 99 528 l 56 533 q 168 616 107 590 q 307 642 229 642 m 299 25 q 449 62 383 25 q 553 163 515 99 q 590 307 590 226 q 514 504 590 422 l 107 100 q 196 42 153 60 q 299 25 239 25 z "},"f":{"ha":356,"x_min":88,"x_max":325,"o":"m 325 847 q 228 822 272 847 q 158 751 183 796 q 132 651 132 706 l 132 625 l 325 625 l 325 586 l 132 586 l 132 0 l 88 0 l 88 651 q 119 770 88 717 q 205 855 150 824 q 325 886 260 886 l 325 847 z "},"g":{"ha":799,"x_min":51,"x_max":711,"o":"m 389 -289 q 235 -253 310 -289 q 118 -158 160 -217 l 118 -94 q 231 -206 154 -161 q 389 -250 308 -250 q 594 -172 522 -250 q 667 58 667 -93 l 667 151 q 549 30 629 76 q 382 -17 469 -17 q 217 28 293 -17 q 96 148 140 72 q 51 311 51 224 q 96 474 51 399 q 217 594 140 550 q 382 639 293 639 q 551 593 474 639 q 667 469 629 547 l 667 625 l 711 625 l 711 58 q 628 -201 711 -112 q 389 -289 546 -289 m 385 22 q 526 62 461 22 q 630 167 592 101 q 668 311 668 233 q 630 455 668 389 q 526 560 592 521 q 385 600 461 600 q 241 560 307 600 q 135 455 175 521 q 96 311 96 389 q 135 167 96 233 q 241 62 175 101 q 385 22 307 22 z "},"ğ":{"ha":799,"x_min":51,"x_max":711,"o":"m 389 -289 q 235 -253 310 -289 q 118 -158 160 -217 l 118 -94 q 231 -206 154 -161 q 389 -250 308 -250 q 594 -172 522 -250 q 667 58 667 -93 l 667 151 q 549 30 629 76 q 382 -17 469 -17 q 217 28 293 -17 q 96 148 140 72 q 51 311 51 224 q 96 474 51 399 q 217 594 140 550 q 382 639 293 639 q 551 593 474 639 q 667 469 629 547 l 667 625 l 711 625 l 711 58 q 628 -201 711 -112 q 389 -289 546 -289 m 385 22 q 526 62 461 22 q 630 167 592 101 q 668 311 668 233 q 630 455 668 389 q 526 560 592 521 q 385 600 461 600 q 241 560 307 600 q 135 455 175 521 q 96 311 96 389 q 135 167 96 233 q 241 62 175 101 q 385 22 307 22 m 397 733 q 270 779 317 733 q 224 894 224 825 l 268 894 q 301 806 268 840 q 397 772 335 772 q 493 806 460 772 q 526 894 526 840 l 571 894 q 524 779 571 825 q 397 733 478 733 z "},"ǧ":{"ha":799,"x_min":51,"x_max":711,"o":"m 389 -289 q 235 -253 310 -289 q 118 -158 160 -217 l 118 -94 q 231 -206 154 -161 q 389 -250 308 -250 q 594 -172 522 -250 q 667 58 667 -93 l 667 151 q 549 30 629 76 q 382 -17 469 -17 q 217 28 293 -17 q 96 148 140 72 q 51 311 51 224 q 96 474 51 399 q 217 594 140 550 q 382 639 293 639 q 551 593 474 639 q 667 469 629 547 l 667 625 l 711 625 l 711 58 q 628 -201 711 -112 q 389 -289 546 -289 m 385 22 q 526 62 461 22 q 630 167 592 101 q 668 311 668 233 q 630 455 668 389 q 526 560 592 521 q 385 600 461 600 q 241 560 307 600 q 135 455 175 521 q 96 311 96 389 q 135 167 96 233 q 241 62 175 101 q 385 22 307 22 m 193 894 l 251 894 l 399 768 l 547 894 l 604 894 l 421 735 l 379 735 l 193 894 z "},"ĝ":{"ha":799,"x_min":51,"x_max":711,"o":"m 389 -289 q 235 -253 310 -289 q 118 -158 160 -217 l 118 -94 q 231 -206 154 -161 q 389 -250 308 -250 q 594 -172 522 -250 q 667 58 667 -93 l 667 151 q 549 30 629 76 q 382 -17 469 -17 q 217 28 293 -17 q 96 148 140 72 q 51 311 51 224 q 96 474 51 399 q 217 594 140 550 q 382 639 293 639 q 551 593 474 639 q 667 469 629 547 l 667 625 l 711 625 l 711 58 q 628 -201 711 -112 q 389 -289 546 -289 m 385 22 q 526 62 461 22 q 630 167 592 101 q 668 311 668 233 q 630 455 668 389 q 526 560 592 521 q 385 600 461 600 q 241 560 307 600 q 135 455 175 521 q 96 311 96 389 q 135 167 96 233 q 241 62 175 101 q 385 22 307 22 m 546 735 l 400 860 l 254 735 l 193 735 l 379 894 l 421 894 l 604 735 l 546 735 z "},"ģ":{"ha":799,"x_min":51,"x_max":711,"o":"m 389 -289 q 235 -253 310 -289 q 118 -158 160 -217 l 118 -94 q 231 -206 154 -161 q 389 -250 308 -250 q 594 -172 522 -250 q 667 58 667 -93 l 667 151 q 549 30 629 76 q 382 -17 469 -17 q 217 28 293 -17 q 96 148 140 72 q 51 311 51 224 q 96 474 51 399 q 217 594 140 550 q 382 639 293 639 q 551 593 474 639 q 667 469 629 547 l 667 625 l 711 625 l 711 58 q 628 -201 711 -112 q 389 -289 546 -289 m 385 22 q 526 62 461 22 q 630 167 592 101 q 668 311 668 233 q 630 455 668 389 q 526 560 592 521 q 385 600 461 600 q 241 560 307 600 q 135 455 175 521 q 96 311 96 389 q 135 167 96 233 q 241 62 175 101 q 385 22 307 22 m 371 800 q 405 913 371 867 q 503 976 439 958 l 503 933 q 436 885 457 921 q 415 800 415 849 l 415 735 l 371 735 l 371 800 z "},"ġ":{"ha":799,"x_min":51,"x_max":711,"o":"m 389 -289 q 235 -253 310 -289 q 118 -158 160 -217 l 118 -94 q 231 -206 154 -161 q 389 -250 308 -250 q 594 -172 522 -250 q 667 58 667 -93 l 667 151 q 549 30 629 76 q 382 -17 469 -17 q 217 28 293 -17 q 96 148 140 72 q 51 311 51 224 q 96 474 51 399 q 217 594 140 550 q 382 639 293 639 q 551 593 474 639 q 667 469 629 547 l 667 625 l 711 625 l 711 58 q 628 -201 711 -112 q 389 -289 546 -289 m 385 22 q 526 62 461 22 q 630 167 592 101 q 668 311 668 233 q 630 455 668 389 q 526 560 592 521 q 385 600 461 600 q 241 560 307 600 q 135 455 175 521 q 96 311 96 389 q 135 167 96 233 q 241 62 175 101 q 385 22 307 22 m 399 765 q 365 779 379 765 q 350 814 350 793 q 365 847 350 833 q 399 861 379 861 q 433 847 418 861 q 447 814 447 833 q 433 779 447 793 q 399 765 418 765 z "},"h":{"ha":736,"x_min":88,"x_max":649,"o":"m 88 1042 l 132 1042 l 132 496 q 231 599 161 558 q 374 640 301 640 q 577 568 506 640 q 649 364 649 496 l 649 0 l 604 0 l 604 364 q 544 540 604 478 q 374 601 483 601 q 251 570 307 601 q 164 484 196 539 q 132 364 132 429 l 132 0 l 88 0 l 88 1042 z "},"ħ":{"ha":781,"x_min":0,"x_max":697,"o":"m 422 640 q 626 568 554 640 q 697 364 697 496 l 697 0 l 653 0 l 653 364 q 592 540 653 478 q 422 601 532 601 q 300 570 356 601 q 213 484 244 539 q 181 364 181 429 l 181 0 l 136 0 l 136 808 l 0 808 l 0 847 l 136 847 l 136 1042 l 181 1042 l 181 847 l 369 847 l 369 808 l 181 808 l 181 496 q 280 599 210 558 q 422 640 350 640 z "},"ĥ":{"ha":736,"x_min":24,"x_max":649,"o":"m 88 1042 l 132 1042 l 132 496 q 231 599 161 558 q 374 640 301 640 q 577 568 506 640 q 649 364 649 496 l 649 0 l 604 0 l 604 364 q 544 540 604 478 q 374 601 483 601 q 251 570 307 601 q 164 484 196 539 q 132 364 132 429 l 132 0 l 88 0 l 88 1042 m 376 1151 l 231 1276 l 85 1151 l 24 1151 l 210 1311 l 251 1311 l 435 1151 l 376 1151 z "},"i":{"ha":283,"x_min":93,"x_max":190,"o":"m 142 768 q 108 782 122 768 q 93 817 93 796 q 108 850 93 836 q 142 864 122 864 q 176 850 161 864 q 190 817 190 836 q 176 782 190 796 q 142 768 161 768 m 119 625 l 164 625 l 164 0 l 119 0 l 119 625 z "},"ı":{"ha":258,"x_min":107,"x_max":151,"o":"m 107 625 l 151 625 l 151 0 l 107 0 l 107 625 z "},"í":{"ha":281,"x_min":99,"x_max":281,"o":"m 224 894 l 281 894 l 157 735 l 99 735 l 224 894 m 111 625 l 156 625 l 156 0 l 111 0 l 111 625 z "},"ĭ":{"ha":258,"x_min":-6,"x_max":272,"o":"m 107 625 l 151 625 l 151 0 l 107 0 l 107 625 m 133 747 q 31 785 67 747 q -6 894 -6 822 l 39 894 q 133 786 39 786 q 228 894 228 786 l 272 894 q 236 785 272 822 q 133 747 200 747 z "},"î":{"ha":258,"x_min":-49,"x_max":307,"o":"m 107 625 l 151 625 l 151 0 l 107 0 l 107 625 m 254 735 l 131 863 l 7 735 l -49 735 l 110 894 l 151 894 l 307 735 l 254 735 z "},"ȉ":{"ha":258,"x_min":-86,"x_max":250,"o":"m 107 625 l 151 625 l 151 0 l 107 0 l 107 625 m -86 894 l -42 894 l 111 735 l 65 735 l -86 894 m 53 894 l 97 894 l 250 735 l 204 735 l 53 894 z "},"ï":{"ha":258,"x_min":17,"x_max":243,"o":"m 57 772 q 28 784 40 772 q 17 813 17 796 q 28 840 17 828 q 57 851 40 851 q 84 840 72 851 q 96 813 96 828 q 84 784 96 796 q 57 772 72 772 m 204 772 q 176 784 188 772 q 164 813 164 796 q 176 840 164 828 q 204 851 188 851 q 231 840 219 851 q 243 813 243 828 q 231 784 243 796 q 204 772 219 772 m 107 625 l 151 625 l 151 0 l 107 0 l 107 625 z "},"ị":{"ha":283,"x_min":93,"x_max":190,"o":"m 142 768 q 108 782 122 768 q 93 817 93 796 q 108 850 93 836 q 142 864 122 864 q 176 850 161 864 q 190 817 190 836 q 176 782 190 796 q 142 768 161 768 m 119 625 l 164 625 l 164 0 l 119 0 l 119 625 m 142 -179 q 108 -165 122 -179 q 93 -131 93 -151 q 108 -97 93 -111 q 142 -83 122 -83 q 176 -97 161 -83 q 190 -131 190 -111 q 176 -165 190 -151 q 142 -179 161 -179 z "},"ì":{"ha":258,"x_min":-24,"x_max":167,"o":"m 107 625 l 151 625 l 151 0 l 107 0 l 107 625 m 114 735 l -24 894 l 28 894 l 167 735 l 114 735 z "},"ỉ":{"ha":258,"x_min":-3,"x_max":254,"o":"m 107 625 l 151 625 l 151 0 l 107 0 l 107 625 m 103 768 q 210 828 210 768 q 189 868 210 853 q 128 883 168 883 q 65 864 89 883 q 42 811 42 844 l -3 811 q 33 894 -3 864 q 129 924 69 924 q 221 894 188 924 q 254 822 254 865 q 227 765 254 785 q 147 742 200 744 l 147 706 l 103 706 l 103 768 z "},"ȋ":{"ha":258,"x_min":-26,"x_max":265,"o":"m 107 625 l 151 625 l 151 0 l 107 0 l 107 625 m -26 733 q 13 849 -26 803 q 119 894 51 894 q 226 849 188 894 q 265 733 265 803 l 221 733 q 194 822 221 788 q 119 856 168 856 q 44 822 71 856 q 18 733 18 788 l -26 733 z "},"ī":{"ha":258,"x_min":6,"x_max":251,"o":"m 6 825 l 251 825 l 251 786 l 6 786 l 6 825 m 107 625 l 151 625 l 151 0 l 107 0 l 107 625 z "},"į":{"ha":258,"x_min":-12,"x_max":178,"o":"m 107 625 l 151 625 l 151 0 l 107 0 l 107 625 m 129 765 q 95 779 110 765 q 81 814 81 793 q 95 847 81 833 q 129 861 110 861 q 163 847 149 861 q 178 814 178 833 q 163 779 178 793 q 129 765 149 765 m 89 -278 q 15 -255 43 -278 q -12 -197 -12 -232 q 10 -136 -12 -167 l 107 0 l 151 0 l 44 -151 q 28 -194 28 -175 q 45 -228 28 -215 q 92 -242 63 -242 l 151 -242 l 151 -278 l 89 -278 z "},"ĩ":{"ha":258,"x_min":-36,"x_max":282,"o":"m -36 729 q -10 814 -36 783 q 56 844 17 844 q 101 834 83 844 q 142 803 119 824 q 170 780 158 788 q 197 772 182 772 q 242 839 242 772 l 282 839 q 260 759 282 785 q 196 733 238 733 q 155 744 172 733 q 118 774 138 754 q 88 798 100 790 q 60 806 75 806 q 18 784 33 806 q 3 729 3 763 l -36 729 m 107 625 l 151 625 l 151 0 l 107 0 l 107 625 z "},"j":{"ha":319,"x_min":-44,"x_max":225,"o":"m 176 768 q 142 782 157 768 q 128 817 128 796 q 142 850 128 836 q 176 864 157 864 q 210 850 196 864 q 225 817 225 836 q 210 782 225 796 q 176 768 196 768 m -44 -236 q 96 -180 39 -236 q 153 -40 153 -124 l 153 625 l 197 625 l 197 -40 q 165 -161 197 -107 q 78 -245 133 -215 q -44 -275 22 -275 l -44 -236 z "},"ȷ":{"ha":319,"x_min":-44,"x_max":197,"o":"m -44 -236 q 96 -180 39 -236 q 153 -40 153 -124 l 153 625 l 197 625 l 197 -40 q 165 -161 197 -107 q 78 -245 133 -215 q -44 -275 22 -275 l -44 -236 z "},"ĵ":{"ha":319,"x_min":-44,"x_max":350,"o":"m -44 -236 q 96 -180 39 -236 q 153 -40 153 -124 l 153 625 l 197 625 l 197 -40 q 165 -161 197 -107 q 78 -245 133 -215 q -44 -275 22 -275 l -44 -236 m 297 735 l 174 863 l 50 735 l -6 735 l 153 894 l 194 894 l 350 735 l 297 735 z "},"k":{"ha":522,"x_min":88,"x_max":508,"o":"m 88 1039 l 132 1039 l 132 408 l 379 625 l 436 625 l 150 375 l 508 0 l 449 0 l 132 333 l 132 0 l 88 0 l 88 1039 z "},"ķ":{"ha":522,"x_min":88,"x_max":508,"o":"m 88 1039 l 132 1039 l 132 408 l 379 625 l 436 625 l 150 375 l 508 0 l 449 0 l 132 333 l 132 0 l 88 0 l 88 1039 m 325 -153 l 325 -153 q 321 -175 325 -162 l 278 -274 l 268 -274 l 268 -197 q 240 -181 251 -194 q 228 -150 228 -168 q 242 -117 228 -131 q 276 -103 257 -103 q 310 -117 296 -103 q 325 -150 325 -131 l 325 -153 z "},"ĸ":{"ha":539,"x_min":104,"x_max":525,"o":"m 104 625 l 149 625 l 149 408 l 396 625 l 453 625 l 167 375 l 525 0 l 465 0 l 149 338 l 149 0 l 104 0 l 104 625 z "},"l":{"ha":381,"x_min":88,"x_max":325,"o":"m 325 -12 q 206 17 260 -12 q 119 101 151 47 q 88 222 88 156 l 88 1042 l 132 1042 l 132 222 q 158 122 132 167 q 228 52 183 78 q 325 26 272 26 l 325 -12 z "},"ĺ":{"ha":381,"x_min":88,"x_max":383,"o":"m 325 -12 q 206 17 260 -12 q 119 101 151 47 q 88 222 88 156 l 88 1042 l 132 1042 l 132 222 q 158 122 132 167 q 228 52 183 78 q 325 26 272 26 l 325 -12 m 326 1311 l 383 1311 l 190 1151 l 132 1151 l 326 1311 z "},"ľ":{"ha":408,"x_min":88,"x_max":325,"o":"m 325 -12 q 206 17 260 -12 q 119 101 151 47 q 88 222 88 156 l 88 1042 l 132 1042 l 132 222 q 158 122 132 167 q 228 52 183 78 q 325 26 272 26 l 325 -12 m 263 1000 l 322 1000 l 294 751 l 263 751 l 263 1000 z "},"ļ":{"ha":381,"x_min":88,"x_max":325,"o":"m 325 -12 q 206 17 260 -12 q 119 101 151 47 q 88 222 88 156 l 88 1042 l 132 1042 l 132 222 q 158 122 132 167 q 228 52 183 78 q 325 26 272 26 l 325 -12 m 231 -153 l 231 -153 q 226 -175 231 -162 l 183 -274 l 174 -274 l 174 -197 q 145 -181 157 -194 q 133 -150 133 -168 q 148 -117 133 -131 q 182 -103 163 -103 q 216 -117 201 -103 q 231 -150 231 -131 l 231 -153 z "},"ŀ":{"ha":410,"x_min":88,"x_max":329,"o":"m 325 -12 q 206 17 260 -12 q 119 101 151 47 q 88 222 88 156 l 88 1042 l 132 1042 l 132 222 q 158 122 132 167 q 228 52 183 78 q 325 26 272 26 l 325 -12 m 281 381 q 247 394 261 381 q 232 429 232 408 q 247 463 232 449 q 281 476 261 476 q 315 463 300 476 q 329 429 329 449 q 315 394 329 408 q 281 381 300 381 z "},"ǉ":{"ha":507,"x_min":88,"x_max":413,"o":"m 214 0 q 123 39 158 0 q 88 151 88 78 l 88 1042 l 132 1042 l 132 151 q 155 67 132 94 q 214 39 178 39 l 214 0 m 364 768 q 330 782 344 768 q 315 817 315 796 q 330 850 315 836 q 364 864 344 864 q 398 850 383 864 q 413 817 413 836 q 398 782 413 796 q 364 768 383 768 m 143 -236 q 283 -180 226 -236 q 340 -40 340 -124 l 340 625 l 385 625 l 385 -40 q 353 -161 385 -107 q 265 -245 321 -215 q 143 -275 210 -275 l 143 -236 z "},"ł":{"ha":393,"x_min":11,"x_max":361,"o":"m 361 -12 q 242 17 296 -12 q 156 101 188 47 q 124 222 124 156 l 124 364 l 39 279 l 11 307 l 124 419 l 124 1042 l 168 1042 l 168 464 l 317 613 l 344 585 l 168 408 l 168 222 q 194 122 168 167 q 264 52 219 78 q 361 26 308 26 l 361 -12 z "},"m":{"ha":1044,"x_min":88,"x_max":957,"o":"m 88 625 l 132 625 l 132 531 q 338 640 196 640 q 456 602 406 640 q 525 488 506 564 q 605 598 543 556 q 744 640 667 640 q 901 581 846 640 q 957 414 957 522 l 957 0 l 913 0 l 913 414 q 867 551 913 501 q 749 601 822 601 q 646 574 693 601 q 571 501 599 547 q 543 400 543 456 l 543 0 l 499 0 l 499 389 q 451 545 499 489 q 329 601 404 601 q 234 576 279 601 q 160 509 189 551 q 132 417 132 467 l 132 0 l 88 0 l 88 625 z "},"n":{"ha":736,"x_min":88,"x_max":649,"o":"m 88 625 l 132 625 l 132 486 q 236 598 163 556 q 399 640 310 640 q 581 567 514 640 q 649 364 649 494 l 649 0 l 604 0 l 604 364 q 549 539 604 476 q 396 601 494 601 q 263 569 324 601 q 167 479 203 536 q 132 350 132 422 l 132 0 l 88 0 l 88 625 z "},"ń":{"ha":736,"x_min":88,"x_max":649,"o":"m 88 625 l 132 625 l 132 486 q 236 598 163 556 q 399 640 310 640 q 581 567 514 640 q 649 364 649 494 l 649 0 l 604 0 l 604 364 q 549 539 604 476 q 396 601 494 601 q 263 569 324 601 q 167 479 203 536 q 132 350 132 422 l 132 0 l 88 0 l 88 625 m 521 894 l 578 894 l 385 735 l 326 735 l 521 894 z "},"ŉ":{"ha":833,"x_min":69,"x_max":649,"o":"m 69 735 q 131 789 110 753 q 151 871 151 825 l 151 1031 l 196 1031 l 196 871 q 163 759 196 806 q 69 694 129 713 l 69 735 m 88 625 l 132 625 l 132 486 q 236 598 163 556 q 399 640 310 640 q 581 567 514 640 q 649 364 649 494 l 649 0 l 604 0 l 604 364 q 549 539 604 476 q 396 601 494 601 q 263 569 324 601 q 167 479 203 536 q 132 350 132 422 l 132 0 l 88 0 l 88 625 z "},"ň":{"ha":736,"x_min":88,"x_max":649,"o":"m 88 625 l 132 625 l 132 486 q 236 598 163 556 q 399 640 310 640 q 581 567 514 640 q 649 364 649 494 l 649 0 l 604 0 l 604 364 q 549 539 604 476 q 396 601 494 601 q 263 569 324 601 q 167 479 203 536 q 132 350 132 422 l 132 0 l 88 0 l 88 625 m 174 894 l 232 894 l 379 768 l 528 894 l 585 894 l 401 735 l 360 735 l 174 894 z "},"ņ":{"ha":736,"x_min":88,"x_max":649,"o":"m 88 625 l 132 625 l 132 486 q 236 598 163 556 q 399 640 310 640 q 581 567 514 640 q 649 364 649 494 l 649 0 l 604 0 l 604 364 q 549 539 604 476 q 396 601 494 601 q 263 569 324 601 q 167 479 203 536 q 132 350 132 422 l 132 0 l 88 0 l 88 625 m 433 -153 l 433 -153 q 429 -175 433 -162 l 386 -274 l 376 -274 l 376 -197 q 348 -181 360 -194 q 336 -150 336 -168 q 351 -117 336 -131 q 385 -103 365 -103 q 419 -117 404 -103 q 433 -150 433 -131 l 433 -153 z "},"ŋ":{"ha":736,"x_min":88,"x_max":649,"o":"m 399 640 q 581 567 514 640 q 649 364 649 494 l 649 -40 q 617 -161 649 -107 q 529 -245 585 -215 q 407 -275 474 -275 l 407 -236 q 547 -180 490 -236 q 604 -40 604 -124 l 604 364 q 549 539 604 476 q 396 601 494 601 q 263 569 324 601 q 167 479 203 536 q 132 350 132 422 l 132 0 l 88 0 l 88 625 l 132 625 l 132 486 q 236 598 163 556 q 399 640 310 640 z "},"ǌ":{"ha":986,"x_min":88,"x_max":892,"o":"m 88 625 l 132 625 l 132 486 q 236 598 163 556 q 399 640 310 640 q 581 567 514 640 q 649 364 649 494 l 649 0 l 604 0 l 604 364 q 549 539 604 476 q 396 601 494 601 q 263 569 324 601 q 167 479 203 536 q 132 350 132 422 l 132 0 l 88 0 l 88 625 m 843 768 q 809 782 824 768 q 794 817 794 796 q 809 850 794 836 q 843 864 824 864 q 877 850 863 864 q 892 817 892 836 q 877 782 892 796 q 843 768 863 768 m 622 -236 q 763 -180 706 -236 q 819 -40 819 -124 l 819 625 l 864 625 l 864 -40 q 832 -161 864 -107 q 744 -245 800 -215 q 622 -275 689 -275 l 622 -236 z "},"ñ":{"ha":736,"x_min":88,"x_max":649,"o":"m 88 625 l 132 625 l 132 486 q 236 598 163 556 q 399 640 310 640 q 581 567 514 640 q 649 364 649 494 l 649 0 l 604 0 l 604 364 q 549 539 604 476 q 396 601 494 601 q 263 569 324 601 q 167 479 203 536 q 132 350 132 422 l 132 0 l 88 0 l 88 625 m 194 729 q 224 814 194 783 q 297 844 253 844 q 348 834 328 844 q 393 803 368 824 q 424 780 411 788 q 454 772 438 772 q 504 839 504 772 l 549 839 q 524 759 549 785 q 453 733 499 733 q 408 743 426 733 q 365 774 390 753 q 333 798 346 790 q 301 806 319 806 q 256 784 272 806 q 239 729 239 763 l 194 729 z "},"o":{"ha":764,"x_min":51,"x_max":713,"o":"m 385 -22 q 214 24 290 -22 q 94 148 138 71 q 51 315 51 225 q 95 481 51 404 q 215 602 139 557 q 383 647 290 647 q 551 602 475 647 q 669 481 626 557 q 713 315 713 404 q 671 145 713 222 q 555 23 629 68 q 385 -22 481 -22 m 385 17 q 529 57 464 17 q 631 165 594 97 q 668 313 668 232 q 631 460 668 392 q 528 568 593 528 q 383 608 463 608 q 238 567 304 608 q 134 458 172 526 q 96 311 96 390 q 134 165 96 232 q 238 57 172 97 q 385 17 304 17 z "},"ó":{"ha":764,"x_min":51,"x_max":713,"o":"m 385 -22 q 214 24 290 -22 q 94 148 138 71 q 51 315 51 225 q 95 481 51 404 q 215 602 139 557 q 383 647 290 647 q 551 602 475 647 q 669 481 626 557 q 713 315 713 404 q 671 145 713 222 q 555 23 629 68 q 385 -22 481 -22 m 385 17 q 529 57 464 17 q 631 165 594 97 q 668 313 668 232 q 631 460 668 392 q 528 568 593 528 q 383 608 463 608 q 238 567 304 608 q 134 458 172 526 q 96 311 96 390 q 134 165 96 232 q 238 57 172 97 q 385 17 304 17 m 524 894 l 581 894 l 388 735 l 329 735 l 524 894 z "},"ŏ":{"ha":764,"x_min":51,"x_max":713,"o":"m 385 -22 q 214 24 290 -22 q 94 148 138 71 q 51 315 51 225 q 95 481 51 404 q 215 602 139 557 q 383 647 290 647 q 551 602 475 647 q 669 481 626 557 q 713 315 713 404 q 671 145 713 222 q 555 23 629 68 q 385 -22 481 -22 m 385 17 q 529 57 464 17 q 631 165 594 97 q 668 313 668 232 q 631 460 668 392 q 528 568 593 528 q 383 608 463 608 q 238 567 304 608 q 134 458 172 526 q 96 311 96 390 q 134 165 96 232 q 238 57 172 97 q 385 17 304 17 m 381 733 q 253 779 300 733 q 207 894 207 825 l 251 894 q 285 806 251 840 q 381 772 318 772 q 476 806 443 772 q 510 894 510 840 l 554 894 q 508 779 554 825 q 381 733 461 733 z "},"ô":{"ha":764,"x_min":51,"x_max":713,"o":"m 385 -22 q 214 24 290 -22 q 94 148 138 71 q 51 315 51 225 q 95 481 51 404 q 215 602 139 557 q 383 647 290 647 q 551 602 475 647 q 669 481 626 557 q 713 315 713 404 q 671 145 713 222 q 555 23 629 68 q 385 -22 481 -22 m 385 17 q 529 57 464 17 q 631 165 594 97 q 668 313 668 232 q 631 460 668 392 q 528 568 593 528 q 383 608 463 608 q 238 567 304 608 q 134 458 172 526 q 96 311 96 390 q 134 165 96 232 q 238 57 172 97 q 385 17 304 17 m 529 735 l 383 860 l 238 735 l 176 735 l 363 894 l 404 894 l 588 735 l 529 735 z "},"ố":{"ha":764,"x_min":51,"x_max":713,"o":"m 385 -22 q 214 24 290 -22 q 94 148 138 71 q 51 315 51 225 q 95 481 51 404 q 215 602 139 557 q 383 647 290 647 q 551 602 475 647 q 669 481 626 557 q 713 315 713 404 q 671 145 713 222 q 555 23 629 68 q 385 -22 481 -22 m 385 17 q 529 57 464 17 q 631 165 594 97 q 668 313 668 232 q 631 460 668 392 q 528 568 593 528 q 383 608 463 608 q 238 567 304 608 q 134 458 172 526 q 96 311 96 390 q 134 165 96 232 q 238 57 172 97 q 385 17 304 17 m 536 800 l 508 829 l 624 960 l 675 960 l 536 800 m 403 894 l 558 735 l 506 735 l 382 863 l 258 735 l 203 735 l 361 894 l 403 894 z "},"ộ":{"ha":764,"x_min":51,"x_max":713,"o":"m 385 -22 q 214 24 290 -22 q 94 148 138 71 q 51 315 51 225 q 95 481 51 404 q 215 602 139 557 q 383 647 290 647 q 551 602 475 647 q 669 481 626 557 q 713 315 713 404 q 671 145 713 222 q 555 23 629 68 q 385 -22 481 -22 m 385 17 q 529 57 464 17 q 631 165 594 97 q 668 313 668 232 q 631 460 668 392 q 528 568 593 528 q 383 608 463 608 q 238 567 304 608 q 134 458 172 526 q 96 311 96 390 q 134 165 96 232 q 238 57 172 97 q 385 17 304 17 m 382 -179 q 348 -165 363 -179 q 333 -131 333 -151 q 348 -97 333 -111 q 382 -83 363 -83 q 416 -97 401 -83 q 431 -131 431 -111 q 416 -165 431 -151 q 382 -179 401 -179 m 529 735 l 383 860 l 238 735 l 176 735 l 363 894 l 404 894 l 588 735 l 529 735 z "},"ồ":{"ha":764,"x_min":51,"x_max":713,"o":"m 385 -22 q 214 24 290 -22 q 94 148 138 71 q 51 315 51 225 q 95 481 51 404 q 215 602 139 557 q 383 647 290 647 q 551 602 475 647 q 669 481 626 557 q 713 315 713 404 q 671 145 713 222 q 555 23 629 68 q 385 -22 481 -22 m 385 17 q 529 57 464 17 q 631 165 594 97 q 668 313 668 232 q 631 460 668 392 q 528 568 593 528 q 383 608 463 608 q 238 567 304 608 q 134 458 172 526 q 96 311 96 390 q 134 165 96 232 q 238 57 172 97 q 385 17 304 17 m 231 800 l 92 960 l 143 960 l 258 829 l 231 800 m 510 735 l 386 863 l 263 735 l 207 735 l 365 894 l 407 894 l 563 735 l 510 735 z "},"ổ":{"ha":764,"x_min":51,"x_max":713,"o":"m 385 -22 q 214 24 290 -22 q 94 148 138 71 q 51 315 51 225 q 95 481 51 404 q 215 602 139 557 q 383 647 290 647 q 551 602 475 647 q 669 481 626 557 q 713 315 713 404 q 671 145 713 222 q 555 23 629 68 q 385 -22 481 -22 m 385 17 q 529 57 464 17 q 631 165 594 97 q 668 313 668 232 q 631 460 668 392 q 528 568 593 528 q 383 608 463 608 q 238 567 304 608 q 134 458 172 526 q 96 311 96 390 q 134 165 96 232 q 238 57 172 97 q 385 17 304 17 m 550 1051 q 632 1022 603 1051 q 661 950 661 993 q 568 869 661 874 l 568 833 l 524 833 l 524 896 q 617 956 617 896 q 599 996 617 981 q 549 1011 582 1011 q 497 992 517 1011 q 476 939 476 972 l 432 939 q 465 1022 432 992 q 550 1051 497 1051 m 404 894 l 560 735 l 506 735 l 382 863 l 260 735 l 204 735 l 363 894 l 404 894 z "},"ỗ":{"ha":764,"x_min":51,"x_max":713,"o":"m 385 -22 q 214 24 290 -22 q 94 148 138 71 q 51 315 51 225 q 95 481 51 404 q 215 602 139 557 q 383 647 290 647 q 551 602 475 647 q 669 481 626 557 q 713 315 713 404 q 671 145 713 222 q 555 23 629 68 q 385 -22 481 -22 m 385 17 q 529 57 464 17 q 631 165 594 97 q 668 313 668 232 q 631 460 668 392 q 528 568 593 528 q 383 608 463 608 q 238 567 304 608 q 134 458 172 526 q 96 311 96 390 q 134 165 96 232 q 238 57 172 97 q 385 17 304 17 m 507 735 l 383 863 l 260 735 l 204 735 l 363 894 l 404 894 l 560 735 l 507 735 m 208 910 q 238 994 208 964 q 311 1025 267 1025 q 362 1015 342 1025 q 407 983 382 1004 q 438 960 425 968 q 468 953 451 953 q 518 1019 518 953 l 563 1019 q 538 940 563 965 q 467 914 513 914 q 422 924 440 914 q 379 954 404 933 q 347 978 360 971 q 315 986 333 986 q 269 965 286 986 q 253 910 253 943 l 208 910 z "},"ȍ":{"ha":764,"x_min":51,"x_max":713,"o":"m 385 -22 q 214 24 290 -22 q 94 148 138 71 q 51 315 51 225 q 95 481 51 404 q 215 602 139 557 q 383 647 290 647 q 551 602 475 647 q 669 481 626 557 q 713 315 713 404 q 671 145 713 222 q 555 23 629 68 q 385 -22 481 -22 m 385 17 q 529 57 464 17 q 631 165 594 97 q 668 313 668 232 q 631 460 668 392 q 528 568 593 528 q 383 608 463 608 q 238 567 304 608 q 134 458 172 526 q 96 311 96 390 q 134 165 96 232 q 238 57 172 97 q 385 17 304 17 m 113 894 l 169 894 l 364 735 l 306 735 l 113 894 m 251 894 l 308 894 l 503 735 l 444 735 l 251 894 z "},"ö":{"ha":764,"x_min":51,"x_max":713,"o":"m 310 772 q 281 784 293 772 q 269 813 269 796 q 281 840 269 828 q 310 851 293 851 q 337 840 325 851 q 349 813 349 828 q 337 784 349 796 q 310 772 325 772 m 457 772 q 428 784 440 772 q 417 813 417 796 q 428 840 417 828 q 457 851 440 851 q 484 840 472 851 q 496 813 496 828 q 484 784 496 796 q 457 772 472 772 m 385 -22 q 214 24 290 -22 q 94 148 138 71 q 51 315 51 225 q 95 481 51 404 q 215 602 139 557 q 383 647 290 647 q 551 602 475 647 q 669 481 626 557 q 713 315 713 404 q 671 145 713 222 q 555 23 629 68 q 385 -22 481 -22 m 385 17 q 529 57 464 17 q 631 165 594 97 q 668 313 668 232 q 631 460 668 392 q 528 568 593 528 q 383 608 463 608 q 238 567 304 608 q 134 458 172 526 q 96 311 96 390 q 134 165 96 232 q 238 57 172 97 q 385 17 304 17 z "},"ȫ":{"ha":764,"x_min":51,"x_max":713,"o":"m 189 954 l 574 954 l 574 915 l 189 915 l 189 954 m 310 772 q 281 784 293 772 q 269 813 269 796 q 281 840 269 828 q 310 851 293 851 q 337 840 325 851 q 349 813 349 828 q 337 784 349 796 q 310 772 325 772 m 457 772 q 428 784 440 772 q 417 813 417 796 q 428 840 417 828 q 457 851 440 851 q 484 840 472 851 q 496 813 496 828 q 484 784 496 796 q 457 772 472 772 m 385 -22 q 214 24 290 -22 q 94 148 138 71 q 51 315 51 225 q 95 481 51 404 q 215 602 139 557 q 383 647 290 647 q 551 602 475 647 q 669 481 626 557 q 713 315 713 404 q 671 145 713 222 q 555 23 629 68 q 385 -22 481 -22 m 385 17 q 529 57 464 17 q 631 165 594 97 q 668 313 668 232 q 631 460 668 392 q 528 568 593 528 q 383 608 463 608 q 238 567 304 608 q 134 458 172 526 q 96 311 96 390 q 134 165 96 232 q 238 57 172 97 q 385 17 304 17 z "},"ȱ":{"ha":764,"x_min":51,"x_max":713,"o":"m 385 -22 q 214 24 290 -22 q 94 148 138 71 q 51 315 51 225 q 95 481 51 404 q 215 602 139 557 q 383 647 290 647 q 551 602 475 647 q 669 481 626 557 q 713 315 713 404 q 671 145 713 222 q 555 23 629 68 q 385 -22 481 -22 m 385 17 q 529 57 464 17 q 631 165 594 97 q 668 313 668 232 q 631 460 668 392 q 528 568 593 528 q 383 608 463 608 q 238 567 304 608 q 134 458 172 526 q 96 311 96 390 q 134 165 96 232 q 238 57 172 97 q 385 17 304 17 m 382 765 q 348 779 363 765 q 333 814 333 793 q 348 847 333 833 q 382 861 363 861 q 416 847 401 861 q 431 814 431 833 q 416 779 431 793 q 382 765 401 765 m 189 954 l 574 954 l 574 915 l 189 915 l 189 954 z "},"ọ":{"ha":764,"x_min":51,"x_max":713,"o":"m 385 -22 q 214 24 290 -22 q 94 148 138 71 q 51 315 51 225 q 95 481 51 404 q 215 602 139 557 q 383 647 290 647 q 551 602 475 647 q 669 481 626 557 q 713 315 713 404 q 671 145 713 222 q 555 23 629 68 q 385 -22 481 -22 m 385 17 q 529 57 464 17 q 631 165 594 97 q 668 313 668 232 q 631 460 668 392 q 528 568 593 528 q 383 608 463 608 q 238 567 304 608 q 134 458 172 526 q 96 311 96 390 q 134 165 96 232 q 238 57 172 97 q 385 17 304 17 m 382 -179 q 348 -165 363 -179 q 333 -131 333 -151 q 348 -97 333 -111 q 382 -83 363 -83 q 416 -97 401 -83 q 431 -131 431 -111 q 416 -165 431 -151 q 382 -179 401 -179 z "},"ò":{"ha":764,"x_min":51,"x_max":713,"o":"m 385 -22 q 214 24 290 -22 q 94 148 138 71 q 51 315 51 225 q 95 481 51 404 q 215 602 139 557 q 383 647 290 647 q 551 602 475 647 q 669 481 626 557 q 713 315 713 404 q 671 145 713 222 q 555 23 629 68 q 385 -22 481 -22 m 385 17 q 529 57 464 17 q 631 165 594 97 q 668 313 668 232 q 631 460 668 392 q 528 568 593 528 q 383 608 463 608 q 238 567 304 608 q 134 458 172 526 q 96 311 96 390 q 134 165 96 232 q 238 57 172 97 q 385 17 304 17 m 142 894 l 199 894 l 393 735 l 335 735 l 142 894 z "},"ỏ":{"ha":764,"x_min":51,"x_max":713,"o":"m 385 -22 q 214 24 290 -22 q 94 148 138 71 q 51 315 51 225 q 95 481 51 404 q 215 602 139 557 q 383 647 290 647 q 551 602 475 647 q 669 481 626 557 q 713 315 713 404 q 671 145 713 222 q 555 23 629 68 q 385 -22 481 -22 m 385 17 q 529 57 464 17 q 631 165 594 97 q 668 313 668 232 q 631 460 668 392 q 528 568 593 528 q 383 608 463 608 q 238 567 304 608 q 134 458 172 526 q 96 311 96 390 q 134 165 96 232 q 238 57 172 97 q 385 17 304 17 m 356 768 q 463 828 463 768 q 442 868 463 853 q 381 883 421 883 q 318 864 342 883 q 294 811 294 844 l 250 811 q 286 894 250 864 q 382 924 322 924 q 474 894 440 924 q 507 822 507 865 q 480 765 507 785 q 400 742 453 744 l 400 706 l 356 706 l 356 768 z "},"ơ":{"ha":764,"x_min":51,"x_max":713,"o":"m 561 596 q 672 477 632 551 q 713 315 713 403 q 671 145 713 222 q 555 23 629 68 q 385 -22 481 -22 q 214 24 290 -22 q 94 148 138 71 q 51 315 51 225 q 95 481 51 404 q 215 602 139 557 q 383 647 290 647 q 504 625 444 647 q 593 672 563 625 q 624 790 624 718 l 668 790 q 640 667 668 719 q 561 596 613 615 m 385 17 q 529 57 464 17 q 631 165 594 97 q 668 313 668 232 q 631 460 668 392 q 528 568 593 528 q 383 608 463 608 q 238 567 304 608 q 134 458 172 526 q 96 311 96 390 q 134 165 96 232 q 238 57 172 97 q 385 17 304 17 z "},"ớ":{"ha":764,"x_min":51,"x_max":713,"o":"m 561 596 q 672 477 632 551 q 713 315 713 403 q 671 145 713 222 q 555 23 629 68 q 385 -22 481 -22 q 214 24 290 -22 q 94 148 138 71 q 51 315 51 225 q 95 481 51 404 q 215 602 139 557 q 383 647 290 647 q 504 625 444 647 q 593 672 563 625 q 624 790 624 718 l 668 790 q 640 667 668 719 q 561 596 613 615 m 385 17 q 529 57 464 17 q 631 165 594 97 q 668 313 668 232 q 631 460 668 392 q 528 568 593 528 q 383 608 463 608 q 238 567 304 608 q 134 458 172 526 q 96 311 96 390 q 134 165 96 232 q 238 57 172 97 q 385 17 304 17 m 524 894 l 581 894 l 388 735 l 329 735 l 524 894 z "},"ợ":{"ha":764,"x_min":51,"x_max":713,"o":"m 561 596 q 672 477 632 551 q 713 315 713 403 q 671 145 713 222 q 555 23 629 68 q 385 -22 481 -22 q 214 24 290 -22 q 94 148 138 71 q 51 315 51 225 q 95 481 51 404 q 215 602 139 557 q 383 647 290 647 q 504 625 444 647 q 593 672 563 625 q 624 790 624 718 l 668 790 q 640 667 668 719 q 561 596 613 615 m 385 17 q 529 57 464 17 q 631 165 594 97 q 668 313 668 232 q 631 460 668 392 q 528 568 593 528 q 383 608 463 608 q 238 567 304 608 q 134 458 172 526 q 96 311 96 390 q 134 165 96 232 q 238 57 172 97 q 385 17 304 17 m 382 -179 q 348 -165 363 -179 q 333 -131 333 -151 q 348 -97 333 -111 q 382 -83 363 -83 q 416 -97 401 -83 q 431 -131 431 -111 q 416 -165 431 -151 q 382 -179 401 -179 z "},"ờ":{"ha":764,"x_min":51,"x_max":713,"o":"m 561 596 q 672 477 632 551 q 713 315 713 403 q 671 145 713 222 q 555 23 629 68 q 385 -22 481 -22 q 214 24 290 -22 q 94 148 138 71 q 51 315 51 225 q 95 481 51 404 q 215 602 139 557 q 383 647 290 647 q 504 625 444 647 q 593 672 563 625 q 624 790 624 718 l 668 790 q 640 667 668 719 q 561 596 613 615 m 385 17 q 529 57 464 17 q 631 165 594 97 q 668 313 668 232 q 631 460 668 392 q 528 568 593 528 q 383 608 463 608 q 238 567 304 608 q 134 458 172 526 q 96 311 96 390 q 134 165 96 232 q 238 57 172 97 q 385 17 304 17 m 142 894 l 199 894 l 393 735 l 335 735 l 142 894 z "},"ở":{"ha":764,"x_min":51,"x_max":713,"o":"m 561 596 q 672 477 632 551 q 713 315 713 403 q 671 145 713 222 q 555 23 629 68 q 385 -22 481 -22 q 214 24 290 -22 q 94 148 138 71 q 51 315 51 225 q 95 481 51 404 q 215 602 139 557 q 383 647 290 647 q 504 625 444 647 q 593 672 563 625 q 624 790 624 718 l 668 790 q 640 667 668 719 q 561 596 613 615 m 385 17 q 529 57 464 17 q 631 165 594 97 q 668 313 668 232 q 631 460 668 392 q 528 568 593 528 q 383 608 463 608 q 238 567 304 608 q 134 458 172 526 q 96 311 96 390 q 134 165 96 232 q 238 57 172 97 q 385 17 304 17 m 356 768 q 463 828 463 768 q 442 868 463 853 q 381 883 421 883 q 318 864 342 883 q 294 811 294 844 l 250 811 q 286 894 250 864 q 382 924 322 924 q 474 894 440 924 q 507 822 507 865 q 480 765 507 785 q 400 742 453 744 l 400 706 l 356 706 l 356 768 z "},"ỡ":{"ha":764,"x_min":51,"x_max":713,"o":"m 561 596 q 672 477 632 551 q 713 315 713 403 q 671 145 713 222 q 555 23 629 68 q 385 -22 481 -22 q 214 24 290 -22 q 94 148 138 71 q 51 315 51 225 q 95 481 51 404 q 215 602 139 557 q 383 647 290 647 q 504 625 444 647 q 593 672 563 625 q 624 790 624 718 l 668 790 q 640 667 668 719 q 561 596 613 615 m 385 17 q 529 57 464 17 q 631 165 594 97 q 668 313 668 232 q 631 460 668 392 q 528 568 593 528 q 383 608 463 608 q 238 567 304 608 q 134 458 172 526 q 96 311 96 390 q 134 165 96 232 q 238 57 172 97 q 385 17 304 17 m 197 729 q 226 814 197 783 q 300 844 256 844 q 351 834 331 844 q 396 803 371 824 q 427 780 414 788 q 457 772 440 772 q 507 839 507 772 l 551 839 q 526 759 551 785 q 456 733 501 733 q 411 743 429 733 q 368 774 393 753 q 335 798 349 790 q 304 806 322 806 q 258 784 275 806 q 242 729 242 763 l 197 729 z "},"ő":{"ha":764,"x_min":51,"x_max":713,"o":"m 385 -22 q 214 24 290 -22 q 94 148 138 71 q 51 315 51 225 q 95 481 51 404 q 215 602 139 557 q 383 647 290 647 q 551 602 475 647 q 669 481 626 557 q 713 315 713 404 q 671 145 713 222 q 555 23 629 68 q 385 -22 481 -22 m 385 17 q 529 57 464 17 q 631 165 594 97 q 668 313 668 232 q 631 460 668 392 q 528 568 593 528 q 383 608 463 608 q 238 567 304 608 q 134 458 172 526 q 96 311 96 390 q 134 165 96 232 q 238 57 172 97 q 385 17 304 17 m 400 894 l 457 894 l 264 735 l 206 735 l 400 894 m 569 894 l 626 894 l 433 735 l 375 735 l 569 894 z "},"ȏ":{"ha":764,"x_min":51,"x_max":713,"o":"m 385 -22 q 214 24 290 -22 q 94 148 138 71 q 51 315 51 225 q 95 481 51 404 q 215 602 139 557 q 383 647 290 647 q 551 602 475 647 q 669 481 626 557 q 713 315 713 404 q 671 145 713 222 q 555 23 629 68 q 385 -22 481 -22 m 385 17 q 529 57 464 17 q 631 165 594 97 q 668 313 668 232 q 631 460 668 392 q 528 568 593 528 q 383 608 463 608 q 238 567 304 608 q 134 458 172 526 q 96 311 96 390 q 134 165 96 232 q 238 57 172 97 q 385 17 304 17 m 382 894 q 509 849 463 894 q 556 733 556 803 l 511 733 q 478 822 511 788 q 382 856 444 856 q 286 822 319 856 q 253 733 253 788 l 208 733 q 255 849 208 803 q 382 894 301 894 z "},"ō":{"ha":764,"x_min":51,"x_max":713,"o":"m 385 -22 q 214 24 290 -22 q 94 148 138 71 q 51 315 51 225 q 95 481 51 404 q 215 602 139 557 q 383 647 290 647 q 551 602 475 647 q 669 481 626 557 q 713 315 713 404 q 671 145 713 222 q 555 23 629 68 q 385 -22 481 -22 m 385 17 q 529 57 464 17 q 631 165 594 97 q 668 313 668 232 q 631 460 668 392 q 528 568 593 528 q 383 608 463 608 q 238 567 304 608 q 134 458 172 526 q 96 311 96 390 q 134 165 96 232 q 238 57 172 97 q 385 17 304 17 m 189 825 l 574 825 l 574 786 l 189 786 l 189 825 z "},"ǫ":{"ha":764,"x_min":51,"x_max":713,"o":"m 432 -137 q 415 -181 415 -161 q 433 -215 415 -201 q 479 -228 450 -228 l 539 -228 l 539 -264 l 476 -264 q 403 -241 431 -264 q 375 -183 375 -218 q 397 -122 375 -153 l 478 -10 q 385 -22 435 -22 q 214 24 290 -22 q 94 148 138 71 q 51 315 51 225 q 95 481 51 404 q 215 602 139 557 q 383 647 290 647 q 551 602 475 647 q 669 481 626 557 q 713 315 713 404 q 666 136 713 217 q 539 14 619 56 l 432 -137 m 96 311 q 134 165 96 232 q 238 57 172 97 q 385 17 304 17 q 529 57 464 17 q 631 165 594 97 q 668 313 668 232 q 631 460 668 392 q 528 568 593 528 q 383 608 463 608 q 238 567 304 608 q 134 458 172 526 q 96 311 96 390 z "},"ø":{"ha":778,"x_min":54,"x_max":715,"o":"m 604 565 q 686 454 657 519 q 715 315 715 389 q 674 145 715 222 q 558 23 632 68 q 388 -22 483 -22 q 201 33 286 -22 l 111 -89 l 60 -89 l 169 60 q 85 174 115 107 q 54 315 54 240 q 98 481 54 404 q 217 602 142 557 q 386 647 293 647 q 569 592 488 647 l 653 706 l 707 706 l 604 565 m 99 311 q 125 188 99 246 q 197 89 151 131 l 542 561 q 386 608 472 608 q 241 567 307 608 q 137 458 175 526 q 99 311 99 390 m 388 17 q 532 57 467 17 q 634 165 597 97 q 671 313 671 232 q 646 434 671 376 q 576 533 621 492 l 231 64 q 388 17 299 17 z "},"ǿ":{"ha":778,"x_min":54,"x_max":715,"o":"m 604 565 q 686 454 657 519 q 715 315 715 389 q 674 145 715 222 q 558 23 632 68 q 388 -22 483 -22 q 201 33 286 -22 l 111 -89 l 60 -89 l 169 60 q 85 174 115 107 q 54 315 54 240 q 98 481 54 404 q 217 602 142 557 q 386 647 293 647 q 569 592 488 647 l 653 706 l 707 706 l 604 565 m 99 311 q 125 188 99 246 q 197 89 151 131 l 542 561 q 386 608 472 608 q 241 567 307 608 q 137 458 175 526 q 99 311 99 390 m 388 17 q 532 57 467 17 q 634 165 597 97 q 671 313 671 232 q 646 434 671 376 q 576 533 621 492 l 231 64 q 388 17 299 17 m 531 894 l 588 894 l 394 735 l 336 735 l 531 894 z "},"õ":{"ha":764,"x_min":51,"x_max":713,"o":"m 385 -22 q 214 24 290 -22 q 94 148 138 71 q 51 315 51 225 q 95 481 51 404 q 215 602 139 557 q 383 647 290 647 q 551 602 475 647 q 669 481 626 557 q 713 315 713 404 q 671 145 713 222 q 555 23 629 68 q 385 -22 481 -22 m 385 17 q 529 57 464 17 q 631 165 594 97 q 668 313 668 232 q 631 460 668 392 q 528 568 593 528 q 383 608 463 608 q 238 567 304 608 q 134 458 172 526 q 96 311 96 390 q 134 165 96 232 q 238 57 172 97 q 385 17 304 17 m 197 729 q 226 814 197 783 q 300 844 256 844 q 351 834 331 844 q 396 803 371 824 q 427 780 414 788 q 457 772 440 772 q 507 839 507 772 l 551 839 q 526 759 551 785 q 456 733 501 733 q 411 743 429 733 q 368 774 393 753 q 335 798 349 790 q 304 806 322 806 q 258 784 275 806 q 242 729 242 763 l 197 729 z "},"ȭ":{"ha":764,"x_min":51,"x_max":713,"o":"m 197 960 l 551 960 l 551 921 l 197 921 l 197 960 m 203 729 q 232 814 203 783 q 306 844 261 844 q 356 834 336 844 q 401 803 376 824 q 433 780 419 788 q 463 772 446 772 q 513 839 513 772 l 557 839 q 532 759 557 785 q 461 733 507 733 q 417 743 435 733 q 374 774 399 753 q 341 798 354 790 q 310 806 328 806 q 264 784 281 806 q 247 729 247 763 l 203 729 m 385 -22 q 214 24 290 -22 q 94 148 138 71 q 51 315 51 225 q 95 481 51 404 q 215 602 139 557 q 383 647 290 647 q 551 602 475 647 q 669 481 626 557 q 713 315 713 404 q 671 145 713 222 q 555 23 629 68 q 385 -22 481 -22 m 385 17 q 529 57 464 17 q 631 165 594 97 q 668 313 668 232 q 631 460 668 392 q 528 568 593 528 q 383 608 463 608 q 238 567 304 608 q 134 458 172 526 q 96 311 96 390 q 134 165 96 232 q 238 57 172 97 q 385 17 304 17 z "},"œ":{"ha":1146,"x_min":81,"x_max":1094,"o":"m 400 -15 q 242 31 315 -15 q 124 153 168 76 q 81 315 81 229 q 125 476 81 401 q 244 596 169 551 q 403 640 318 640 q 626 563 529 640 q 842 643 721 643 q 1094 529 993 643 l 660 97 q 832 26 750 26 q 979 64 913 26 q 1090 167 1046 101 l 1090 96 q 851 -12 993 -12 l 831 -12 q 628 65 718 -12 q 421 -15 539 -15 l 400 -15 m 1033 529 q 843 604 949 604 q 656 532 736 604 q 742 313 742 438 q 729 224 742 265 l 1033 529 m 414 24 q 556 63 490 24 q 659 169 621 103 q 697 313 697 235 q 658 456 697 389 q 554 562 619 522 q 413 601 489 601 q 270 561 336 601 q 165 454 204 521 q 125 311 125 388 q 165 169 125 235 q 271 63 204 103 q 414 24 338 24 z "},"p":{"ha":797,"x_min":88,"x_max":746,"o":"m 88 625 l 132 625 l 132 472 q 249 594 169 547 q 415 640 328 640 q 581 596 506 640 q 701 476 657 551 q 746 313 746 401 q 701 149 746 224 q 581 29 657 74 q 415 -15 506 -15 q 252 31 331 -15 q 132 151 174 76 l 132 -278 l 88 -278 l 88 625 m 418 24 q 560 63 494 24 q 663 169 625 103 q 701 313 701 235 q 663 456 701 389 q 558 562 624 522 q 417 601 493 601 q 274 561 340 601 q 169 454 208 521 q 129 311 129 388 q 169 169 129 235 q 275 63 208 103 q 418 24 342 24 z "},"þ":{"ha":826,"x_min":110,"x_max":768,"o":"m 110 874 l 154 874 l 154 479 q 277 596 200 553 q 438 639 354 639 q 603 594 528 639 q 724 475 679 550 q 768 311 768 400 q 724 147 768 222 q 603 28 679 72 q 438 -17 528 -17 q 276 26 353 -17 q 154 143 200 69 l 154 -278 l 110 -278 l 110 874 m 440 22 q 582 62 517 22 q 685 167 647 101 q 724 311 724 233 q 685 455 724 389 q 582 560 647 521 q 440 600 517 600 q 297 560 363 600 q 191 455 231 521 q 151 311 151 389 q 191 167 151 233 q 297 62 231 101 q 440 22 363 22 z "},"q":{"ha":797,"x_min":51,"x_max":710,"o":"m 665 156 q 549 31 628 78 q 382 -15 471 -15 q 217 29 293 -15 q 96 149 140 74 q 51 313 51 225 q 96 476 51 400 q 217 596 140 551 q 382 640 293 640 q 553 592 472 640 q 665 468 633 544 l 665 625 l 710 625 l 710 -278 l 665 -278 l 665 156 m 385 24 q 526 63 461 24 q 630 169 592 103 q 668 313 668 235 q 629 456 668 389 q 525 562 590 522 q 383 601 460 601 q 241 561 307 601 q 135 454 175 521 q 96 311 96 388 q 135 169 96 235 q 242 63 175 103 q 385 24 308 24 z "},"r":{"ha":444,"x_min":88,"x_max":422,"o":"m 88 625 l 132 625 l 132 481 q 213 588 160 549 q 335 626 267 626 q 422 608 378 626 l 422 557 q 332 588 382 588 q 235 557 282 588 q 160 475 189 526 q 132 365 132 424 l 132 0 l 88 0 l 88 625 z "},"ŕ":{"ha":444,"x_min":88,"x_max":454,"o":"m 88 625 l 132 625 l 132 481 q 213 588 160 549 q 335 626 267 626 q 422 608 378 626 l 422 557 q 332 588 382 588 q 235 557 282 588 q 160 475 189 526 q 132 365 132 424 l 132 0 l 88 0 l 88 625 m 397 894 l 454 894 l 261 735 l 203 735 l 397 894 z "},"ř":{"ha":444,"x_min":78,"x_max":433,"o":"m 88 625 l 132 625 l 132 481 q 213 588 160 549 q 335 626 267 626 q 422 608 378 626 l 422 557 q 332 588 382 588 q 235 557 282 588 q 160 475 189 526 q 132 365 132 424 l 132 0 l 88 0 l 88 625 m 78 894 l 136 894 l 256 768 l 376 894 l 433 894 l 278 735 l 236 735 l 78 894 z "},"ŗ":{"ha":444,"x_min":88,"x_max":422,"o":"m 88 625 l 132 625 l 132 481 q 213 588 160 549 q 335 626 267 626 q 422 608 378 626 l 422 557 q 332 588 382 588 q 235 557 282 588 q 160 475 189 526 q 132 365 132 424 l 132 0 l 88 0 l 88 625 m 265 -153 l 265 -153 q 261 -175 265 -162 l 218 -274 l 208 -274 l 208 -197 q 180 -181 192 -194 q 168 -150 168 -168 q 183 -117 168 -131 q 217 -103 197 -103 q 251 -117 236 -103 q 265 -150 265 -131 l 265 -153 z "},"ȑ":{"ha":444,"x_min":-14,"x_max":422,"o":"m 88 625 l 132 625 l 132 481 q 213 588 160 549 q 335 626 267 626 q 422 608 378 626 l 422 557 q 332 588 382 588 q 235 557 282 588 q 160 475 189 526 q 132 365 132 424 l 132 0 l 88 0 l 88 625 m -14 894 l 43 894 l 238 735 l 179 735 l -14 894 m 125 894 l 182 894 l 376 735 l 318 735 l 125 894 z "},"ȓ":{"ha":444,"x_min":88,"x_max":422,"o":"m 88 625 l 132 625 l 132 481 q 213 588 160 549 q 335 626 267 626 q 422 608 378 626 l 422 557 q 332 588 382 588 q 235 557 282 588 q 160 475 189 526 q 132 365 132 424 l 132 0 l 88 0 l 88 625 m 100 733 q 139 849 100 803 q 246 894 178 894 q 353 849 314 894 q 392 733 392 803 l 347 733 q 321 822 347 788 q 246 856 294 856 q 171 822 197 856 q 144 733 144 788 l 100 733 z "},"s":{"ha":483,"x_min":47,"x_max":432,"o":"m 239 -15 q 121 8 172 -15 q 47 67 69 31 l 47 140 q 119 52 74 81 q 236 24 165 24 q 346 66 304 24 q 388 175 388 108 q 364 263 388 232 q 288 326 340 294 l 235 357 q 149 412 178 392 q 104 458 121 432 q 88 518 88 483 q 126 607 88 574 q 228 640 165 640 q 356 606 304 640 l 356 544 q 232 601 313 601 q 160 579 188 601 q 132 522 132 557 q 149 469 132 492 q 195 426 165 446 q 294 368 225 407 q 399 285 365 328 q 432 175 432 243 q 376 37 432 89 q 239 -15 319 -15 z "},"ś":{"ha":483,"x_min":47,"x_max":440,"o":"m 239 -15 q 121 8 172 -15 q 47 67 69 31 l 47 140 q 119 52 74 81 q 236 24 165 24 q 346 66 304 24 q 388 175 388 108 q 364 263 388 232 q 288 326 340 294 l 235 357 q 149 412 178 392 q 104 458 121 432 q 88 518 88 483 q 126 607 88 574 q 228 640 165 640 q 356 606 304 640 l 356 544 q 232 601 313 601 q 160 579 188 601 q 132 522 132 557 q 149 469 132 492 q 195 426 165 446 q 294 368 225 407 q 399 285 365 328 q 432 175 432 243 q 376 37 432 89 q 239 -15 319 -15 m 383 894 l 440 894 l 247 735 l 189 735 l 383 894 z "},"š":{"ha":483,"x_min":47,"x_max":432,"o":"m 239 -15 q 121 8 172 -15 q 47 67 69 31 l 47 140 q 119 52 74 81 q 236 24 165 24 q 346 66 304 24 q 388 175 388 108 q 364 263 388 232 q 288 326 340 294 l 235 357 q 149 412 178 392 q 104 458 121 432 q 88 518 88 483 q 126 607 88 574 q 228 640 165 640 q 356 606 304 640 l 356 544 q 232 601 313 601 q 160 579 188 601 q 132 522 132 557 q 149 469 132 492 q 195 426 165 446 q 294 368 225 407 q 399 285 365 328 q 432 175 432 243 q 376 37 432 89 q 239 -15 319 -15 m 64 894 l 122 894 l 242 768 l 363 894 l 419 894 l 264 735 l 222 735 l 64 894 z "},"ş":{"ha":483,"x_min":47,"x_max":432,"o":"m 432 175 q 383 44 432 96 q 263 -14 335 -7 l 263 -54 l 267 -54 q 367 -139 367 -54 q 341 -212 368 -186 q 268 -239 314 -239 l 218 -239 l 218 -200 l 268 -200 q 309 -185 294 -200 q 324 -144 324 -169 q 268 -94 324 -94 l 219 -94 l 218 -15 q 113 11 158 -11 q 47 67 68 33 l 47 140 q 119 52 74 81 q 236 24 165 24 q 346 66 304 24 q 388 175 388 108 q 364 263 388 232 q 288 326 340 294 l 235 357 q 149 412 178 392 q 104 458 121 432 q 88 518 88 483 q 126 607 88 574 q 228 640 165 640 q 356 606 304 640 l 356 544 q 232 601 313 601 q 160 579 188 601 q 132 522 132 557 q 149 469 132 492 q 195 426 165 446 q 294 368 225 407 q 399 285 365 328 q 432 175 432 243 z "},"ŝ":{"ha":483,"x_min":47,"x_max":432,"o":"m 239 -15 q 121 8 172 -15 q 47 67 69 31 l 47 140 q 119 52 74 81 q 236 24 165 24 q 346 66 304 24 q 388 175 388 108 q 364 263 388 232 q 288 326 340 294 l 235 357 q 149 412 178 392 q 104 458 121 432 q 88 518 88 483 q 126 607 88 574 q 228 640 165 640 q 356 606 304 640 l 356 544 q 232 601 313 601 q 160 579 188 601 q 132 522 132 557 q 149 469 132 492 q 195 426 165 446 q 294 368 225 407 q 399 285 365 328 q 432 175 432 243 q 376 37 432 89 q 239 -15 319 -15 m 367 735 l 243 863 l 119 735 l 64 735 l 222 894 l 264 894 l 419 735 l 367 735 z "},"ș":{"ha":483,"x_min":47,"x_max":432,"o":"m 239 -15 q 121 8 172 -15 q 47 67 69 31 l 47 140 q 119 52 74 81 q 236 24 165 24 q 346 66 304 24 q 388 175 388 108 q 364 263 388 232 q 288 326 340 294 l 235 357 q 149 412 178 392 q 104 458 121 432 q 88 518 88 483 q 126 607 88 574 q 228 640 165 640 q 356 606 304 640 l 356 544 q 232 601 313 601 q 160 579 188 601 q 132 522 132 557 q 149 469 132 492 q 195 426 165 446 q 294 368 225 407 q 399 285 365 328 q 432 175 432 243 q 376 37 432 89 q 239 -15 319 -15 m 293 -153 l 293 -153 q 289 -175 293 -162 l 246 -274 l 236 -274 l 236 -197 q 208 -181 219 -194 q 196 -150 196 -168 q 210 -117 196 -131 q 244 -103 225 -103 q 278 -117 264 -103 q 293 -150 293 -131 l 293 -153 z "},"ß":{"ha":688,"x_min":110,"x_max":629,"o":"m 347 -15 q 213 14 278 -15 l 213 71 q 277 34 246 44 q 349 24 308 24 q 468 60 414 24 q 553 160 522 97 q 585 300 585 224 q 511 494 585 422 q 304 565 438 565 l 283 565 l 283 603 l 304 603 q 422 652 379 603 q 464 779 464 701 q 423 899 464 856 q 315 943 382 943 q 200 898 246 943 q 154 788 154 853 l 154 0 l 110 0 l 110 788 q 136 886 110 842 q 209 956 163 931 q 313 982 256 982 q 453 927 399 982 q 508 786 508 872 q 490 694 508 736 q 445 625 472 653 q 390 589 418 597 q 563 499 497 578 q 629 296 629 419 q 592 135 629 206 q 491 24 556 64 q 347 -15 426 -15 z "},"t":{"ha":340,"x_min":74,"x_max":311,"o":"m 311 -8 q 141 54 208 -8 q 74 226 74 117 l 74 876 l 118 876 l 118 625 l 310 625 l 310 586 l 118 586 l 118 226 q 173 83 118 135 q 311 31 228 31 l 311 -8 z "},"ŧ":{"ha":350,"x_min":0,"x_max":311,"o":"m 118 226 q 173 83 118 135 q 311 31 228 31 l 311 -8 q 141 54 208 -8 q 74 226 74 117 l 74 406 l 0 406 l 0 444 l 74 444 l 74 876 l 118 876 l 118 625 l 310 625 l 310 586 l 118 586 l 118 444 l 310 444 l 310 406 l 118 406 l 118 226 z "},"ť":{"ha":340,"x_min":74,"x_max":311,"o":"m 311 -8 q 141 54 208 -8 q 74 226 74 117 l 74 876 l 118 876 l 118 625 l 310 625 l 310 586 l 118 586 l 118 226 q 173 83 118 135 q 311 31 228 31 l 311 -8 m 214 1000 l 274 1000 l 246 751 l 214 751 l 214 1000 z "},"ţ":{"ha":340,"x_min":74,"x_max":311,"o":"m 311 -8 q 224 6 264 -8 l 203 -54 q 272 -78 247 -54 q 297 -147 297 -101 q 271 -214 299 -189 q 197 -239 243 -239 l 147 -239 l 147 -199 l 197 -199 q 238 -184 224 -199 q 253 -144 253 -169 q 197 -94 253 -94 l 144 -94 l 182 24 q 102 104 131 53 q 74 226 74 156 l 74 876 l 118 876 l 118 625 l 310 625 l 310 586 l 118 586 l 118 226 q 173 83 118 135 q 311 31 228 31 l 311 -8 z "},"ț":{"ha":340,"x_min":74,"x_max":311,"o":"m 311 -8 q 141 54 208 -8 q 74 226 74 117 l 74 876 l 118 876 l 118 625 l 310 625 l 310 586 l 118 586 l 118 226 q 173 83 118 135 q 311 31 228 31 l 311 -8 m 250 -153 l 250 -153 q 246 -175 250 -162 l 203 -274 l 193 -274 l 193 -197 q 165 -181 176 -194 q 153 -150 153 -168 q 167 -117 153 -131 q 201 -103 182 -103 q 235 -117 221 -103 q 250 -150 250 -131 l 250 -153 z "},"u":{"ha":736,"x_min":88,"x_max":649,"o":"m 363 -15 q 159 57 231 -15 q 88 261 88 129 l 88 625 l 132 625 l 132 261 q 192 85 132 147 q 363 24 253 24 q 485 53 429 24 q 572 138 540 83 q 604 261 604 192 l 604 625 l 649 625 l 649 0 l 604 0 l 604 117 q 508 22 572 58 q 363 -15 444 -15 z "},"ú":{"ha":736,"x_min":88,"x_max":649,"o":"m 363 -15 q 159 57 231 -15 q 88 261 88 129 l 88 625 l 132 625 l 132 261 q 192 85 132 147 q 363 24 253 24 q 485 53 429 24 q 572 138 540 83 q 604 261 604 192 l 604 625 l 649 625 l 649 0 l 604 0 l 604 117 q 508 22 572 58 q 363 -15 444 -15 m 521 894 l 578 894 l 385 735 l 326 735 l 521 894 z "},"ŭ":{"ha":736,"x_min":88,"x_max":649,"o":"m 363 -15 q 159 57 231 -15 q 88 261 88 129 l 88 625 l 132 625 l 132 261 q 192 85 132 147 q 363 24 253 24 q 485 53 429 24 q 572 138 540 83 q 604 261 604 192 l 604 625 l 649 625 l 649 0 l 604 0 l 604 117 q 508 22 572 58 q 363 -15 444 -15 m 378 733 q 251 779 297 733 q 204 894 204 825 l 249 894 q 282 806 249 840 q 378 772 315 772 q 474 806 440 772 q 507 894 507 840 l 551 894 q 505 779 551 825 q 378 733 458 733 z "},"û":{"ha":736,"x_min":88,"x_max":649,"o":"m 363 -15 q 159 57 231 -15 q 88 261 88 129 l 88 625 l 132 625 l 132 261 q 192 85 132 147 q 363 24 253 24 q 485 53 429 24 q 572 138 540 83 q 604 261 604 192 l 604 625 l 649 625 l 649 0 l 604 0 l 604 117 q 508 22 572 58 q 363 -15 444 -15 m 526 735 l 381 860 l 235 735 l 174 735 l 360 894 l 401 894 l 585 735 l 526 735 z "},"ȕ":{"ha":736,"x_min":88,"x_max":649,"o":"m 363 -15 q 159 57 231 -15 q 88 261 88 129 l 88 625 l 132 625 l 132 261 q 192 85 132 147 q 363 24 253 24 q 485 53 429 24 q 572 138 540 83 q 604 261 604 192 l 604 625 l 649 625 l 649 0 l 604 0 l 604 117 q 508 22 572 58 q 363 -15 444 -15 m 110 894 l 167 894 l 361 735 l 303 735 l 110 894 m 249 894 l 306 894 l 500 735 l 442 735 l 249 894 z "},"ü":{"ha":736,"x_min":88,"x_max":649,"o":"m 307 772 q 278 784 290 772 q 267 813 267 796 q 278 840 267 828 q 307 851 290 851 q 334 840 322 851 q 346 813 346 828 q 334 784 346 796 q 307 772 322 772 m 454 772 q 426 784 438 772 q 414 813 414 796 q 426 840 414 828 q 454 851 438 851 q 481 840 469 851 q 493 813 493 828 q 481 784 493 796 q 454 772 469 772 m 363 -15 q 159 57 231 -15 q 88 261 88 129 l 88 625 l 132 625 l 132 261 q 192 85 132 147 q 363 24 253 24 q 485 53 429 24 q 572 138 540 83 q 604 261 604 192 l 604 625 l 649 625 l 649 0 l 604 0 l 604 117 q 508 22 572 58 q 363 -15 444 -15 z "},"ụ":{"ha":736,"x_min":88,"x_max":649,"o":"m 363 -15 q 159 57 231 -15 q 88 261 88 129 l 88 625 l 132 625 l 132 261 q 192 85 132 147 q 363 24 253 24 q 485 53 429 24 q 572 138 540 83 q 604 261 604 192 l 604 625 l 649 625 l 649 0 l 604 0 l 604 117 q 508 22 572 58 q 363 -15 444 -15 m 368 -179 q 334 -165 349 -179 q 319 -131 319 -151 q 334 -97 319 -111 q 368 -83 349 -83 q 402 -97 388 -83 q 417 -131 417 -111 q 402 -165 417 -151 q 368 -179 388 -179 z "},"ù":{"ha":736,"x_min":88,"x_max":649,"o":"m 363 -15 q 159 57 231 -15 q 88 261 88 129 l 88 625 l 132 625 l 132 261 q 192 85 132 147 q 363 24 253 24 q 485 53 429 24 q 572 138 540 83 q 604 261 604 192 l 604 625 l 649 625 l 649 0 l 604 0 l 604 117 q 508 22 572 58 q 363 -15 444 -15 m 139 894 l 196 894 l 390 735 l 332 735 l 139 894 z "},"ủ":{"ha":736,"x_min":88,"x_max":649,"o":"m 363 -15 q 159 57 231 -15 q 88 261 88 129 l 88 625 l 132 625 l 132 261 q 192 85 132 147 q 363 24 253 24 q 485 53 429 24 q 572 138 540 83 q 604 261 604 192 l 604 625 l 649 625 l 649 0 l 604 0 l 604 117 q 508 22 572 58 q 363 -15 444 -15 m 353 768 q 460 828 460 768 q 439 868 460 853 q 378 883 418 883 q 315 864 339 883 q 292 811 292 844 l 247 811 q 283 894 247 864 q 379 924 319 924 q 471 894 438 924 q 504 822 504 865 q 477 765 504 785 q 397 742 450 744 l 397 706 l 353 706 l 353 768 z "},"ư":{"ha":792,"x_min":88,"x_max":813,"o":"m 363 -15 q 159 57 231 -15 q 88 261 88 129 l 88 625 l 132 625 l 132 261 q 192 85 132 147 q 363 24 253 24 q 485 53 429 24 q 572 138 540 83 q 604 261 604 192 l 604 625 l 649 625 l 649 0 l 604 0 l 604 117 q 508 22 572 58 q 363 -15 444 -15 m 649 625 q 738 672 707 625 q 768 790 768 718 l 813 790 q 769 644 813 701 q 649 586 725 586 l 649 625 z "},"ứ":{"ha":792,"x_min":88,"x_max":813,"o":"m 363 -15 q 159 57 231 -15 q 88 261 88 129 l 88 625 l 132 625 l 132 261 q 192 85 132 147 q 363 24 253 24 q 485 53 429 24 q 572 138 540 83 q 604 261 604 192 l 604 625 l 649 625 l 649 0 l 604 0 l 604 117 q 508 22 572 58 q 363 -15 444 -15 m 649 625 q 738 672 707 625 q 768 790 768 718 l 813 790 q 769 644 813 701 q 649 586 725 586 l 649 625 m 521 894 l 578 894 l 385 735 l 326 735 l 521 894 z "},"ự":{"ha":813,"x_min":88,"x_max":813,"o":"m 363 -15 q 159 57 231 -15 q 88 261 88 129 l 88 625 l 132 625 l 132 261 q 192 85 132 147 q 363 24 253 24 q 485 53 429 24 q 572 138 540 83 q 604 261 604 192 l 604 625 l 649 625 l 649 0 l 604 0 l 604 117 q 508 22 572 58 q 363 -15 444 -15 m 649 625 q 738 672 707 625 q 768 790 768 718 l 813 790 q 769 644 813 701 q 649 586 725 586 l 649 625 m 368 -179 q 334 -165 349 -179 q 319 -131 319 -151 q 334 -97 319 -111 q 368 -83 349 -83 q 402 -97 388 -83 q 417 -131 417 -111 q 402 -165 417 -151 q 368 -179 388 -179 z "},"ừ":{"ha":792,"x_min":88,"x_max":813,"o":"m 363 -15 q 159 57 231 -15 q 88 261 88 129 l 88 625 l 132 625 l 132 261 q 192 85 132 147 q 363 24 253 24 q 485 53 429 24 q 572 138 540 83 q 604 261 604 192 l 604 625 l 649 625 l 649 0 l 604 0 l 604 117 q 508 22 572 58 q 363 -15 444 -15 m 649 625 q 738 672 707 625 q 768 790 768 718 l 813 790 q 769 644 813 701 q 649 586 725 586 l 649 625 m 139 894 l 196 894 l 390 735 l 332 735 l 139 894 z "},"ử":{"ha":792,"x_min":88,"x_max":813,"o":"m 363 -15 q 159 57 231 -15 q 88 261 88 129 l 88 625 l 132 625 l 132 261 q 192 85 132 147 q 363 24 253 24 q 485 53 429 24 q 572 138 540 83 q 604 261 604 192 l 604 625 l 649 625 l 649 0 l 604 0 l 604 117 q 508 22 572 58 q 363 -15 444 -15 m 649 625 q 738 672 707 625 q 768 790 768 718 l 813 790 q 769 644 813 701 q 649 586 725 586 l 649 625 m 353 768 q 460 828 460 768 q 439 868 460 853 q 378 883 418 883 q 315 864 339 883 q 292 811 292 844 l 247 811 q 283 894 247 864 q 379 924 319 924 q 471 894 438 924 q 504 822 504 865 q 477 765 504 785 q 397 742 450 744 l 397 706 l 353 706 l 353 768 z "},"ữ":{"ha":792,"x_min":88,"x_max":813,"o":"m 363 -15 q 159 57 231 -15 q 88 261 88 129 l 88 625 l 132 625 l 132 261 q 192 85 132 147 q 363 24 253 24 q 485 53 429 24 q 572 138 540 83 q 604 261 604 192 l 604 625 l 649 625 l 649 0 l 604 0 l 604 117 q 508 22 572 58 q 363 -15 444 -15 m 649 625 q 738 672 707 625 q 768 790 768 718 l 813 790 q 769 644 813 701 q 649 586 725 586 l 649 625 m 501 733 q 431 751 457 733 q 376 803 404 769 q 338 842 356 829 q 293 856 319 856 q 224 825 250 856 q 199 747 199 794 l 154 747 q 192 853 154 811 q 292 894 231 894 q 358 876 332 894 q 410 826 383 858 q 453 785 435 799 q 497 772 471 772 q 554 799 533 772 q 575 881 575 826 l 619 881 q 585 772 619 810 q 501 733 551 733 z "},"ű":{"ha":736,"x_min":88,"x_max":649,"o":"m 363 -15 q 159 57 231 -15 q 88 261 88 129 l 88 625 l 132 625 l 132 261 q 192 85 132 147 q 363 24 253 24 q 485 53 429 24 q 572 138 540 83 q 604 261 604 192 l 604 625 l 649 625 l 649 0 l 604 0 l 604 117 q 508 22 572 58 q 363 -15 444 -15 m 397 894 l 454 894 l 261 735 l 203 735 l 397 894 m 567 894 l 624 894 l 431 735 l 372 735 l 567 894 z "},"ȗ":{"ha":736,"x_min":88,"x_max":649,"o":"m 363 -15 q 159 57 231 -15 q 88 261 88 129 l 88 625 l 132 625 l 132 261 q 192 85 132 147 q 363 24 253 24 q 485 53 429 24 q 572 138 540 83 q 604 261 604 192 l 604 625 l 649 625 l 649 0 l 604 0 l 604 117 q 508 22 572 58 q 363 -15 444 -15 m 379 894 q 506 849 460 894 q 553 733 553 803 l 508 733 q 475 822 508 788 q 379 856 442 856 q 283 822 317 856 q 250 733 250 788 l 206 733 q 252 849 206 803 q 379 894 299 894 z "},"ū":{"ha":736,"x_min":88,"x_max":649,"o":"m 363 -15 q 159 57 231 -15 q 88 261 88 129 l 88 625 l 132 625 l 132 261 q 192 85 132 147 q 363 24 253 24 q 485 53 429 24 q 572 138 540 83 q 604 261 604 192 l 604 625 l 649 625 l 649 0 l 604 0 l 604 117 q 508 22 572 58 q 363 -15 444 -15 m 186 825 l 571 825 l 571 786 l 186 786 l 186 825 z "},"ų":{"ha":736,"x_min":88,"x_max":649,"o":"m 542 -151 q 525 -194 525 -175 q 542 -228 525 -215 q 589 -242 560 -242 l 649 -242 l 649 -278 l 586 -278 q 513 -255 540 -278 q 485 -197 485 -232 q 507 -136 485 -167 l 604 0 l 604 117 q 508 22 572 58 q 363 -15 444 -15 q 159 57 231 -15 q 88 261 88 129 l 88 625 l 132 625 l 132 261 q 192 85 132 147 q 363 24 253 24 q 485 53 429 24 q 572 138 540 83 q 604 261 604 192 l 604 625 l 649 625 l 649 0 l 542 -151 z "},"ů":{"ha":736,"x_min":88,"x_max":649,"o":"m 363 -15 q 159 57 231 -15 q 88 261 88 129 l 88 625 l 132 625 l 132 261 q 192 85 132 147 q 363 24 253 24 q 485 53 429 24 q 572 138 540 83 q 604 261 604 192 l 604 625 l 649 625 l 649 0 l 604 0 l 604 117 q 508 22 572 58 q 363 -15 444 -15 m 375 711 q 303 742 333 711 q 274 817 274 774 q 305 889 274 858 q 379 919 336 919 q 453 889 422 919 q 483 817 483 858 q 453 742 483 774 q 381 711 422 711 l 375 711 m 379 744 q 427 765 407 744 q 447 815 447 786 q 427 865 447 844 q 379 886 407 886 q 329 865 350 886 q 308 815 308 843 q 329 766 308 788 q 379 744 350 744 z "},"ũ":{"ha":736,"x_min":88,"x_max":649,"o":"m 363 -15 q 159 57 231 -15 q 88 261 88 129 l 88 625 l 132 625 l 132 261 q 192 85 132 147 q 363 24 253 24 q 485 53 429 24 q 572 138 540 83 q 604 261 604 192 l 604 625 l 649 625 l 649 0 l 604 0 l 604 117 q 508 22 572 58 q 363 -15 444 -15 m 501 733 q 431 751 457 733 q 376 803 404 769 q 338 842 356 829 q 293 856 319 856 q 224 825 250 856 q 199 747 199 794 l 154 747 q 192 853 154 811 q 292 894 231 894 q 358 876 332 894 q 410 826 383 858 q 453 785 435 799 q 497 772 471 772 q 554 799 533 772 q 575 881 575 826 l 619 881 q 585 772 619 810 q 501 733 551 733 z "},"v":{"ha":629,"x_min":7,"x_max":622,"o":"m 622 625 l 315 -18 l 7 625 l 56 625 l 315 83 l 574 625 l 622 625 z "},"w":{"ha":894,"x_min":7,"x_max":888,"o":"m 592 -15 l 450 288 l 307 -15 l 7 625 l 53 625 l 308 82 l 429 336 l 296 622 l 340 622 l 451 381 l 565 625 l 610 625 l 474 335 l 592 81 l 843 624 l 888 624 l 592 -15 z "},"ẃ":{"ha":894,"x_min":7,"x_max":888,"o":"m 592 -15 l 450 288 l 307 -15 l 7 625 l 53 625 l 308 82 l 429 336 l 296 622 l 340 622 l 451 381 l 565 625 l 610 625 l 474 335 l 592 81 l 843 624 l 888 624 l 592 -15 m 589 894 l 646 894 l 453 735 l 394 735 l 589 894 z "},"ŵ":{"ha":894,"x_min":7,"x_max":888,"o":"m 592 -15 l 450 288 l 307 -15 l 7 625 l 53 625 l 308 82 l 429 336 l 296 622 l 340 622 l 451 381 l 565 625 l 610 625 l 474 335 l 592 81 l 843 624 l 888 624 l 592 -15 m 594 735 l 449 860 l 303 735 l 242 735 l 428 894 l 469 894 l 653 735 l 594 735 z "},"ẅ":{"ha":894,"x_min":7,"x_max":888,"o":"m 375 772 q 347 784 358 772 q 335 813 335 796 q 347 840 335 828 q 375 851 358 851 q 402 840 390 851 q 414 813 414 828 q 402 784 414 796 q 375 772 390 772 m 522 772 q 494 784 506 772 q 482 813 482 796 q 494 840 482 828 q 522 851 506 851 q 549 840 538 851 q 561 813 561 828 q 549 784 561 796 q 522 772 538 772 m 592 -15 l 450 288 l 307 -15 l 7 625 l 53 625 l 308 82 l 429 336 l 296 622 l 340 622 l 451 381 l 565 625 l 610 625 l 474 335 l 592 81 l 843 624 l 888 624 l 592 -15 z "},"ẁ":{"ha":894,"x_min":7,"x_max":888,"o":"m 592 -15 l 450 288 l 307 -15 l 7 625 l 53 625 l 308 82 l 429 336 l 296 622 l 340 622 l 451 381 l 565 625 l 610 625 l 474 335 l 592 81 l 843 624 l 888 624 l 592 -15 m 207 894 l 264 894 l 458 735 l 400 735 l 207 894 z "},"x":{"ha":604,"x_min":31,"x_max":579,"o":"m 528 0 l 300 343 l 75 0 l 31 0 l 274 369 l 104 625 l 156 625 l 299 408 l 440 625 l 485 625 l 325 382 l 579 0 l 528 0 z "},"y":{"ha":708,"x_min":74,"x_max":635,"o":"m 346 -276 q 100 -165 190 -276 l 100 -94 q 204 -202 146 -167 q 340 -237 263 -237 q 476 -204 419 -237 q 561 -113 532 -171 q 590 15 590 -56 l 590 121 q 490 20 557 56 q 343 -15 422 -15 q 203 19 264 -15 q 108 117 142 54 q 74 261 74 179 l 74 625 l 118 625 l 118 261 q 149 133 118 186 q 232 51 181 79 q 344 24 283 24 q 468 56 411 24 q 558 144 525 89 q 590 261 590 199 l 590 625 l 635 625 l 635 19 q 601 -131 635 -64 q 501 -237 567 -199 q 346 -276 436 -276 z "},"ý":{"ha":708,"x_min":74,"x_max":635,"o":"m 346 -276 q 100 -165 190 -276 l 100 -94 q 204 -202 146 -167 q 340 -237 263 -237 q 476 -204 419 -237 q 561 -113 532 -171 q 590 15 590 -56 l 590 121 q 490 20 557 56 q 343 -15 422 -15 q 203 19 264 -15 q 108 117 142 54 q 74 261 74 179 l 74 625 l 118 625 l 118 261 q 149 133 118 186 q 232 51 181 79 q 344 24 283 24 q 468 56 411 24 q 558 144 525 89 q 590 261 590 199 l 590 625 l 635 625 l 635 19 q 601 -131 635 -64 q 501 -237 567 -199 q 346 -276 436 -276 m 525 894 l 582 894 l 389 735 l 331 735 l 525 894 z "},"ŷ":{"ha":708,"x_min":74,"x_max":635,"o":"m 346 -276 q 100 -165 190 -276 l 100 -94 q 204 -202 146 -167 q 340 -237 263 -237 q 476 -204 419 -237 q 561 -113 532 -171 q 590 15 590 -56 l 590 121 q 490 20 557 56 q 343 -15 422 -15 q 203 19 264 -15 q 108 117 142 54 q 74 261 74 179 l 74 625 l 118 625 l 118 261 q 149 133 118 186 q 232 51 181 79 q 344 24 283 24 q 468 56 411 24 q 558 144 525 89 q 590 261 590 199 l 590 625 l 635 625 l 635 19 q 601 -131 635 -64 q 501 -237 567 -199 q 346 -276 436 -276 m 531 735 l 385 860 l 239 735 l 178 735 l 364 894 l 406 894 l 589 735 l 531 735 z "},"ÿ":{"ha":708,"x_min":74,"x_max":635,"o":"m 311 772 q 283 784 294 772 q 271 813 271 796 q 283 840 271 828 q 311 851 294 851 q 338 840 326 851 q 350 813 350 828 q 338 784 350 796 q 311 772 326 772 m 458 772 q 430 784 442 772 q 418 813 418 796 q 430 840 418 828 q 458 851 442 851 q 485 840 474 851 q 497 813 497 828 q 485 784 497 796 q 458 772 474 772 m 346 -276 q 100 -165 190 -276 l 100 -94 q 204 -202 146 -167 q 340 -237 263 -237 q 476 -204 419 -237 q 561 -113 532 -171 q 590 15 590 -56 l 590 121 q 490 20 557 56 q 343 -15 422 -15 q 203 19 264 -15 q 108 117 142 54 q 74 261 74 179 l 74 625 l 118 625 l 118 261 q 149 133 118 186 q 232 51 181 79 q 344 24 283 24 q 468 56 411 24 q 558 144 525 89 q 590 261 590 199 l 590 625 l 635 625 l 635 19 q 601 -131 635 -64 q 501 -237 567 -199 q 346 -276 436 -276 z "},"ỵ":{"ha":767,"x_min":74,"x_max":767,"o":"m 346 -276 q 100 -165 190 -276 l 100 -94 q 204 -202 146 -167 q 340 -237 263 -237 q 476 -204 419 -237 q 561 -113 532 -171 q 590 15 590 -56 l 590 121 q 490 20 557 56 q 343 -15 422 -15 q 203 19 264 -15 q 108 117 142 54 q 74 261 74 179 l 74 625 l 118 625 l 118 261 q 149 133 118 186 q 232 51 181 79 q 344 24 283 24 q 468 56 411 24 q 558 144 525 89 q 590 261 590 199 l 590 625 l 635 625 l 635 19 q 601 -131 635 -64 q 501 -237 567 -199 q 346 -276 436 -276 m 718 -179 q 684 -165 699 -179 q 669 -131 669 -151 q 684 -97 669 -111 q 718 -83 699 -83 q 752 -97 738 -83 q 767 -131 767 -111 q 752 -165 767 -151 q 718 -179 738 -179 z "},"ỳ":{"ha":708,"x_min":74,"x_max":635,"o":"m 346 -276 q 100 -165 190 -276 l 100 -94 q 204 -202 146 -167 q 340 -237 263 -237 q 476 -204 419 -237 q 561 -113 532 -171 q 590 15 590 -56 l 590 121 q 490 20 557 56 q 343 -15 422 -15 q 203 19 264 -15 q 108 117 142 54 q 74 261 74 179 l 74 625 l 118 625 l 118 261 q 149 133 118 186 q 232 51 181 79 q 344 24 283 24 q 468 56 411 24 q 558 144 525 89 q 590 261 590 199 l 590 625 l 635 625 l 635 19 q 601 -131 635 -64 q 501 -237 567 -199 q 346 -276 436 -276 m 143 894 l 200 894 l 394 735 l 336 735 l 143 894 z "},"ỷ":{"ha":708,"x_min":74,"x_max":635,"o":"m 346 -276 q 100 -165 190 -276 l 100 -94 q 204 -202 146 -167 q 340 -237 263 -237 q 476 -204 419 -237 q 561 -113 532 -171 q 590 15 590 -56 l 590 121 q 490 20 557 56 q 343 -15 422 -15 q 203 19 264 -15 q 108 117 142 54 q 74 261 74 179 l 74 625 l 118 625 l 118 261 q 149 133 118 186 q 232 51 181 79 q 344 24 283 24 q 468 56 411 24 q 558 144 525 89 q 590 261 590 199 l 590 625 l 635 625 l 635 19 q 601 -131 635 -64 q 501 -237 567 -199 q 346 -276 436 -276 m 357 768 q 464 828 464 768 q 443 868 464 853 q 382 883 422 883 q 319 864 343 883 q 296 811 296 844 l 251 811 q 288 894 251 864 q 383 924 324 924 q 475 894 442 924 q 508 822 508 865 q 481 765 508 785 q 401 742 454 744 l 401 706 l 357 706 l 357 768 z "},"ȳ":{"ha":708,"x_min":74,"x_max":635,"o":"m 346 -276 q 100 -165 190 -276 l 100 -94 q 204 -202 146 -167 q 340 -237 263 -237 q 476 -204 419 -237 q 561 -113 532 -171 q 590 15 590 -56 l 590 121 q 490 20 557 56 q 343 -15 422 -15 q 203 19 264 -15 q 108 117 142 54 q 74 261 74 179 l 74 625 l 118 625 l 118 261 q 149 133 118 186 q 232 51 181 79 q 344 24 283 24 q 468 56 411 24 q 558 144 525 89 q 590 261 590 199 l 590 625 l 635 625 l 635 19 q 601 -131 635 -64 q 501 -237 567 -199 q 346 -276 436 -276 m 190 825 l 575 825 l 575 786 l 190 786 l 190 825 z "},"ỹ":{"ha":708,"x_min":74,"x_max":635,"o":"m 346 -276 q 100 -165 190 -276 l 100 -94 q 204 -202 146 -167 q 340 -237 263 -237 q 476 -204 419 -237 q 561 -113 532 -171 q 590 15 590 -56 l 590 121 q 490 20 557 56 q 343 -15 422 -15 q 203 19 264 -15 q 108 117 142 54 q 74 261 74 179 l 74 625 l 118 625 l 118 261 q 149 133 118 186 q 232 51 181 79 q 344 24 283 24 q 468 56 411 24 q 558 144 525 89 q 590 261 590 199 l 590 625 l 635 625 l 635 19 q 601 -131 635 -64 q 501 -237 567 -199 q 346 -276 436 -276 m 506 733 q 435 751 461 733 q 381 803 408 769 q 342 842 360 829 q 297 856 324 856 q 228 825 254 856 q 203 747 203 794 l 158 747 q 197 853 158 811 q 296 894 235 894 q 362 876 336 894 q 414 826 388 858 q 457 785 439 799 q 501 772 475 772 q 558 799 538 772 q 579 881 579 826 l 624 881 q 590 772 624 810 q 506 733 556 733 z "},"z":{"ha":507,"x_min":36,"x_max":471,"o":"m 392 586 l 74 586 l 74 625 l 471 625 l 114 39 l 467 39 l 467 0 l 36 0 l 392 586 z "},"ź":{"ha":507,"x_min":36,"x_max":471,"o":"m 392 586 l 74 586 l 74 625 l 471 625 l 114 39 l 467 39 l 467 0 l 36 0 l 392 586 m 396 894 l 453 894 l 260 735 l 201 735 l 396 894 z "},"ž":{"ha":507,"x_min":36,"x_max":471,"o":"m 392 586 l 74 586 l 74 625 l 471 625 l 114 39 l 467 39 l 467 0 l 36 0 l 392 586 m 76 894 l 135 894 l 254 768 l 375 894 l 432 894 l 276 735 l 235 735 l 76 894 z "},"ż":{"ha":507,"x_min":36,"x_max":471,"o":"m 392 586 l 74 586 l 74 625 l 471 625 l 114 39 l 467 39 l 467 0 l 36 0 l 392 586 m 254 765 q 220 779 235 765 q 206 814 206 793 q 220 847 206 833 q 254 861 235 861 q 288 847 274 861 q 303 814 303 833 q 288 779 303 793 q 254 765 274 765 z "},"ﬁ":{"ha":578,"x_min":88,"x_max":503,"o":"m 476 0 l 432 0 l 432 586 l 132 586 l 132 0 l 88 0 l 88 651 q 119 770 88 717 q 205 855 150 824 q 325 886 260 886 l 325 847 q 228 822 272 847 q 158 751 183 796 q 132 651 132 706 l 132 625 l 476 625 l 476 0 m 454 864 q 488 850 474 864 q 503 817 503 836 q 488 782 503 796 q 454 768 474 768 q 420 782 435 768 q 406 817 406 796 q 420 850 406 836 q 454 864 435 864 z "},"ﬂ":{"ha":706,"x_min":88,"x_max":653,"o":"m 460 222 q 485 122 460 167 q 556 52 511 78 q 653 26 600 26 l 653 -12 q 533 17 588 -12 q 447 101 479 47 q 415 222 415 156 l 415 586 l 132 586 l 132 0 l 88 0 l 88 651 q 119 770 88 717 q 205 855 150 824 q 325 886 260 886 l 325 847 q 228 822 272 847 q 158 751 183 796 q 132 651 132 706 l 132 625 l 415 625 l 415 1042 l 460 1042 l 460 222 z "},"ª":{"ha":713,"x_min":53,"x_max":619,"o":"m 619 1042 l 619 513 l 575 513 l 575 631 q 476 533 540 569 q 338 496 413 496 q 194 534 260 496 q 91 636 129 572 q 53 776 53 700 q 91 917 53 853 q 194 1020 129 982 q 338 1058 260 1058 q 478 1020 413 1058 q 575 922 544 982 l 575 1042 l 619 1042 m 339 535 q 458 567 403 535 q 545 656 513 600 q 578 776 578 711 q 545 897 578 840 q 458 986 513 953 q 339 1019 403 1019 q 218 986 274 1019 q 130 897 163 953 q 97 775 97 840 q 130 656 97 711 q 218 567 163 600 q 339 535 274 535 m 92 368 l 594 368 l 594 329 l 92 329 l 92 368 z "},"º":{"ha":681,"x_min":56,"x_max":625,"o":"m 342 478 q 197 517 263 478 q 94 622 132 556 q 56 768 56 689 q 94 911 56 846 q 197 1015 132 976 q 342 1053 263 1053 q 484 1015 419 1053 q 587 911 549 976 q 625 768 625 846 q 588 619 625 686 q 487 515 551 553 q 342 478 422 478 m 342 517 q 462 550 407 517 q 549 640 517 583 q 581 765 581 697 q 549 890 581 833 q 462 981 517 947 q 342 1014 407 1014 q 220 980 275 1014 q 133 889 165 946 q 100 764 100 832 q 132 640 100 697 q 219 550 164 583 q 342 517 275 517 m 92 368 l 594 368 l 594 329 l 92 329 l 92 368 z "},"А":{"ha":1129,"x_min":44,"x_max":1085,"o":"m 1085 0 l 1036 0 l 839 397 l 286 397 l 93 0 l 44 0 l 564 1067 l 1085 0 m 822 438 l 561 967 l 306 438 l 822 438 z "},"Б":{"ha":546,"x_min":104,"x_max":497,"o":"m 104 1042 l 438 1042 l 438 1001 l 150 1001 l 150 663 l 163 663 q 410 576 324 663 q 497 331 497 490 q 451 164 497 240 q 326 44 406 88 q 150 0 246 0 l 104 0 l 104 1042 m 161 39 q 308 78 242 39 q 413 184 374 117 q 451 332 451 251 q 376 548 451 472 q 161 624 300 624 l 150 624 l 150 39 l 161 39 z "},"В":{"ha":560,"x_min":110,"x_max":503,"o":"m 110 1042 l 154 1042 q 315 991 264 1042 q 367 842 367 940 q 333 733 367 785 q 253 663 300 681 q 438 563 372 643 q 503 351 503 482 q 457 167 503 247 q 331 44 411 88 q 154 0 251 0 l 110 0 l 110 1042 m 165 675 q 278 724 232 675 q 324 843 324 772 q 285 963 324 922 q 165 1003 247 1003 l 154 1003 l 154 675 l 165 675 m 165 39 q 314 78 247 39 q 419 189 381 118 q 458 349 458 260 q 383 565 458 492 q 165 638 307 638 l 154 638 l 154 39 l 165 39 z "},"Г":{"ha":510,"x_min":104,"x_max":475,"o":"m 104 1042 l 475 1042 l 475 1001 l 150 1001 l 150 0 l 104 0 l 104 1042 z "},"Ѓ":{"ha":510,"x_min":104,"x_max":557,"o":"m 104 1042 l 475 1042 l 475 1001 l 150 1001 l 150 0 l 104 0 l 104 1042 m 500 1311 l 557 1311 l 364 1151 l 306 1151 l 500 1311 z "},"Ґ":{"ha":510,"x_min":104,"x_max":475,"o":"m 104 1042 l 429 1042 l 429 1179 l 475 1179 l 475 1001 l 150 1001 l 150 0 l 104 0 l 104 1042 z "},"Д":{"ha":1243,"x_min":49,"x_max":1194,"o":"m 49 40 l 125 40 l 626 1065 l 1128 40 l 1194 40 l 1194 -135 l 1151 -135 l 1151 0 l 89 0 l 89 -135 l 49 -135 l 49 40 m 1081 40 l 622 969 l 168 40 l 1081 40 z "},"Е":{"ha":519,"x_min":110,"x_max":483,"o":"m 110 1042 l 483 1042 l 483 1001 l 156 1001 l 156 435 l 429 435 l 429 394 l 156 394 l 156 40 l 483 40 l 483 0 l 110 0 l 110 1042 z "},"Ѐ":{"ha":519,"x_min":110,"x_max":483,"o":"m 110 1042 l 483 1042 l 483 1001 l 156 1001 l 156 435 l 429 435 l 429 394 l 156 394 l 156 40 l 483 40 l 483 0 l 110 0 l 110 1042 m 161 1311 l 218 1311 l 413 1151 l 354 1151 l 161 1311 z "},"Ё":{"ha":519,"x_min":110,"x_max":483,"o":"m 110 1042 l 483 1042 l 483 1001 l 156 1001 l 156 435 l 429 435 l 429 394 l 156 394 l 156 40 l 483 40 l 483 0 l 110 0 l 110 1042 m 207 1188 q 177 1199 189 1188 q 165 1229 165 1211 q 177 1259 165 1247 q 207 1271 189 1271 q 237 1259 225 1271 q 249 1229 249 1247 q 237 1199 249 1211 q 207 1188 225 1188 m 364 1188 q 334 1199 346 1188 q 322 1229 322 1211 q 334 1259 322 1247 q 364 1271 346 1271 q 394 1259 382 1271 q 406 1229 406 1247 q 394 1199 406 1211 q 364 1188 382 1188 z "},"Ж":{"ha":1275,"x_min":42,"x_max":1235,"o":"m 1235 0 l 1183 0 l 660 579 l 660 0 l 615 0 l 615 579 l 93 0 l 42 0 l 604 624 l 219 1042 l 269 1042 l 615 665 l 615 1042 l 660 1042 l 660 665 l 1006 1042 l 1057 1042 l 672 624 l 1235 0 z "},"З":{"ha":744,"x_min":49,"x_max":688,"o":"m 343 -28 q 174 13 250 -28 q 49 122 97 53 l 49 200 q 168 61 94 110 q 339 13 242 13 q 495 53 426 13 q 603 166 564 93 q 642 332 642 239 q 604 493 642 422 q 499 603 567 564 q 347 643 432 643 l 281 643 l 281 682 l 325 682 q 464 738 408 682 q 519 878 519 794 q 472 987 519 944 q 347 1029 424 1029 q 231 998 283 1029 q 161 917 178 967 l 161 989 q 242 1049 193 1028 q 350 1069 290 1069 q 506 1018 447 1069 q 565 878 565 967 q 419 669 565 726 q 613 559 538 649 q 688 335 688 469 q 642 147 688 229 q 518 18 597 64 q 343 -28 439 -28 z "},"И":{"ha":1024,"x_min":104,"x_max":919,"o":"m 104 1042 l 150 1042 l 150 71 l 874 1042 l 919 1042 l 919 0 l 874 0 l 874 974 l 147 0 l 104 0 l 104 1042 z "},"Й":{"ha":1024,"x_min":104,"x_max":919,"o":"m 104 1042 l 150 1042 l 150 71 l 874 1042 l 919 1042 l 919 0 l 874 0 l 874 974 l 147 0 l 104 0 l 104 1042 m 517 1135 q 372 1176 424 1135 q 315 1296 319 1218 l 354 1296 q 401 1203 360 1235 q 515 1171 443 1171 q 624 1207 578 1171 q 676 1296 671 1243 l 717 1296 q 656 1181 714 1228 q 517 1135 597 1135 z "},"Ѝ":{"ha":1024,"x_min":104,"x_max":919,"o":"m 104 1042 l 150 1042 l 150 71 l 874 1042 l 919 1042 l 919 0 l 874 0 l 874 974 l 147 0 l 104 0 l 104 1042 m 390 1311 l 447 1311 l 642 1151 l 583 1151 l 390 1311 z "},"К":{"ha":801,"x_min":110,"x_max":768,"o":"m 707 0 l 156 579 l 156 0 l 110 0 l 110 1042 l 156 1042 l 156 664 l 590 1042 l 656 1042 l 168 625 l 768 0 l 707 0 z "}}}
